<mxfile host="app.diagrams.net" agent="Mozilla/5.0 (Windows NT 10.0; Win64; x64) AppleWebKit/537.36 (KHTML, like Gecko) Chrome/132.0.0.0 Safari/537.36" version="26.0.10">
  <diagram name="Page-1" id="_0rcFb_fYvMjUT9K8s6D">
    <mxGraphModel dx="743" dy="1517" grid="1" gridSize="10" guides="1" tooltips="1" connect="1" arrows="1" fold="1" page="1" pageScale="1" pageWidth="850" pageHeight="1100" math="0" shadow="0">
      <root>
        <mxCell id="0" />
        <mxCell id="1" parent="0" />
        <mxCell id="7OJHZP6-_uYFb9aTtTCm-53" style="edgeStyle=orthogonalEdgeStyle;rounded=0;orthogonalLoop=1;jettySize=auto;html=1;entryX=0.5;entryY=0;entryDx=0;entryDy=0;exitX=0.5;exitY=1;exitDx=0;exitDy=0;" parent="1" source="HTWMXDrWPJUMCixaXArP-104" target="7OJHZP6-_uYFb9aTtTCm-33" edge="1">
          <mxGeometry relative="1" as="geometry">
            <mxPoint x="477" y="-673" as="sourcePoint" />
          </mxGeometry>
        </mxCell>
        <mxCell id="7OJHZP6-_uYFb9aTtTCm-32" style="edgeStyle=orthogonalEdgeStyle;rounded=0;orthogonalLoop=1;jettySize=auto;html=1;exitX=0.5;exitY=1;exitDx=0;exitDy=0;entryX=0.357;entryY=-0.004;entryDx=0;entryDy=0;entryPerimeter=0;" parent="1" source="7OJHZP6-_uYFb9aTtTCm-11" target="HTWMXDrWPJUMCixaXArP-103" edge="1">
          <mxGeometry relative="1" as="geometry">
            <mxPoint x="437" y="-723" as="targetPoint" />
            <Array as="points">
              <mxPoint x="140" y="-743" />
              <mxPoint x="429" y="-743" />
            </Array>
          </mxGeometry>
        </mxCell>
        <mxCell id="7OJHZP6-_uYFb9aTtTCm-11" value="glist" style="swimlane;whiteSpace=wrap;html=1;" parent="1" vertex="1">
          <mxGeometry x="30" y="-905.1800000000001" width="220" height="122" as="geometry">
            <mxRectangle x="44" y="-71" width="140" height="30" as="alternateBounds" />
          </mxGeometry>
        </mxCell>
        <mxCell id="7OJHZP6-_uYFb9aTtTCm-16" value="&lt;h1 style=&quot;margin-top: 0px; line-height: 44%;&quot;&gt;&lt;span style=&quot;background-color: initial; font-weight: normal;&quot;&gt;&lt;font style=&quot;font-size: 10px;&quot;&gt;The vector of genes in the same order of the genes in log2FC data. The length of GList should be the same as the number of rows in log2FC data.&lt;/font&gt;&lt;/span&gt;&lt;/h1&gt;" style="text;html=1;whiteSpace=wrap;overflow=hidden;rounded=0;align=center;spacing=0;" parent="7OJHZP6-_uYFb9aTtTCm-11" vertex="1">
          <mxGeometry x="5.5" y="24" width="209" height="74" as="geometry" />
        </mxCell>
        <mxCell id="HTWMXDrWPJUMCixaXArP-28" value="&gt; glist&#xa;[1] &quot;NAT2&quot;         &quot;ADA&quot;          &quot;CDH2&quot;         &quot;AKT3&quot; ..." style="text;whiteSpace=wrap;fontFamily=Lucida Console;fontSize=10;" parent="7OJHZP6-_uYFb9aTtTCm-11" vertex="1">
          <mxGeometry x="10" y="86" width="229" height="36" as="geometry" />
        </mxCell>
        <mxCell id="7OJHZP6-_uYFb9aTtTCm-20" value="tftg" style="swimlane;whiteSpace=wrap;html=1;" parent="1" vertex="1">
          <mxGeometry x="270" y="-905.1800000000001" width="270" height="130" as="geometry">
            <mxRectangle x="260" y="-71" width="140" height="30" as="alternateBounds" />
          </mxGeometry>
        </mxCell>
        <mxCell id="7OJHZP6-_uYFb9aTtTCm-21" value="&lt;h1 style=&quot;text-align: center; margin-top: 0px; line-height: 44%;&quot;&gt;&lt;font size=&quot;1&quot;&gt;&lt;span style=&quot;font-weight: 400;&quot;&gt;Matrix of TF-gene interactions; 1st column is the list of TFs, and the 2nd column is the list of genes regulated by the corresponding TFs. A 3th column (optional)&amp;nbsp; contains the (confidence) score for each interaction.&lt;/span&gt;&lt;/font&gt;&lt;/h1&gt;" style="text;html=1;whiteSpace=wrap;overflow=hidden;rounded=0;spacing=-1;" parent="7OJHZP6-_uYFb9aTtTCm-20" vertex="1">
          <mxGeometry y="23.36" width="180" height="106.64" as="geometry" />
        </mxCell>
        <mxCell id="HTWMXDrWPJUMCixaXArP-49" value="" style="shape=table;startSize=0;container=1;collapsible=0;childLayout=tableLayout;fontFamily=Lucida Console;fontSize=10;" parent="7OJHZP6-_uYFb9aTtTCm-20" vertex="1">
          <mxGeometry x="183" y="32.18000000000001" width="80.00000000000045" height="79.5" as="geometry" />
        </mxCell>
        <mxCell id="HTWMXDrWPJUMCixaXArP-50" value="" style="shape=tableRow;horizontal=0;startSize=0;swimlaneHead=0;swimlaneBody=0;strokeColor=inherit;top=0;left=0;bottom=0;right=0;collapsible=0;dropTarget=0;fillColor=none;points=[[0,0.5],[1,0.5]];portConstraint=eastwest;fontSize=10;" parent="HTWMXDrWPJUMCixaXArP-49" vertex="1">
          <mxGeometry width="80.00000000000045" height="20" as="geometry" />
        </mxCell>
        <mxCell id="HTWMXDrWPJUMCixaXArP-51" value="tf" style="shape=partialRectangle;html=1;whiteSpace=wrap;connectable=0;strokeColor=#666666;overflow=hidden;fillColor=#f5f5f5;top=0;left=0;bottom=0;right=0;pointerEvents=1;fontFamily=Lucida Console;fontColor=#333333;fontSize=10;" parent="HTWMXDrWPJUMCixaXArP-50" vertex="1">
          <mxGeometry width="40" height="20" as="geometry">
            <mxRectangle width="40" height="20" as="alternateBounds" />
          </mxGeometry>
        </mxCell>
        <mxCell id="HTWMXDrWPJUMCixaXArP-52" value="tg" style="shape=partialRectangle;html=1;whiteSpace=wrap;connectable=0;strokeColor=#666666;overflow=hidden;fillColor=#f5f5f5;top=0;left=0;bottom=0;right=0;pointerEvents=1;fontFamily=Lucida Console;fontColor=#333333;fontSize=10;" parent="HTWMXDrWPJUMCixaXArP-50" vertex="1">
          <mxGeometry x="40" width="40" height="20" as="geometry">
            <mxRectangle width="40" height="20" as="alternateBounds" />
          </mxGeometry>
        </mxCell>
        <mxCell id="HTWMXDrWPJUMCixaXArP-53" value="" style="shape=tableRow;horizontal=0;startSize=0;swimlaneHead=0;swimlaneBody=0;strokeColor=inherit;top=0;left=0;bottom=0;right=0;collapsible=0;dropTarget=0;fillColor=none;points=[[0,0.5],[1,0.5]];portConstraint=eastwest;fontSize=10;" parent="HTWMXDrWPJUMCixaXArP-49" vertex="1">
          <mxGeometry y="20" width="80.00000000000045" height="20" as="geometry" />
        </mxCell>
        <mxCell id="HTWMXDrWPJUMCixaXArP-54" value="&lt;span style=&quot;font-size: 10px; text-align: start; text-wrap-mode: nowrap; background-color: rgba(255, 255, 255, 0.03);&quot;&gt;Adnp2&lt;/span&gt;" style="shape=partialRectangle;html=1;whiteSpace=wrap;connectable=0;strokeColor=inherit;overflow=hidden;fillColor=none;top=0;left=0;bottom=0;right=0;pointerEvents=1;fontFamily=Lucida Console;fontSize=10;" parent="HTWMXDrWPJUMCixaXArP-53" vertex="1">
          <mxGeometry width="40" height="20" as="geometry">
            <mxRectangle width="40" height="20" as="alternateBounds" />
          </mxGeometry>
        </mxCell>
        <mxCell id="HTWMXDrWPJUMCixaXArP-55" value="&lt;span style=&quot;font-size: 10px; text-align: start; text-wrap-mode: nowrap; background-color: rgba(255, 255, 255, 0.03);&quot;&gt;Armc10&lt;/span&gt;" style="shape=partialRectangle;html=1;whiteSpace=wrap;connectable=0;strokeColor=inherit;overflow=hidden;fillColor=none;top=0;left=0;bottom=0;right=0;pointerEvents=1;fontFamily=Lucida Console;fontSize=10;" parent="HTWMXDrWPJUMCixaXArP-53" vertex="1">
          <mxGeometry x="40" width="40" height="20" as="geometry">
            <mxRectangle width="40" height="20" as="alternateBounds" />
          </mxGeometry>
        </mxCell>
        <mxCell id="HTWMXDrWPJUMCixaXArP-56" value="" style="shape=tableRow;horizontal=0;startSize=0;swimlaneHead=0;swimlaneBody=0;strokeColor=inherit;top=0;left=0;bottom=0;right=0;collapsible=0;dropTarget=0;fillColor=none;points=[[0,0.5],[1,0.5]];portConstraint=eastwest;fontSize=10;" parent="HTWMXDrWPJUMCixaXArP-49" vertex="1">
          <mxGeometry y="40" width="80.00000000000045" height="20" as="geometry" />
        </mxCell>
        <mxCell id="HTWMXDrWPJUMCixaXArP-57" value="Adnp2" style="shape=partialRectangle;html=1;whiteSpace=wrap;connectable=0;strokeColor=inherit;overflow=hidden;fillColor=none;top=0;left=0;bottom=0;right=0;pointerEvents=1;fontFamily=Lucida Console;fontSize=10;" parent="HTWMXDrWPJUMCixaXArP-56" vertex="1">
          <mxGeometry width="40" height="20" as="geometry">
            <mxRectangle width="40" height="20" as="alternateBounds" />
          </mxGeometry>
        </mxCell>
        <mxCell id="HTWMXDrWPJUMCixaXArP-58" value="Kdm1a" style="shape=partialRectangle;html=1;whiteSpace=wrap;connectable=0;strokeColor=inherit;overflow=hidden;fillColor=none;top=0;left=0;bottom=0;right=0;pointerEvents=1;fontFamily=Lucida Console;fontSize=10;" parent="HTWMXDrWPJUMCixaXArP-56" vertex="1">
          <mxGeometry x="40" width="40" height="20" as="geometry">
            <mxRectangle width="40" height="20" as="alternateBounds" />
          </mxGeometry>
        </mxCell>
        <mxCell id="HTWMXDrWPJUMCixaXArP-59" value="" style="shape=tableRow;horizontal=0;startSize=0;swimlaneHead=0;swimlaneBody=0;strokeColor=inherit;top=0;left=0;bottom=0;right=0;collapsible=0;dropTarget=0;fillColor=none;points=[[0,0.5],[1,0.5]];portConstraint=eastwest;fontSize=10;" parent="HTWMXDrWPJUMCixaXArP-49" vertex="1">
          <mxGeometry y="60" width="80.00000000000045" height="20" as="geometry" />
        </mxCell>
        <mxCell id="HTWMXDrWPJUMCixaXArP-60" value="Adnp2" style="shape=partialRectangle;html=1;whiteSpace=wrap;connectable=0;strokeColor=inherit;overflow=hidden;fillColor=none;top=0;left=0;bottom=0;right=0;pointerEvents=1;fontFamily=Lucida Console;fontSize=10;" parent="HTWMXDrWPJUMCixaXArP-59" vertex="1">
          <mxGeometry width="40" height="20" as="geometry">
            <mxRectangle width="40" height="20" as="alternateBounds" />
          </mxGeometry>
        </mxCell>
        <mxCell id="HTWMXDrWPJUMCixaXArP-61" value="Ssrp1" style="shape=partialRectangle;html=1;whiteSpace=wrap;connectable=0;strokeColor=inherit;overflow=hidden;fillColor=none;top=0;left=0;bottom=0;right=0;pointerEvents=1;fontFamily=Lucida Console;fontSize=10;" parent="HTWMXDrWPJUMCixaXArP-59" vertex="1">
          <mxGeometry x="40" width="40" height="20" as="geometry">
            <mxRectangle width="40" height="20" as="alternateBounds" />
          </mxGeometry>
        </mxCell>
        <mxCell id="7OJHZP6-_uYFb9aTtTCm-51" style="edgeStyle=orthogonalEdgeStyle;rounded=0;orthogonalLoop=1;jettySize=auto;html=1;exitX=0.5;exitY=1;exitDx=0;exitDy=0;entryX=0.538;entryY=-0.067;entryDx=0;entryDy=0;entryPerimeter=0;" parent="1" source="7OJHZP6-_uYFb9aTtTCm-24" target="HTWMXDrWPJUMCixaXArP-103" edge="1">
          <mxGeometry relative="1" as="geometry">
            <mxPoint x="517" y="-723" as="targetPoint" />
            <Array as="points">
              <mxPoint x="715" y="-753" />
              <mxPoint x="521" y="-753" />
            </Array>
          </mxGeometry>
        </mxCell>
        <mxCell id="7OJHZP6-_uYFb9aTtTCm-24" value="ppi" style="swimlane;whiteSpace=wrap;html=1;" parent="1" vertex="1">
          <mxGeometry x="550" y="-905.21" width="330" height="123.21" as="geometry">
            <mxRectangle x="510" y="-73.21" width="140" height="30" as="alternateBounds" />
          </mxGeometry>
        </mxCell>
        <mxCell id="7OJHZP6-_uYFb9aTtTCm-25" value="&lt;h1 style=&quot;text-align: center; margin-top: 0px; line-height: 44%;&quot;&gt;&lt;font size=&quot;1&quot;&gt;&lt;span style=&quot;font-weight: 400;&quot;&gt;Matrix of protein-protein interactions. Each row of the 1st two columns give the protein pairs with interactions. The 3th column (optional) contains the (confidence) score for each interaction.&lt;/span&gt;&lt;/font&gt;&lt;/h1&gt;" style="text;html=1;whiteSpace=wrap;overflow=hidden;rounded=0;" parent="7OJHZP6-_uYFb9aTtTCm-24" vertex="1">
          <mxGeometry x="3" y="24.21" width="190" height="95.79" as="geometry" />
        </mxCell>
        <mxCell id="HTWMXDrWPJUMCixaXArP-64" value="" style="shape=table;startSize=0;container=1;collapsible=0;childLayout=tableLayout;fontFamily=Lucida Console;fontSize=10;" parent="7OJHZP6-_uYFb9aTtTCm-24" vertex="1">
          <mxGeometry x="200" y="33.209999999999994" width="122.00000000000023" height="79.5" as="geometry" />
        </mxCell>
        <mxCell id="HTWMXDrWPJUMCixaXArP-65" value="" style="shape=tableRow;horizontal=0;startSize=0;swimlaneHead=0;swimlaneBody=0;strokeColor=inherit;top=0;left=0;bottom=0;right=0;collapsible=0;dropTarget=0;fillColor=none;points=[[0,0.5],[1,0.5]];portConstraint=eastwest;fontSize=10;" parent="HTWMXDrWPJUMCixaXArP-64" vertex="1">
          <mxGeometry width="122.00000000000023" height="20" as="geometry" />
        </mxCell>
        <mxCell id="HTWMXDrWPJUMCixaXArP-66" value="protein1" style="shape=partialRectangle;html=1;whiteSpace=wrap;connectable=0;strokeColor=#666666;overflow=hidden;fillColor=#f5f5f5;top=0;left=0;bottom=0;right=0;pointerEvents=1;fontFamily=Lucida Console;fontColor=#333333;fontSize=10;" parent="HTWMXDrWPJUMCixaXArP-65" vertex="1">
          <mxGeometry width="62" height="20" as="geometry">
            <mxRectangle width="62" height="20" as="alternateBounds" />
          </mxGeometry>
        </mxCell>
        <mxCell id="HTWMXDrWPJUMCixaXArP-67" value="protein2" style="shape=partialRectangle;html=1;whiteSpace=wrap;connectable=0;strokeColor=#666666;overflow=hidden;fillColor=#f5f5f5;top=0;left=0;bottom=0;right=0;pointerEvents=1;fontFamily=Lucida Console;fontColor=#333333;fontSize=10;" parent="HTWMXDrWPJUMCixaXArP-65" vertex="1">
          <mxGeometry x="62" width="60" height="20" as="geometry">
            <mxRectangle width="60" height="20" as="alternateBounds" />
          </mxGeometry>
        </mxCell>
        <mxCell id="HTWMXDrWPJUMCixaXArP-68" value="" style="shape=tableRow;horizontal=0;startSize=0;swimlaneHead=0;swimlaneBody=0;strokeColor=inherit;top=0;left=0;bottom=0;right=0;collapsible=0;dropTarget=0;fillColor=none;points=[[0,0.5],[1,0.5]];portConstraint=eastwest;fontSize=10;" parent="HTWMXDrWPJUMCixaXArP-64" vertex="1">
          <mxGeometry y="20" width="122.00000000000023" height="20" as="geometry" />
        </mxCell>
        <mxCell id="HTWMXDrWPJUMCixaXArP-69" value="Gnai3" style="shape=partialRectangle;html=1;whiteSpace=wrap;connectable=0;strokeColor=inherit;overflow=hidden;fillColor=none;top=0;left=0;bottom=0;right=0;pointerEvents=1;fontFamily=Lucida Console;fontSize=10;" parent="HTWMXDrWPJUMCixaXArP-68" vertex="1">
          <mxGeometry width="62" height="20" as="geometry">
            <mxRectangle width="62" height="20" as="alternateBounds" />
          </mxGeometry>
        </mxCell>
        <mxCell id="HTWMXDrWPJUMCixaXArP-70" value="Gna12" style="shape=partialRectangle;html=1;whiteSpace=wrap;connectable=0;strokeColor=inherit;overflow=hidden;fillColor=none;top=0;left=0;bottom=0;right=0;pointerEvents=1;fontFamily=Lucida Console;fontSize=10;" parent="HTWMXDrWPJUMCixaXArP-68" vertex="1">
          <mxGeometry x="62" width="60" height="20" as="geometry">
            <mxRectangle width="60" height="20" as="alternateBounds" />
          </mxGeometry>
        </mxCell>
        <mxCell id="HTWMXDrWPJUMCixaXArP-71" value="" style="shape=tableRow;horizontal=0;startSize=0;swimlaneHead=0;swimlaneBody=0;strokeColor=inherit;top=0;left=0;bottom=0;right=0;collapsible=0;dropTarget=0;fillColor=none;points=[[0,0.5],[1,0.5]];portConstraint=eastwest;fontSize=10;" parent="HTWMXDrWPJUMCixaXArP-64" vertex="1">
          <mxGeometry y="40" width="122.00000000000023" height="20" as="geometry" />
        </mxCell>
        <mxCell id="HTWMXDrWPJUMCixaXArP-72" value="Gnai3" style="shape=partialRectangle;html=1;whiteSpace=wrap;connectable=0;strokeColor=inherit;overflow=hidden;fillColor=none;top=0;left=0;bottom=0;right=0;pointerEvents=1;fontFamily=Lucida Console;fontSize=10;" parent="HTWMXDrWPJUMCixaXArP-71" vertex="1">
          <mxGeometry width="62" height="20" as="geometry">
            <mxRectangle width="62" height="20" as="alternateBounds" />
          </mxGeometry>
        </mxCell>
        <mxCell id="HTWMXDrWPJUMCixaXArP-73" value="Rem1" style="shape=partialRectangle;html=1;whiteSpace=wrap;connectable=0;strokeColor=inherit;overflow=hidden;fillColor=none;top=0;left=0;bottom=0;right=0;pointerEvents=1;fontFamily=Lucida Console;fontSize=10;" parent="HTWMXDrWPJUMCixaXArP-71" vertex="1">
          <mxGeometry x="62" width="60" height="20" as="geometry">
            <mxRectangle width="60" height="20" as="alternateBounds" />
          </mxGeometry>
        </mxCell>
        <mxCell id="HTWMXDrWPJUMCixaXArP-74" value="" style="shape=tableRow;horizontal=0;startSize=0;swimlaneHead=0;swimlaneBody=0;strokeColor=inherit;top=0;left=0;bottom=0;right=0;collapsible=0;dropTarget=0;fillColor=none;points=[[0,0.5],[1,0.5]];portConstraint=eastwest;fontSize=10;" parent="HTWMXDrWPJUMCixaXArP-64" vertex="1">
          <mxGeometry y="60" width="122.00000000000023" height="20" as="geometry" />
        </mxCell>
        <mxCell id="HTWMXDrWPJUMCixaXArP-75" value="Gnai3" style="shape=partialRectangle;html=1;whiteSpace=wrap;connectable=0;strokeColor=inherit;overflow=hidden;fillColor=none;top=0;left=0;bottom=0;right=0;pointerEvents=1;fontFamily=Lucida Console;fontSize=10;" parent="HTWMXDrWPJUMCixaXArP-74" vertex="1">
          <mxGeometry width="62" height="20" as="geometry">
            <mxRectangle width="62" height="20" as="alternateBounds" />
          </mxGeometry>
        </mxCell>
        <mxCell id="HTWMXDrWPJUMCixaXArP-76" value="Rnd2" style="shape=partialRectangle;html=1;whiteSpace=wrap;connectable=0;strokeColor=inherit;overflow=hidden;fillColor=none;top=0;left=0;bottom=0;right=0;pointerEvents=1;fontFamily=Lucida Console;fontSize=10;" parent="HTWMXDrWPJUMCixaXArP-74" vertex="1">
          <mxGeometry x="62" width="60" height="20" as="geometry">
            <mxRectangle width="60" height="20" as="alternateBounds" />
          </mxGeometry>
        </mxCell>
        <mxCell id="7OJHZP6-_uYFb9aTtTCm-52" style="edgeStyle=orthogonalEdgeStyle;rounded=0;orthogonalLoop=1;jettySize=auto;html=1;exitX=0.5;exitY=1;exitDx=0;exitDy=0;entryX=0.517;entryY=0;entryDx=0;entryDy=0;entryPerimeter=0;" parent="1" source="7OJHZP6-_uYFb9aTtTCm-33" target="HTWMXDrWPJUMCixaXArP-107" edge="1">
          <mxGeometry relative="1" as="geometry">
            <mxPoint x="476.99999999999955" y="-396.00000000000045" as="sourcePoint" />
            <mxPoint x="502" y="-377" as="targetPoint" />
          </mxGeometry>
        </mxCell>
        <mxCell id="7OJHZP6-_uYFb9aTtTCm-33" value="pgn" style="swimlane;whiteSpace=wrap;html=1;" parent="1" vertex="1">
          <mxGeometry x="377" y="-617" width="250" height="170" as="geometry">
            <mxRectangle x="253" y="-100" width="140" height="30" as="alternateBounds" />
          </mxGeometry>
        </mxCell>
        <mxCell id="7OJHZP6-_uYFb9aTtTCm-34" value="&lt;h1 style=&quot;text-align: center; margin-top: 0px; line-height: 60%;&quot;&gt;&lt;font size=&quot;1&quot;&gt;&lt;span style=&quot;font-weight: 400;&quot;&gt;Adjacency matrix of PGN. The elements of the matrix are either 0 or 1. The rows and columns correspond to proteins and genes, respectively, which follow the order given in GList. If the (i,j)-th element of the matrix is 1, then there exists a regulatory edge from protein i to gene j in the PGN, i.e. protein i is regulating the expression of gene j.&lt;/span&gt;&lt;/font&gt;&lt;/h1&gt;" style="text;html=1;whiteSpace=wrap;overflow=hidden;rounded=0;" parent="7OJHZP6-_uYFb9aTtTCm-33" vertex="1">
          <mxGeometry y="22.75" width="250" height="147.25" as="geometry" />
        </mxCell>
        <mxCell id="7OJHZP6-_uYFb9aTtTCm-36" value="lfc" style="swimlane;whiteSpace=wrap;html=1;" parent="1" vertex="1">
          <mxGeometry x="33" y="-617" width="330" height="160" as="geometry">
            <mxRectangle x="253" y="-100" width="140" height="30" as="alternateBounds" />
          </mxGeometry>
        </mxCell>
        <mxCell id="HTWMXDrWPJUMCixaXArP-82" value="" style="shape=table;startSize=0;container=1;collapsible=0;childLayout=tableLayout;fontFamily=Lucida Console;fontSize=8;" parent="7OJHZP6-_uYFb9aTtTCm-36" vertex="1">
          <mxGeometry x="10" y="69" width="310" height="80" as="geometry" />
        </mxCell>
        <mxCell id="HTWMXDrWPJUMCixaXArP-83" value="" style="shape=tableRow;horizontal=0;startSize=0;swimlaneHead=0;swimlaneBody=0;strokeColor=inherit;top=0;left=0;bottom=0;right=0;collapsible=0;dropTarget=0;fillColor=none;points=[[0,0.5],[1,0.5]];portConstraint=eastwest;" parent="HTWMXDrWPJUMCixaXArP-82" vertex="1">
          <mxGeometry width="310" height="20" as="geometry" />
        </mxCell>
        <mxCell id="HTWMXDrWPJUMCixaXArP-84" value="" style="shape=partialRectangle;html=1;whiteSpace=wrap;connectable=0;strokeColor=#666666;overflow=hidden;fillColor=#f5f5f5;top=0;left=0;bottom=0;right=0;pointerEvents=1;fontColor=#333333;" parent="HTWMXDrWPJUMCixaXArP-83" vertex="1">
          <mxGeometry width="30" height="20" as="geometry">
            <mxRectangle width="30" height="20" as="alternateBounds" />
          </mxGeometry>
        </mxCell>
        <mxCell id="HTWMXDrWPJUMCixaXArP-85" value="&lt;div tabindex=&quot;0&quot; aria-label=&quot;Console Output&quot; role=&quot;document&quot; class=&quot;GNTYACMBA4B&quot; id=&quot;rstudio_console_output&quot; style=&quot;outline: none; border: none; word-break: break-all; margin-top: 0px; margin-bottom: 0px; user-select: text; line-height: 1.2; text-align: -webkit-left; font-size: 10px; text-wrap-mode: wrap !important;&quot;&gt;&lt;span style=&quot;outline: none; font-size: 10px;&quot; role=&quot;document&quot; class=&quot;GNTYACMBB4B&quot; tabindex=&quot;-1&quot;&gt;5-iodotubercidin&lt;/span&gt;&lt;/div&gt;" style="shape=partialRectangle;html=1;whiteSpace=wrap;connectable=0;strokeColor=#666666;overflow=hidden;fillColor=#f5f5f5;top=0;left=0;bottom=0;right=0;pointerEvents=1;labelBackgroundColor=none;fontColor=#333333;fontFamily=Lucida Console;fontSize=10;" parent="HTWMXDrWPJUMCixaXArP-83" vertex="1">
          <mxGeometry x="30" width="100" height="20" as="geometry">
            <mxRectangle width="100" height="20" as="alternateBounds" />
          </mxGeometry>
        </mxCell>
        <mxCell id="HTWMXDrWPJUMCixaXArP-86" value="acea" style="shape=partialRectangle;html=1;whiteSpace=wrap;connectable=0;strokeColor=#666666;overflow=hidden;fillColor=#f5f5f5;top=0;left=0;bottom=0;right=0;pointerEvents=1;fontFamily=Lucida Console;fontColor=#333333;fontSize=10;" parent="HTWMXDrWPJUMCixaXArP-83" vertex="1">
          <mxGeometry x="130" width="90" height="20" as="geometry">
            <mxRectangle width="90" height="20" as="alternateBounds" />
          </mxGeometry>
        </mxCell>
        <mxCell id="HTWMXDrWPJUMCixaXArP-87" value="&lt;div tabindex=&quot;0&quot; aria-label=&quot;Console Output&quot; role=&quot;document&quot; class=&quot;GNTYACMBA4B&quot; id=&quot;rstudio_console_output&quot; style=&quot;outline: none; border: none; word-break: break-all; margin-top: 0px; margin-bottom: 0px; user-select: text; line-height: 1.2; text-align: -webkit-left; font-size: 10px; text-wrap-mode: wrap !important;&quot;&gt;&lt;span style=&quot;outline: none; font-size: 10px;&quot; role=&quot;document&quot; class=&quot;GNTYACMBB4B&quot; tabindex=&quot;-1&quot;&gt;&lt;font style=&quot;font-size: 10px;&quot;&gt;acetazolamide&lt;/font&gt;&lt;/span&gt;&lt;/div&gt;" style="shape=partialRectangle;html=1;whiteSpace=wrap;connectable=0;strokeColor=#666666;overflow=hidden;fillColor=#f5f5f5;top=0;left=0;bottom=0;right=0;pointerEvents=1;labelBackgroundColor=none;fontColor=#333333;fontFamily=Lucida Console;fontSize=10;" parent="HTWMXDrWPJUMCixaXArP-83" vertex="1">
          <mxGeometry x="220" width="90" height="20" as="geometry">
            <mxRectangle width="90" height="20" as="alternateBounds" />
          </mxGeometry>
        </mxCell>
        <mxCell id="HTWMXDrWPJUMCixaXArP-88" value="" style="shape=tableRow;horizontal=0;startSize=0;swimlaneHead=0;swimlaneBody=0;strokeColor=inherit;top=0;left=0;bottom=0;right=0;collapsible=0;dropTarget=0;fillColor=none;points=[[0,0.5],[1,0.5]];portConstraint=eastwest;" parent="HTWMXDrWPJUMCixaXArP-82" vertex="1">
          <mxGeometry y="20" width="310" height="20" as="geometry" />
        </mxCell>
        <mxCell id="HTWMXDrWPJUMCixaXArP-89" value="NAT2" style="shape=partialRectangle;html=1;whiteSpace=wrap;connectable=0;strokeColor=#666666;overflow=hidden;fillColor=#f5f5f5;top=0;left=0;bottom=0;right=0;pointerEvents=1;fontFamily=Lucida Console;fontColor=#333333;fontSize=10;" parent="HTWMXDrWPJUMCixaXArP-88" vertex="1">
          <mxGeometry width="30" height="20" as="geometry">
            <mxRectangle width="30" height="20" as="alternateBounds" />
          </mxGeometry>
        </mxCell>
        <mxCell id="HTWMXDrWPJUMCixaXArP-90" value="&lt;div tabindex=&quot;0&quot; aria-label=&quot;Console Output&quot; role=&quot;document&quot; class=&quot;GNTYACMBA4B&quot; id=&quot;rstudio_console_output&quot; style=&quot;outline: none; border: none; word-break: break-all; margin-top: 0px; margin-bottom: 0px; user-select: text; line-height: 1.2; text-align: -webkit-left; font-size: 10px; text-wrap-mode: wrap !important;&quot;&gt;&lt;span style=&quot;outline: none; font-size: 10px;&quot; role=&quot;document&quot; class=&quot;GNTYACMBB4B&quot; tabindex=&quot;-1&quot;&gt;0.5009939075&lt;/span&gt;&lt;/div&gt;" style="shape=partialRectangle;html=1;whiteSpace=wrap;connectable=0;strokeColor=inherit;overflow=hidden;fillColor=none;top=0;left=0;bottom=0;right=0;pointerEvents=1;labelBackgroundColor=none;fontColor=#050505;fontFamily=Lucida Console;fontSize=10;" parent="HTWMXDrWPJUMCixaXArP-88" vertex="1">
          <mxGeometry x="30" width="100" height="20" as="geometry">
            <mxRectangle width="100" height="20" as="alternateBounds" />
          </mxGeometry>
        </mxCell>
        <mxCell id="HTWMXDrWPJUMCixaXArP-91" value="&lt;div tabindex=&quot;0&quot; aria-label=&quot;Console Output&quot; role=&quot;document&quot; class=&quot;GNTYACMBA4B&quot; id=&quot;rstudio_console_output&quot; style=&quot;outline: none; border: none; word-break: break-all; margin-top: 0px; margin-bottom: 0px; user-select: text; line-height: 1.2; text-align: -webkit-left; font-size: 10px; text-wrap-mode: wrap !important;&quot;&gt;&lt;span style=&quot;outline: none; font-size: 10px;&quot; role=&quot;document&quot; class=&quot;GNTYACMBB4B&quot; tabindex=&quot;-1&quot;&gt;2.787000e-01&lt;/span&gt;&lt;/div&gt;" style="shape=partialRectangle;html=1;whiteSpace=wrap;connectable=0;strokeColor=inherit;overflow=hidden;fillColor=none;top=0;left=0;bottom=0;right=0;pointerEvents=1;labelBackgroundColor=none;fontColor=#050505;fontFamily=Lucida Console;fontSize=10;" parent="HTWMXDrWPJUMCixaXArP-88" vertex="1">
          <mxGeometry x="130" width="90" height="20" as="geometry">
            <mxRectangle width="90" height="20" as="alternateBounds" />
          </mxGeometry>
        </mxCell>
        <mxCell id="HTWMXDrWPJUMCixaXArP-92" value="&lt;div tabindex=&quot;0&quot; aria-label=&quot;Console Output&quot; role=&quot;document&quot; class=&quot;GNTYACMBA4B&quot; id=&quot;rstudio_console_output&quot; style=&quot;outline: none; border: none; word-break: break-all; margin-top: 0px; margin-bottom: 0px; user-select: text; line-height: 1.2; text-align: -webkit-left; font-size: 10px; text-wrap-mode: wrap !important;&quot;&gt;&lt;span style=&quot;outline: none; font-size: 10px;&quot; role=&quot;document&quot; class=&quot;GNTYACMBB4B&quot; tabindex=&quot;-1&quot;&gt;-9.912610e-02&lt;/span&gt;&lt;/div&gt;" style="shape=partialRectangle;html=1;whiteSpace=wrap;connectable=0;strokeColor=inherit;overflow=hidden;fillColor=none;top=0;left=0;bottom=0;right=0;pointerEvents=1;labelBackgroundColor=none;fontColor=#050505;fontFamily=Lucida Console;fontSize=10;" parent="HTWMXDrWPJUMCixaXArP-88" vertex="1">
          <mxGeometry x="220" width="90" height="20" as="geometry">
            <mxRectangle width="90" height="20" as="alternateBounds" />
          </mxGeometry>
        </mxCell>
        <mxCell id="HTWMXDrWPJUMCixaXArP-93" value="" style="shape=tableRow;horizontal=0;startSize=0;swimlaneHead=0;swimlaneBody=0;strokeColor=inherit;top=0;left=0;bottom=0;right=0;collapsible=0;dropTarget=0;fillColor=none;points=[[0,0.5],[1,0.5]];portConstraint=eastwest;" parent="HTWMXDrWPJUMCixaXArP-82" vertex="1">
          <mxGeometry y="40" width="310" height="20" as="geometry" />
        </mxCell>
        <mxCell id="HTWMXDrWPJUMCixaXArP-94" value="ADA" style="shape=partialRectangle;html=1;whiteSpace=wrap;connectable=0;strokeColor=#666666;overflow=hidden;fillColor=#f5f5f5;top=0;left=0;bottom=0;right=0;pointerEvents=1;fontFamily=Lucida Console;fontColor=#333333;fontSize=10;" parent="HTWMXDrWPJUMCixaXArP-93" vertex="1">
          <mxGeometry width="30" height="20" as="geometry">
            <mxRectangle width="30" height="20" as="alternateBounds" />
          </mxGeometry>
        </mxCell>
        <mxCell id="HTWMXDrWPJUMCixaXArP-95" value="&lt;div tabindex=&quot;0&quot; aria-label=&quot;Console Output&quot; role=&quot;document&quot; class=&quot;GNTYACMBA4B&quot; id=&quot;rstudio_console_output&quot; style=&quot;outline: none; border: none; word-break: break-all; margin-top: 0px; margin-bottom: 0px; user-select: text; line-height: 1.2; text-align: -webkit-left; font-size: 10px; text-wrap-mode: wrap !important;&quot;&gt;&lt;span style=&quot;outline: none; font-size: 10px;&quot; role=&quot;document&quot; class=&quot;GNTYACMBB4B&quot; tabindex=&quot;-1&quot;&gt;0.5942000151&lt;/span&gt;&lt;/div&gt;" style="shape=partialRectangle;html=1;whiteSpace=wrap;connectable=0;strokeColor=inherit;overflow=hidden;fillColor=none;top=0;left=0;bottom=0;right=0;pointerEvents=1;labelBackgroundColor=none;fontColor=#050505;fontFamily=Lucida Console;fontSize=10;" parent="HTWMXDrWPJUMCixaXArP-93" vertex="1">
          <mxGeometry x="30" width="100" height="20" as="geometry">
            <mxRectangle width="100" height="20" as="alternateBounds" />
          </mxGeometry>
        </mxCell>
        <mxCell id="HTWMXDrWPJUMCixaXArP-96" value="&lt;div tabindex=&quot;0&quot; aria-label=&quot;Console Output&quot; role=&quot;document&quot; class=&quot;GNTYACMBA4B&quot; id=&quot;rstudio_console_output&quot; style=&quot;outline: none; border: none; word-break: break-all; margin-top: 0px; margin-bottom: 0px; user-select: text; line-height: 1.2; text-align: -webkit-left; font-size: 10px; text-wrap-mode: wrap !important;&quot;&gt;&lt;span style=&quot;outline: none; font-size: 10px;&quot; role=&quot;document&quot; class=&quot;GNTYACMBB4B&quot; tabindex=&quot;-1&quot;&gt;2.445500e-01&lt;/span&gt;&lt;/div&gt;" style="shape=partialRectangle;html=1;whiteSpace=wrap;connectable=0;strokeColor=inherit;overflow=hidden;fillColor=none;top=0;left=0;bottom=0;right=0;pointerEvents=1;labelBackgroundColor=none;fontColor=#050505;fontFamily=Lucida Console;fontSize=10;" parent="HTWMXDrWPJUMCixaXArP-93" vertex="1">
          <mxGeometry x="130" width="90" height="20" as="geometry">
            <mxRectangle width="90" height="20" as="alternateBounds" />
          </mxGeometry>
        </mxCell>
        <mxCell id="HTWMXDrWPJUMCixaXArP-97" value="&lt;div tabindex=&quot;0&quot; aria-label=&quot;Console Output&quot; role=&quot;document&quot; class=&quot;GNTYACMBA4B&quot; id=&quot;rstudio_console_output&quot; style=&quot;outline: none; border: none; word-break: break-all; margin-top: 0px; margin-bottom: 0px; user-select: text; line-height: 1.2; text-align: -webkit-left; font-size: 10px; text-wrap-mode: wrap !important;&quot;&gt;&lt;span style=&quot;outline: none; font-size: 10px;&quot; role=&quot;document&quot; class=&quot;GNTYACMBB4B&quot; tabindex=&quot;-1&quot;&gt;-8.827491e-02&lt;/span&gt;&lt;/div&gt;" style="shape=partialRectangle;html=1;whiteSpace=wrap;connectable=0;strokeColor=inherit;overflow=hidden;fillColor=none;top=0;left=0;bottom=0;right=0;pointerEvents=1;labelBackgroundColor=none;fontColor=#050505;fontFamily=Lucida Console;fontSize=10;" parent="HTWMXDrWPJUMCixaXArP-93" vertex="1">
          <mxGeometry x="220" width="90" height="20" as="geometry">
            <mxRectangle width="90" height="20" as="alternateBounds" />
          </mxGeometry>
        </mxCell>
        <mxCell id="HTWMXDrWPJUMCixaXArP-98" value="" style="shape=tableRow;horizontal=0;startSize=0;swimlaneHead=0;swimlaneBody=0;strokeColor=inherit;top=0;left=0;bottom=0;right=0;collapsible=0;dropTarget=0;fillColor=none;points=[[0,0.5],[1,0.5]];portConstraint=eastwest;" parent="HTWMXDrWPJUMCixaXArP-82" vertex="1">
          <mxGeometry y="60" width="310" height="20" as="geometry" />
        </mxCell>
        <mxCell id="HTWMXDrWPJUMCixaXArP-99" value="CDH2" style="shape=partialRectangle;html=1;whiteSpace=wrap;connectable=0;strokeColor=#666666;overflow=hidden;fillColor=#f5f5f5;top=0;left=0;bottom=0;right=0;pointerEvents=1;fontFamily=Lucida Console;fontColor=#333333;fontSize=10;" parent="HTWMXDrWPJUMCixaXArP-98" vertex="1">
          <mxGeometry width="30" height="20" as="geometry">
            <mxRectangle width="30" height="20" as="alternateBounds" />
          </mxGeometry>
        </mxCell>
        <mxCell id="HTWMXDrWPJUMCixaXArP-100" value="&lt;div tabindex=&quot;0&quot; aria-label=&quot;Console Output&quot; role=&quot;document&quot; class=&quot;GNTYACMBA4B&quot; id=&quot;rstudio_console_output&quot; style=&quot;outline: none; border: none; word-break: break-all; margin-top: 0px; margin-bottom: 0px; user-select: text; line-height: 1.2; text-align: -webkit-left; font-size: 10px; text-wrap-mode: wrap !important;&quot;&gt;&lt;span style=&quot;outline: none; font-size: 10px;&quot; role=&quot;document&quot; class=&quot;GNTYACMBB4B&quot; tabindex=&quot;-1&quot;&gt;-0.1844382435&lt;/span&gt;&lt;/div&gt;" style="shape=partialRectangle;html=1;whiteSpace=wrap;connectable=0;strokeColor=inherit;overflow=hidden;fillColor=none;top=0;left=0;bottom=0;right=0;pointerEvents=1;labelBackgroundColor=none;fontColor=#050505;fontFamily=Lucida Console;fontSize=10;" parent="HTWMXDrWPJUMCixaXArP-98" vertex="1">
          <mxGeometry x="30" width="100" height="20" as="geometry">
            <mxRectangle width="100" height="20" as="alternateBounds" />
          </mxGeometry>
        </mxCell>
        <mxCell id="HTWMXDrWPJUMCixaXArP-101" value="&lt;div tabindex=&quot;0&quot; aria-label=&quot;Console Output&quot; role=&quot;document&quot; class=&quot;GNTYACMBA4B&quot; id=&quot;rstudio_console_output&quot; style=&quot;outline: none; border: none; word-break: break-all; margin-top: 0px; margin-bottom: 0px; user-select: text; line-height: 1.2; text-align: -webkit-left; font-size: 10px; text-wrap-mode: wrap !important;&quot;&gt;&lt;span style=&quot;outline: none; font-size: 10px;&quot; role=&quot;document&quot; class=&quot;GNTYACMBB4B&quot; tabindex=&quot;-1&quot;&gt;-3.408250e-01&lt;/span&gt;&lt;/div&gt;" style="shape=partialRectangle;html=1;whiteSpace=wrap;connectable=0;strokeColor=inherit;overflow=hidden;fillColor=none;top=0;left=0;bottom=0;right=0;pointerEvents=1;labelBackgroundColor=none;fontColor=#050505;fontFamily=Lucida Console;fontSize=10;" parent="HTWMXDrWPJUMCixaXArP-98" vertex="1">
          <mxGeometry x="130" width="90" height="20" as="geometry">
            <mxRectangle width="90" height="20" as="alternateBounds" />
          </mxGeometry>
        </mxCell>
        <mxCell id="HTWMXDrWPJUMCixaXArP-102" value="&lt;div tabindex=&quot;0&quot; aria-label=&quot;Console Output&quot; role=&quot;document&quot; class=&quot;GNTYACMBA4B&quot; id=&quot;rstudio_console_output&quot; style=&quot;outline: none; border: none; word-break: break-all; margin-top: 0px; margin-bottom: 0px; user-select: text; line-height: 1.2; text-align: -webkit-left; font-size: 10px; text-wrap-mode: wrap !important;&quot;&gt;&lt;span style=&quot;outline: none; font-size: 10px;&quot; role=&quot;document&quot; class=&quot;GNTYACMBB4B&quot; tabindex=&quot;-1&quot;&gt;7.119265e-02&lt;/span&gt;&lt;/div&gt;" style="shape=partialRectangle;html=1;whiteSpace=wrap;connectable=0;strokeColor=inherit;overflow=hidden;fillColor=none;top=0;left=0;bottom=0;right=0;pointerEvents=1;labelBackgroundColor=none;fontColor=#050505;fontFamily=Lucida Console;fontSize=10;" parent="HTWMXDrWPJUMCixaXArP-98" vertex="1">
          <mxGeometry x="220" width="90" height="20" as="geometry">
            <mxRectangle width="90" height="20" as="alternateBounds" />
          </mxGeometry>
        </mxCell>
        <mxCell id="bNLNiKnNglu3-eJ_Uafm-14" value="&lt;h1 style=&quot;margin-top: 0px; line-height: 44%;&quot;&gt;&lt;span style=&quot;font-weight: 400; font-size: x-small; background-color: initial;&quot;&gt;Numeric matrix or data.frame of log2FC data. Each row represents a gene and each column represents a sample&lt;/span&gt;&lt;/h1&gt;" style="text;html=1;whiteSpace=wrap;overflow=hidden;rounded=0;align=center;spacing=0;" parent="7OJHZP6-_uYFb9aTtTCm-36" vertex="1">
          <mxGeometry x="16" y="24" width="301" height="40" as="geometry" />
        </mxCell>
        <mxCell id="7OJHZP6-_uYFb9aTtTCm-38" value="grplist" style="swimlane;whiteSpace=wrap;html=1;" parent="1" vertex="1">
          <mxGeometry x="647" y="-617" width="233" height="170" as="geometry">
            <mxRectangle x="253" y="-100" width="140" height="30" as="alternateBounds" />
          </mxGeometry>
        </mxCell>
        <mxCell id="7OJHZP6-_uYFb9aTtTCm-39" value="&lt;h1 style=&quot;text-align: center; margin-top: 0px; line-height: 60%;&quot;&gt;&lt;font size=&quot;1&quot;&gt;&lt;span style=&quot;font-weight: 400;&quot;&gt;Group index for protein scoring. A vector defines the samples for which the protein scores are computed. The length of this vector should be the same as the number of samples in the log2FC matrix. The group indices should be a consecutive integer starting from 1 to the number of groups.&lt;/span&gt;&lt;/font&gt;&lt;/h1&gt;" style="text;html=1;whiteSpace=wrap;overflow=hidden;rounded=0;" parent="7OJHZP6-_uYFb9aTtTCm-38" vertex="1">
          <mxGeometry x="1" y="23" width="230" height="132.12" as="geometry" />
        </mxCell>
        <mxCell id="7OJHZP6-_uYFb9aTtTCm-42" style="edgeStyle=orthogonalEdgeStyle;rounded=0;orthogonalLoop=1;jettySize=auto;html=1;entryX=0.602;entryY=-0.016;entryDx=0;entryDy=0;entryPerimeter=0;exitX=0.5;exitY=1;exitDx=0;exitDy=0;" parent="1" source="7OJHZP6-_uYFb9aTtTCm-38" target="HTWMXDrWPJUMCixaXArP-107" edge="1">
          <mxGeometry relative="1" as="geometry">
            <mxPoint x="697" y="-403" as="sourcePoint" />
            <Array as="points">
              <mxPoint x="763" y="-407" />
              <mxPoint x="542" y="-407" />
            </Array>
            <mxPoint x="557" y="-373" as="targetPoint" />
          </mxGeometry>
        </mxCell>
        <mxCell id="7OJHZP6-_uYFb9aTtTCm-48" style="edgeStyle=orthogonalEdgeStyle;rounded=0;orthogonalLoop=1;jettySize=auto;html=1;entryX=0.461;entryY=0.037;entryDx=0;entryDy=0;entryPerimeter=0;" parent="1" source="7OJHZP6-_uYFb9aTtTCm-20" target="HTWMXDrWPJUMCixaXArP-103" edge="1">
          <mxGeometry relative="1" as="geometry">
            <mxPoint x="482" y="-725" as="targetPoint" />
            <Array as="points">
              <mxPoint x="405" y="-757" />
              <mxPoint x="482" y="-757" />
            </Array>
          </mxGeometry>
        </mxCell>
        <mxCell id="HTWMXDrWPJUMCixaXArP-6" value="tobject" style="swimlane;whiteSpace=wrap;html=1;fontColor=#000000;strokeColor=#000000;" parent="1" vertex="1">
          <mxGeometry x="795" y="-350" width="133" height="137" as="geometry">
            <mxRectangle x="253" y="-100" width="140" height="30" as="alternateBounds" />
          </mxGeometry>
        </mxCell>
        <mxCell id="HTWMXDrWPJUMCixaXArP-7" value="&lt;h1 style=&quot;text-align: center; margin-top: 0px; line-height: 60%;&quot;&gt;&lt;font size=&quot;1&quot;&gt;&lt;span style=&quot;font-weight: 400;&quot;&gt;The table of sample descriptions including time points (if in time-series) and group indices (same index for the same drug)&lt;/span&gt;&lt;/font&gt;&lt;/h1&gt;" style="text;html=1;whiteSpace=wrap;overflow=hidden;rounded=0;fontColor=#000000;strokeColor=none;" parent="HTWMXDrWPJUMCixaXArP-6" vertex="1">
          <mxGeometry x="1.5" y="26.5" width="130" height="107" as="geometry" />
        </mxCell>
        <mxCell id="HTWMXDrWPJUMCixaXArP-10" style="edgeStyle=orthogonalEdgeStyle;rounded=0;orthogonalLoop=1;jettySize=auto;html=1;entryX=0.75;entryY=1;entryDx=0;entryDy=0;fontColor=#000000;strokeColor=#000000;exitX=0.25;exitY=0;exitDx=0;exitDy=0;" parent="1" source="HTWMXDrWPJUMCixaXArP-6" target="7OJHZP6-_uYFb9aTtTCm-38" edge="1">
          <mxGeometry relative="1" as="geometry">
            <mxPoint x="860" y="-390" as="sourcePoint" />
            <mxPoint x="830" y="-419.96325000000024" as="targetPoint" />
            <Array as="points">
              <mxPoint x="833" y="-447" />
            </Array>
          </mxGeometry>
        </mxCell>
        <mxCell id="HTWMXDrWPJUMCixaXArP-23" value="Pscore" style="swimlane;whiteSpace=wrap;html=1;" parent="1" vertex="1">
          <mxGeometry x="247" y="-274" width="202" height="138" as="geometry">
            <mxRectangle x="253" y="-100" width="140" height="30" as="alternateBounds" />
          </mxGeometry>
        </mxCell>
        <mxCell id="HTWMXDrWPJUMCixaXArP-24" value="&lt;h1 style=&quot;text-align: center; margin-top: 0px; line-height: 60%;&quot;&gt;&lt;span style=&quot;font-weight: 400; text-align: left;&quot;&gt;&lt;font style=&quot;font-size: 10px;&quot;&gt;The matrix of protein scores. Each row corresponds to a gene following the same order as the one in the log2FC data, while each column corresponds to a group of samples as defined in the grplist&lt;/font&gt;&lt;/span&gt;&lt;/h1&gt;" style="text;html=1;whiteSpace=wrap;overflow=hidden;rounded=0;" parent="HTWMXDrWPJUMCixaXArP-23" vertex="1">
          <mxGeometry x="-1" y="23" width="200" height="117" as="geometry" />
        </mxCell>
        <mxCell id="HTWMXDrWPJUMCixaXArP-25" value="A" style="swimlane;whiteSpace=wrap;html=1;" parent="1" vertex="1">
          <mxGeometry x="466" y="-274" width="280" height="138" as="geometry">
            <mxRectangle x="253" y="-100" width="140" height="30" as="alternateBounds" />
          </mxGeometry>
        </mxCell>
        <mxCell id="HTWMXDrWPJUMCixaXArP-26" value="&lt;h1 style=&quot;text-align: center; margin-top: 0px; line-height: 60%;&quot;&gt;&lt;span style=&quot;font-weight: 400; text-align: left;&quot;&gt;&lt;font style=&quot;font-size: 10px;&quot;&gt;The matrix of edge weights of the PGN. The (i,j)-th element of the matrix corresponds to the weight of the regulatory edge from protein j to gene i in the PGN, i.e.the regulation of the expression of gene i&amp;nbsp; by protein j. The rwos and columns of the matrix correspond to genes and proteins in the PGN.&lt;/font&gt;&lt;/span&gt;&lt;/h1&gt;" style="text;html=1;whiteSpace=wrap;overflow=hidden;rounded=0;" parent="HTWMXDrWPJUMCixaXArP-25" vertex="1">
          <mxGeometry x="3" y="25" width="270" height="117" as="geometry" />
        </mxCell>
        <mxCell id="HTWMXDrWPJUMCixaXArP-27" value="" style="strokeWidth=1;html=1;shape=mxgraph.flowchart.annotation_2;align=left;labelPosition=right;pointerEvents=1;rotation=90;" parent="1" vertex="1">
          <mxGeometry x="476.1300000000001" y="-437" width="59.75" height="266.62" as="geometry" />
        </mxCell>
        <mxCell id="HTWMXDrWPJUMCixaXArP-103" value="generatePGN(glist, tftg, ppi, tftg_thre=NULL, ptf_thre=NULL, ppi_thre=NULL)" style="swimlane;fontStyle=1;align=center;verticalAlign=middle;childLayout=stackLayout;horizontal=1;startSize=30;horizontalStack=0;resizeParent=0;resizeLast=1;container=0;collapsible=0;rounded=1;arcSize=30;strokeColor=#d6b656;fillColor=#fff2cc;swimlaneFillColor=default;dropTarget=0;fontFamily=Lucida Console;fontSize=10;gradientColor=none;" parent="1" vertex="1">
          <mxGeometry x="247" y="-719.25" width="510" height="60" as="geometry" />
        </mxCell>
        <mxCell id="HTWMXDrWPJUMCixaXArP-104" value="&lt;span style=&quot;text-align: left;&quot;&gt;&lt;font style=&quot;font-size: 10px;&quot;&gt;Generates protein-gene regulatory network from gene regulatory network and protein-protein interaction network&lt;/font&gt;&lt;/span&gt;" style="text;html=1;strokeColor=none;fillColor=none;align=center;verticalAlign=middle;spacingLeft=4;spacingRight=4;whiteSpace=wrap;overflow=hidden;rotatable=0;fontColor=#000000;" parent="HTWMXDrWPJUMCixaXArP-103" vertex="1">
          <mxGeometry y="30" width="510" height="30" as="geometry" />
        </mxCell>
        <mxCell id="HTWMXDrWPJUMCixaXArP-107" value="protina(lfc, slope=NULL, pgn, grplist, kfold=10, par=FALSE, numCores=4)" style="swimlane;fontStyle=1;align=center;verticalAlign=middle;childLayout=stackLayout;horizontal=1;startSize=30;horizontalStack=0;resizeParent=0;resizeLast=1;container=0;collapsible=0;rounded=1;arcSize=30;strokeColor=#d6b656;fillColor=#fff2cc;swimlaneFillColor=default;dropTarget=0;fontFamily=Lucida Console;fontSize=10;" parent="1" vertex="1">
          <mxGeometry x="259" y="-381" width="471" height="60" as="geometry" />
        </mxCell>
        <mxCell id="HTWMXDrWPJUMCixaXArP-108" value="&lt;span style=&quot;text-align: left;&quot;&gt;&lt;font style=&quot;font-size: 10px;&quot;&gt;Generates protein scores for each drug treatment, returning a list of two matrices:&lt;/font&gt;&lt;/span&gt;" style="text;html=1;strokeColor=none;fillColor=none;align=center;verticalAlign=middle;spacingLeft=4;spacingRight=4;whiteSpace=wrap;overflow=hidden;rotatable=0;fontColor=#000000;" parent="HTWMXDrWPJUMCixaXArP-107" vertex="1">
          <mxGeometry y="30" width="471" height="30" as="geometry" />
        </mxCell>
        <mxCell id="HTWMXDrWPJUMCixaXArP-113" value="" style="verticalLabelPosition=bottom;verticalAlign=top;html=1;shape=mxgraph.basic.layered_rect;dx=10;outlineConnect=0;whiteSpace=wrap;fillColor=#ffe6cc;strokeColor=#d79b00;" parent="1" vertex="1">
          <mxGeometry x="649" y="-1007" width="132" height="70" as="geometry" />
        </mxCell>
        <mxCell id="HTWMXDrWPJUMCixaXArP-114" value="Network" style="text;whiteSpace=wrap;fontSize=11;" parent="1" vertex="1">
          <mxGeometry x="656" y="-986" width="115" height="40" as="geometry" />
        </mxCell>
        <mxCell id="HTWMXDrWPJUMCixaXArP-115" value="REFERENCE" style="text;whiteSpace=wrap;fontStyle=1" parent="1" vertex="1">
          <mxGeometry x="672" y="-1006" width="74" height="20" as="geometry" />
        </mxCell>
        <mxCell id="HTWMXDrWPJUMCixaXArP-117" style="edgeStyle=orthogonalEdgeStyle;rounded=0;orthogonalLoop=1;jettySize=auto;html=1;entryX=0.796;entryY=-0.011;entryDx=0;entryDy=0;entryPerimeter=0;" parent="1" source="HTWMXDrWPJUMCixaXArP-116" edge="1">
          <mxGeometry relative="1" as="geometry">
            <mxPoint x="405.4200000000001" y="-905.2139800000002" as="targetPoint" />
          </mxGeometry>
        </mxCell>
        <mxCell id="HTWMXDrWPJUMCixaXArP-116" value="" style="shape=image;verticalLabelPosition=bottom;labelBackgroundColor=default;verticalAlign=top;aspect=fixed;imageAspect=0;image=https://saezlab.org/wp-content/uploads/2024/01/collectri_logo-900px.png;" parent="1" vertex="1">
          <mxGeometry x="372.5" y="-1015.51" width="65" height="74.82" as="geometry" />
        </mxCell>
        <mxCell id="HTWMXDrWPJUMCixaXArP-118" style="edgeStyle=orthogonalEdgeStyle;rounded=0;orthogonalLoop=1;jettySize=auto;html=1;entryX=0.5;entryY=0;entryDx=0;entryDy=0;" parent="1" source="HTWMXDrWPJUMCixaXArP-113" target="7OJHZP6-_uYFb9aTtTCm-24" edge="1">
          <mxGeometry relative="1" as="geometry" />
        </mxCell>
        <mxCell id="bNLNiKnNglu3-eJ_Uafm-4" value="tobject$group" style="text;whiteSpace=wrap;fontFamily=Lucida Console;fontSize=10;fontColor=#000000;strokeColor=none;" parent="1" vertex="1">
          <mxGeometry x="833" y="-383" width="88" height="23.5" as="geometry" />
        </mxCell>
        <mxCell id="HTWMXDrWPJUMCixaXArP-17" value="" style="verticalLabelPosition=bottom;verticalAlign=top;html=1;shape=mxgraph.basic.layered_rect;dx=10;outlineConnect=0;whiteSpace=wrap;fillColor=#ffe6cc;strokeColor=#d79b00;" parent="1" vertex="1">
          <mxGeometry x="30" y="-719.25" width="150" height="73" as="geometry" />
        </mxCell>
        <mxCell id="HTWMXDrWPJUMCixaXArP-20" style="edgeStyle=orthogonalEdgeStyle;rounded=0;orthogonalLoop=1;jettySize=auto;html=1;entryX=0.481;entryY=-0.004;entryDx=0;entryDy=0;entryPerimeter=0;" parent="1" source="HTWMXDrWPJUMCixaXArP-17" target="7OJHZP6-_uYFb9aTtTCm-36" edge="1">
          <mxGeometry relative="1" as="geometry">
            <mxPoint x="33" y="-517" as="targetPoint" />
            <mxPoint x="67" y="-633" as="sourcePoint" />
            <Array as="points">
              <mxPoint x="97" y="-637" />
              <mxPoint x="192" y="-637" />
              <mxPoint x="192" y="-618" />
            </Array>
          </mxGeometry>
        </mxCell>
        <mxCell id="HTWMXDrWPJUMCixaXArP-19" value="QUERY" style="text;whiteSpace=wrap;fontStyle=1" parent="1" vertex="1">
          <mxGeometry x="76" y="-717.5" width="50" height="20" as="geometry" />
        </mxCell>
        <mxCell id="HTWMXDrWPJUMCixaXArP-18" value="Full differential expression profiles (signatures)" style="text;whiteSpace=wrap;fontSize=11;" parent="1" vertex="1">
          <mxGeometry x="36" y="-697.5" width="130" height="33" as="geometry" />
        </mxCell>
        <mxCell id="bNLNiKnNglu3-eJ_Uafm-12" style="edgeStyle=orthogonalEdgeStyle;rounded=0;orthogonalLoop=1;jettySize=auto;html=1;exitX=0.5;exitY=1;exitDx=0;exitDy=0;entryX=0.463;entryY=-0.013;entryDx=0;entryDy=0;entryPerimeter=0;" parent="1" source="7OJHZP6-_uYFb9aTtTCm-36" target="HTWMXDrWPJUMCixaXArP-107" edge="1">
          <mxGeometry relative="1" as="geometry">
            <mxPoint x="447" y="-393" as="targetPoint" />
            <Array as="points">
              <mxPoint x="198" y="-407" />
              <mxPoint x="477" y="-407" />
            </Array>
          </mxGeometry>
        </mxCell>
        <mxCell id="D4u7m-yXLqIdTDbyETIF-1" value="&lt;font face=&quot;Times New Roman&quot;&gt;ents&lt;/font&gt;" style="swimlane;whiteSpace=wrap;html=1;fontFamily=Verdana;startSize=20;" parent="1" vertex="1">
          <mxGeometry x="218" y="206" width="150.5" height="100" as="geometry">
            <mxRectangle x="253" y="-100" width="140" height="30" as="alternateBounds" />
          </mxGeometry>
        </mxCell>
        <mxCell id="D4u7m-yXLqIdTDbyETIF-29" value="&lt;ul style=&quot;font-size: 10px; line-height: 140%;&quot;&gt;&lt;li&gt;&lt;font style=&quot;font-size: 10px;&quot;&gt;uid: number of the row&lt;/font&gt;&lt;/li&gt;&lt;li&gt;&lt;font style=&quot;font-size: 10px;&quot;&gt;name: HGNC symbol&lt;/font&gt;&lt;/li&gt;&lt;li&gt;&lt;font style=&quot;font-size: 10px;&quot;&gt;id: Entrez id&lt;/font&gt;&lt;/li&gt;&lt;li&gt;&lt;font style=&quot;font-size: 10px;&quot;&gt;type: The bio type of the gene corresponding to that row&lt;/font&gt;&lt;/li&gt;&lt;/ul&gt;" style="text;html=1;align=left;verticalAlign=middle;whiteSpace=wrap;rounded=0;fontFamily=Times New Roman;" parent="D4u7m-yXLqIdTDbyETIF-1" vertex="1">
          <mxGeometry x="-19" y="21.82" width="162" height="76.13" as="geometry" />
        </mxCell>
        <mxCell id="D4u7m-yXLqIdTDbyETIF-39" style="edgeStyle=orthogonalEdgeStyle;rounded=0;orthogonalLoop=1;jettySize=auto;html=1;entryX=0.641;entryY=-0.013;entryDx=0;entryDy=0;entryPerimeter=0;fontFamily=Verdana;" parent="1" source="D4u7m-yXLqIdTDbyETIF-3" target="D4u7m-yXLqIdTDbyETIF-11" edge="1">
          <mxGeometry relative="1" as="geometry">
            <Array as="points">
              <mxPoint x="535.5" y="327" />
              <mxPoint x="535.5" y="327" />
            </Array>
          </mxGeometry>
        </mxCell>
        <mxCell id="D4u7m-yXLqIdTDbyETIF-3" value="rels" style="swimlane;whiteSpace=wrap;html=1;fontFamily=Times New Roman;startSize=17;" parent="1" vertex="1">
          <mxGeometry x="423.63" y="205.25" width="198.37" height="156.75" as="geometry">
            <mxRectangle x="253" y="-100" width="140" height="30" as="alternateBounds" />
          </mxGeometry>
        </mxCell>
        <mxCell id="D4u7m-yXLqIdTDbyETIF-32" value="&lt;ul style=&quot;line-height: 140%;&quot;&gt;&lt;li style=&quot;font-size: 10px;&quot;&gt;&lt;font style=&quot;font-size: 10px;&quot;&gt;uid: number of the row&lt;/font&gt;&lt;/li&gt;&lt;li style=&quot;font-size: 10px;&quot;&gt;&lt;font style=&quot;font-size: 10px;&quot;&gt;srcuid: source node or regulator uid&amp;nbsp;&lt;/font&gt;from ents&amp;nbsp;&lt;/li&gt;&lt;li style=&quot;font-size: 10px;&quot;&gt;trguid: target node uid from ents&amp;nbsp;&lt;/li&gt;&lt;li style=&quot;font-size: 10px;&quot;&gt;&lt;font style=&quot;font-size: 10px;&quot;&gt;type: Type of interaction. Increase if it is up regulation, decrease if down regulation and conflict if there&#39;s no information&lt;/font&gt;&lt;/li&gt;&lt;/ul&gt;" style="text;html=1;align=left;verticalAlign=middle;whiteSpace=wrap;rounded=0;fontFamily=Times New Roman;" parent="D4u7m-yXLqIdTDbyETIF-3" vertex="1">
          <mxGeometry x="-20" y="46.45" width="216" height="83.25" as="geometry" />
        </mxCell>
        <mxCell id="D4u7m-yXLqIdTDbyETIF-55" style="edgeStyle=orthogonalEdgeStyle;rounded=0;orthogonalLoop=1;jettySize=auto;html=1;fontFamily=Verdana;" parent="1" source="D4u7m-yXLqIdTDbyETIF-48" edge="1">
          <mxGeometry relative="1" as="geometry">
            <mxPoint x="644.5" y="390" as="sourcePoint" />
            <mxPoint x="584.5" y="420" as="targetPoint" />
            <Array as="points">
              <mxPoint x="654.5" y="383" />
              <mxPoint x="634.5" y="383" />
              <mxPoint x="634.5" y="420" />
            </Array>
          </mxGeometry>
        </mxCell>
        <mxCell id="D4u7m-yXLqIdTDbyETIF-9" value="&lt;font face=&quot;Times New Roman&quot;&gt;methods&lt;/font&gt;" style="swimlane;whiteSpace=wrap;html=1;fontFamily=Verdana;startSize=17;" parent="1" vertex="1">
          <mxGeometry x="640" y="330.97" width="200" height="90" as="geometry">
            <mxRectangle x="253" y="-100" width="140" height="30" as="alternateBounds" />
          </mxGeometry>
        </mxCell>
        <mxCell id="D4u7m-yXLqIdTDbyETIF-48" value="&lt;div&gt;&lt;span style=&quot;font-size: 10px;&quot;&gt;&lt;br&gt;&lt;/span&gt;&lt;/div&gt;&lt;ul style=&quot;line-height: 140%;&quot;&gt;&lt;li style=&quot;font-size: 10px;&quot;&gt;Fisher: Unsigned Network&amp;nbsp;&lt;/li&gt;&lt;li style=&quot;font-size: 10px;&quot;&gt;Ternary: Completely signed Network&amp;nbsp;&lt;/li&gt;&lt;li style=&quot;font-size: 10px;&quot;&gt;Quaternary: Partially signed Network&amp;nbsp;&lt;/li&gt;&lt;/ul&gt;" style="text;html=1;align=left;verticalAlign=middle;whiteSpace=wrap;rounded=0;fontFamily=Times New Roman;" parent="D4u7m-yXLqIdTDbyETIF-9" vertex="1">
          <mxGeometry y="26.75" width="200" height="58.13" as="geometry" />
        </mxCell>
        <mxCell id="D4u7m-yXLqIdTDbyETIF-11" value="runCIE(DGEs, methods, ents, rels, useFile=FALSE)" style="swimlane;fontStyle=1;align=center;verticalAlign=middle;childLayout=stackLayout;horizontal=1;startSize=23;horizontalStack=0;resizeParent=0;resizeLast=1;container=0;collapsible=0;rounded=1;arcSize=16;strokeColor=#d6b656;fillColor=#fff2cc;swimlaneFillColor=default;dropTarget=0;fontFamily=Times New Roman;fontSize=10;" parent="1" vertex="1">
          <mxGeometry x="242.38" y="397" width="340.5" height="63" as="geometry" />
        </mxCell>
        <mxCell id="D4u7m-yXLqIdTDbyETIF-12" value="&lt;div style=&quot;&quot;&gt;&lt;span style=&quot;font-size: 10px;&quot;&gt;Runs inference models selected on network selected, with differentially&lt;/span&gt;&lt;span style=&quot;font-size: 10px; background-color: initial;&quot;&gt;&amp;nbsp;expressed genes provided, and with methods requested.&lt;/span&gt;&lt;/div&gt;" style="text;html=1;strokeColor=none;fillColor=none;align=center;verticalAlign=middle;spacingLeft=4;spacingRight=4;whiteSpace=wrap;overflow=hidden;rotatable=0;fontColor=#000000;fontFamily=Times New Roman;" parent="D4u7m-yXLqIdTDbyETIF-11" vertex="1">
          <mxGeometry y="23" width="340.5" height="40" as="geometry" />
        </mxCell>
        <mxCell id="D4u7m-yXLqIdTDbyETIF-56" style="edgeStyle=orthogonalEdgeStyle;rounded=0;orthogonalLoop=1;jettySize=auto;html=1;entryX=1;entryY=0.25;entryDx=0;entryDy=0;fontFamily=Verdana;" parent="1" source="D4u7m-yXLqIdTDbyETIF-14" target="D4u7m-yXLqIdTDbyETIF-12" edge="1">
          <mxGeometry relative="1" as="geometry">
            <Array as="points">
              <mxPoint x="634.5" y="437" />
              <mxPoint x="634.5" y="437" />
            </Array>
          </mxGeometry>
        </mxCell>
        <mxCell id="D4u7m-yXLqIdTDbyETIF-14" value="useFile" style="swimlane;whiteSpace=wrap;html=1;fontFamily=Times New Roman;startSize=15;" parent="1" vertex="1">
          <mxGeometry x="630" y="434.97" width="190" height="110" as="geometry">
            <mxRectangle x="253" y="-100" width="140" height="30" as="alternateBounds" />
          </mxGeometry>
        </mxCell>
        <mxCell id="D4u7m-yXLqIdTDbyETIF-18" value="&lt;h1 style=&quot;text-align: left; margin-top: 0px; line-height: 60%;&quot;&gt;&lt;span style=&quot;font-size: 10px; font-weight: 400;&quot;&gt;Boolean value, indicating the source of the database.&amp;nbsp; FALSE because we are using the ents and rels paramters. Otherwise, the default is TRUE&lt;/span&gt;&lt;/h1&gt;" style="text;html=1;whiteSpace=wrap;overflow=hidden;rounded=0;fontFamily=Times New Roman;" parent="D4u7m-yXLqIdTDbyETIF-14" vertex="1">
          <mxGeometry x="3" y="21" width="187" height="88" as="geometry" />
        </mxCell>
        <mxCell id="D4u7m-yXLqIdTDbyETIF-17" value="Result" style="swimlane;whiteSpace=wrap;html=1;fontFamily=Times New Roman;startSize=18;" parent="1" vertex="1">
          <mxGeometry x="253.13" y="484.5" width="319" height="88.03" as="geometry">
            <mxRectangle x="253" y="-100" width="140" height="30" as="alternateBounds" />
          </mxGeometry>
        </mxCell>
        <mxCell id="D4u7m-yXLqIdTDbyETIF-27" value="&lt;h1 style=&quot;text-align: left; margin-top: 0px; line-height: 60%;&quot;&gt;&lt;span style=&quot;font-size: 10px; font-weight: 400;&quot;&gt;List of data frames, depending on the number of methods and DGEs provided, which contain the enrichment results (if a list, they are named with the methods and the original names of the DGE list)&lt;/span&gt;&lt;/h1&gt;" style="text;html=1;whiteSpace=wrap;overflow=hidden;rounded=0;fontFamily=Times New Roman;" parent="D4u7m-yXLqIdTDbyETIF-17" vertex="1">
          <mxGeometry x="7" y="18.03" width="315" height="65" as="geometry" />
        </mxCell>
        <mxCell id="D4u7m-yXLqIdTDbyETIF-21" value="" style="verticalLabelPosition=bottom;verticalAlign=top;html=1;shape=mxgraph.basic.layered_rect;dx=10;outlineConnect=0;whiteSpace=wrap;fillColor=#ffe6cc;strokeColor=#d79b00;" parent="1" vertex="1">
          <mxGeometry x="332.63" y="615.78" width="132" height="70" as="geometry" />
        </mxCell>
        <mxCell id="D4u7m-yXLqIdTDbyETIF-22" value="Network: Metabase/Omnipath" style="text;whiteSpace=wrap;fontSize=11;" parent="1" vertex="1">
          <mxGeometry x="339.63" y="636.78" width="115" height="40" as="geometry" />
        </mxCell>
        <mxCell id="D4u7m-yXLqIdTDbyETIF-23" value="REFERENCE" style="text;whiteSpace=wrap;fontStyle=1" parent="1" vertex="1">
          <mxGeometry x="355.63" y="616.78" width="74" height="20" as="geometry" />
        </mxCell>
        <mxCell id="D4u7m-yXLqIdTDbyETIF-25" value="" style="strokeWidth=1;html=1;shape=mxgraph.flowchart.annotation_2;align=left;labelPosition=right;pointerEvents=1;rotation=90;fontFamily=Verdana;" parent="1" vertex="1">
          <mxGeometry x="381.97" y="64.65" width="51.94" height="230" as="geometry" />
        </mxCell>
        <mxCell id="D4u7m-yXLqIdTDbyETIF-30" value="" style="shape=image;verticalLabelPosition=bottom;labelBackgroundColor=default;verticalAlign=top;aspect=fixed;imageAspect=0;image=https://github.com/umbibio/CIE/raw/master/inst/images/chip.ents.jpg;" parent="1" vertex="1">
          <mxGeometry x="156" y="600" width="162.72" height="108.31" as="geometry" />
        </mxCell>
        <mxCell id="D4u7m-yXLqIdTDbyETIF-33" value="" style="shape=image;verticalLabelPosition=bottom;labelBackgroundColor=default;verticalAlign=top;aspect=fixed;imageAspect=0;image=https://github.com/umbibio/CIE/raw/master/inst/images/chip.rels.jpg;" parent="1" vertex="1">
          <mxGeometry x="164.5" y="700" width="201" height="116.31" as="geometry" />
        </mxCell>
        <mxCell id="D4u7m-yXLqIdTDbyETIF-45" style="edgeStyle=orthogonalEdgeStyle;rounded=0;orthogonalLoop=1;jettySize=auto;html=1;entryX=0.5;entryY=0;entryDx=0;entryDy=0;fontFamily=Verdana;" parent="1" source="D4u7m-yXLqIdTDbyETIF-12" target="D4u7m-yXLqIdTDbyETIF-17" edge="1">
          <mxGeometry relative="1" as="geometry" />
        </mxCell>
        <mxCell id="D4u7m-yXLqIdTDbyETIF-46" value="" style="shape=image;verticalLabelPosition=bottom;labelBackgroundColor=default;verticalAlign=top;aspect=fixed;imageAspect=0;image=https://github.com/umbibio/CIE-R-Package/raw/master/inst/images/dgeMYC.jpg;" parent="1" vertex="1">
          <mxGeometry x="50.00000000000001" y="600" width="100.38" height="199" as="geometry" />
        </mxCell>
        <mxCell id="D4u7m-yXLqIdTDbyETIF-49" value="" style="verticalLabelPosition=bottom;verticalAlign=top;html=1;shape=mxgraph.basic.layered_rect;dx=10;outlineConnect=0;whiteSpace=wrap;fillColor=#ffe6cc;strokeColor=#d79b00;" parent="1" vertex="1">
          <mxGeometry x="365.5" y="710.91" width="150" height="73" as="geometry" />
        </mxCell>
        <mxCell id="D4u7m-yXLqIdTDbyETIF-50" value="QUERY" style="text;whiteSpace=wrap;fontStyle=1" parent="1" vertex="1">
          <mxGeometry x="411.5" y="712.66" width="49" height="20" as="geometry" />
        </mxCell>
        <mxCell id="D4u7m-yXLqIdTDbyETIF-51" value="Differential expressed genes" style="text;whiteSpace=wrap;fontSize=11;" parent="1" vertex="1">
          <mxGeometry x="371.5" y="732.66" width="130" height="33" as="geometry" />
        </mxCell>
        <mxCell id="D4u7m-yXLqIdTDbyETIF-52" style="edgeStyle=orthogonalEdgeStyle;rounded=0;orthogonalLoop=1;jettySize=auto;html=1;fontFamily=Verdana;" parent="1" source="D4u7m-yXLqIdTDbyETIF-1" edge="1">
          <mxGeometry relative="1" as="geometry">
            <mxPoint x="299.5" y="390" as="targetPoint" />
          </mxGeometry>
        </mxCell>
        <mxCell id="D4u7m-yXLqIdTDbyETIF-61" value="CIE (&lt;b&gt;C&lt;/b&gt;ausal &lt;b&gt;I&lt;/b&gt;nference &lt;b&gt;E&lt;/b&gt;nrichment)" style="shape=process;whiteSpace=wrap;html=1;backgroundOutline=1;fillColor=#d5e8d4;strokeColor=#82b366;fontFamily=Times New Roman;" parent="1" vertex="1">
          <mxGeometry x="275.75" y="64.25" width="264.37" height="25.75" as="geometry" />
        </mxCell>
        <mxCell id="D4u7m-yXLqIdTDbyETIF-63" value="ProTINA (&lt;b&gt;Pro&lt;/b&gt;tein &lt;b&gt;T&lt;/b&gt;arget &lt;b&gt;I&lt;/b&gt;nference by &lt;b&gt;N&lt;/b&gt;etwork &lt;b&gt;A&lt;/b&gt;nalysis)" style="shape=process;whiteSpace=wrap;html=1;backgroundOutline=1;fillColor=#d5e8d4;strokeColor=#82b366;" parent="1" vertex="1">
          <mxGeometry x="223" y="-1067" width="404" height="25.75" as="geometry" />
        </mxCell>
        <mxCell id="_Vc6CDf7AbqFeUe0lsxb-1" style="edgeStyle=orthogonalEdgeStyle;rounded=0;orthogonalLoop=1;jettySize=auto;html=1;exitX=1;exitY=0.5;exitDx=0;exitDy=0;entryX=0;entryY=0.5;entryDx=0;entryDy=0;" parent="1" source="_Vc6CDf7AbqFeUe0lsxb-2" target="_Vc6CDf7AbqFeUe0lsxb-9" edge="1">
          <mxGeometry relative="1" as="geometry" />
        </mxCell>
        <mxCell id="_Vc6CDf7AbqFeUe0lsxb-2" value="measObj&amp;nbsp;" style="rounded=1;whiteSpace=wrap;html=1;fontSize=12;glass=0;strokeWidth=1;shadow=0;" parent="1" vertex="1">
          <mxGeometry x="1101.06" y="139.28" width="70" height="30" as="geometry" />
        </mxCell>
        <mxCell id="_Vc6CDf7AbqFeUe0lsxb-3" value="netObj&amp;nbsp;" style="rounded=1;whiteSpace=wrap;html=1;fontSize=12;glass=0;strokeWidth=1;shadow=0;" parent="1" vertex="1">
          <mxGeometry x="1446.06" y="202.75000000000003" width="70" height="30" as="geometry" />
        </mxCell>
        <mxCell id="_Vc6CDf7AbqFeUe0lsxb-4" style="edgeStyle=orthogonalEdgeStyle;rounded=0;orthogonalLoop=1;jettySize=auto;html=1;exitX=1;exitY=0.5;exitDx=0;exitDy=0;entryX=0;entryY=0.5;entryDx=0;entryDy=0;" parent="1" source="_Vc6CDf7AbqFeUe0lsxb-5" target="_Vc6CDf7AbqFeUe0lsxb-12" edge="1">
          <mxGeometry relative="1" as="geometry" />
        </mxCell>
        <mxCell id="_Vc6CDf7AbqFeUe0lsxb-5" value="inputObj&amp;nbsp;" style="rounded=1;whiteSpace=wrap;html=1;fontSize=12;glass=0;strokeWidth=1;shadow=0;" parent="1" vertex="1">
          <mxGeometry x="1101.06" y="219.28" width="70" height="30" as="geometry" />
        </mxCell>
        <mxCell id="_Vc6CDf7AbqFeUe0lsxb-6" style="edgeStyle=orthogonalEdgeStyle;rounded=0;orthogonalLoop=1;jettySize=auto;html=1;exitX=1;exitY=0.5;exitDx=0;exitDy=0;dashed=1;entryX=0;entryY=0.5;entryDx=0;entryDy=0;" parent="1" source="_Vc6CDf7AbqFeUe0lsxb-7" target="_Vc6CDf7AbqFeUe0lsxb-14" edge="1">
          <mxGeometry relative="1" as="geometry">
            <mxPoint x="1186.06" y="194.11333333333337" as="targetPoint" />
          </mxGeometry>
        </mxCell>
        <mxCell id="_Vc6CDf7AbqFeUe0lsxb-7" value="weightObj&amp;nbsp;" style="rounded=1;whiteSpace=wrap;html=1;fontSize=12;glass=0;strokeWidth=1;shadow=0;" parent="1" vertex="1">
          <mxGeometry x="1101.06" y="179.28" width="70" height="30" as="geometry" />
        </mxCell>
        <mxCell id="_Vc6CDf7AbqFeUe0lsxb-8" value="StdCARNIVAL" style="rounded=1;whiteSpace=wrap;html=1;fontSize=12;glass=0;strokeWidth=1;shadow=0;fillColor=#fff2cc;strokeColor=#d6b656;" parent="1" vertex="1">
          <mxGeometry x="1336.06" y="219.28" width="90" height="30" as="geometry" />
        </mxCell>
        <mxCell id="_Vc6CDf7AbqFeUe0lsxb-9" value="Transcription Factor activities" style="text;html=1;align=center;verticalAlign=middle;whiteSpace=wrap;rounded=0;" parent="1" vertex="1">
          <mxGeometry x="1190.06" y="139.28" width="86" height="30" as="geometry" />
        </mxCell>
        <mxCell id="_Vc6CDf7AbqFeUe0lsxb-10" value="Prior Knowledge Network" style="text;html=1;align=center;verticalAlign=middle;whiteSpace=wrap;rounded=0;" parent="1" vertex="1">
          <mxGeometry x="1531.06" y="202.75000000000003" width="95" height="30" as="geometry" />
        </mxCell>
        <mxCell id="_Vc6CDf7AbqFeUe0lsxb-11" style="edgeStyle=orthogonalEdgeStyle;rounded=0;orthogonalLoop=1;jettySize=auto;html=1;exitX=1;exitY=0.5;exitDx=0;exitDy=0;entryX=0;entryY=0.5;entryDx=0;entryDy=0;" parent="1" source="_Vc6CDf7AbqFeUe0lsxb-12" target="_Vc6CDf7AbqFeUe0lsxb-8" edge="1">
          <mxGeometry relative="1" as="geometry" />
        </mxCell>
        <mxCell id="_Vc6CDf7AbqFeUe0lsxb-12" value="Target proteins of perturbations" style="text;html=1;align=center;verticalAlign=middle;whiteSpace=wrap;rounded=0;" parent="1" vertex="1">
          <mxGeometry x="1194.06" y="219.28" width="100" height="30" as="geometry" />
        </mxCell>
        <mxCell id="_Vc6CDf7AbqFeUe0lsxb-13" style="edgeStyle=orthogonalEdgeStyle;rounded=0;orthogonalLoop=1;jettySize=auto;html=1;exitX=1;exitY=0;exitDx=0;exitDy=0;entryX=0;entryY=0.5;entryDx=0;entryDy=0;" parent="1" source="_Vc6CDf7AbqFeUe0lsxb-14" target="_Vc6CDf7AbqFeUe0lsxb-15" edge="1">
          <mxGeometry relative="1" as="geometry">
            <Array as="points">
              <mxPoint x="1336.06" y="179.28" />
            </Array>
          </mxGeometry>
        </mxCell>
        <mxCell id="_Vc6CDf7AbqFeUe0lsxb-14" value="Pathway activities" style="text;html=1;align=center;verticalAlign=middle;whiteSpace=wrap;rounded=0;" parent="1" vertex="1">
          <mxGeometry x="1193.06" y="179.28" width="106" height="30" as="geometry" />
        </mxCell>
        <mxCell id="_Vc6CDf7AbqFeUe0lsxb-15" value="InvCARNIVAL" style="rounded=1;whiteSpace=wrap;html=1;fontSize=12;glass=0;strokeWidth=1;shadow=0;fillColor=#fff2cc;strokeColor=#d6b656;" parent="1" vertex="1">
          <mxGeometry x="1336.06" y="163.28" width="90" height="30" as="geometry" />
        </mxCell>
        <mxCell id="_Vc6CDf7AbqFeUe0lsxb-16" style="edgeStyle=orthogonalEdgeStyle;rounded=0;orthogonalLoop=1;jettySize=auto;html=1;entryX=0;entryY=0.5;entryDx=0;entryDy=0;dashed=1;" parent="1" source="_Vc6CDf7AbqFeUe0lsxb-18" target="_Vc6CDf7AbqFeUe0lsxb-7" edge="1">
          <mxGeometry relative="1" as="geometry">
            <mxPoint x="1056.06" y="189.28" as="sourcePoint" />
            <Array as="points">
              <mxPoint x="1076.06" y="179.28" />
              <mxPoint x="1076.06" y="194.28" />
            </Array>
          </mxGeometry>
        </mxCell>
        <mxCell id="_Vc6CDf7AbqFeUe0lsxb-17" style="edgeStyle=orthogonalEdgeStyle;rounded=0;orthogonalLoop=1;jettySize=auto;html=1;exitX=0;exitY=0;exitDx=100;exitDy=35;exitPerimeter=0;entryX=0;entryY=0.5;entryDx=0;entryDy=0;" parent="1" source="_Vc6CDf7AbqFeUe0lsxb-18" target="_Vc6CDf7AbqFeUe0lsxb-2" edge="1">
          <mxGeometry relative="1" as="geometry">
            <Array as="points">
              <mxPoint x="1076.06" y="178.28" />
              <mxPoint x="1076.06" y="154.28" />
            </Array>
          </mxGeometry>
        </mxCell>
        <mxCell id="_Vc6CDf7AbqFeUe0lsxb-18" value="" style="verticalLabelPosition=bottom;verticalAlign=top;html=1;shape=mxgraph.basic.layered_rect;dx=10;outlineConnect=0;whiteSpace=wrap;" parent="1" vertex="1">
          <mxGeometry x="937.06" y="143.28" width="100" height="60" as="geometry" />
        </mxCell>
        <mxCell id="_Vc6CDf7AbqFeUe0lsxb-19" value="Differential gene expression" style="text;html=1;align=center;verticalAlign=middle;whiteSpace=wrap;rounded=0;" parent="1" vertex="1">
          <mxGeometry x="947.06" y="153.28" width="70" height="30" as="geometry" />
        </mxCell>
        <mxCell id="_Vc6CDf7AbqFeUe0lsxb-20" value="" style="sketch=0;verticalLabelPosition=bottom;sketch=0;aspect=fixed;html=1;verticalAlign=top;strokeColor=none;fillColor=#000000;align=center;outlineConnect=0;pointerEvents=1;shape=mxgraph.citrix2.zones;" parent="1" vertex="1">
          <mxGeometry x="1496.06" y="153.28" width="50" height="44.47" as="geometry" />
        </mxCell>
        <mxCell id="_Vc6CDf7AbqFeUe0lsxb-21" value="CARNIVAL (CAusal Reasoning for Network identification using Integer VALue programming)&amp;nbsp;" style="shape=process;whiteSpace=wrap;html=1;backgroundOutline=1;fillColor=#d5e8d4;strokeColor=#82b366;" parent="1" vertex="1">
          <mxGeometry x="1013.06" y="44.25000000000001" width="404" height="40" as="geometry" />
        </mxCell>
        <mxCell id="-rfvh13fIFtklXoSq2jB-2" value="&lt;div&gt;&lt;span style=&quot;text-wrap-mode: nowrap; background-color: transparent; color: light-dark(rgb(0, 0, 0), rgb(255, 255, 255));&quot;&gt;With protina_custom there&#39;s no need to do&amp;nbsp;&lt;/span&gt;&lt;/div&gt;&lt;div&gt;&lt;div style=&quot;text-wrap-mode: nowrap;&quot;&gt;the following filter step: drop full&amp;nbsp;&lt;div&gt;signatures that&amp;nbsp;&lt;span style=&quot;background-color: initial;&quot;&gt;do not have statistically&lt;/span&gt;&lt;span style=&quot;background-color: initial;&quot;&gt;&amp;nbsp;&lt;/span&gt;&lt;/div&gt;&lt;div&gt;&lt;span style=&quot;background-color: initial;&quot;&gt;significant expression, t&lt;/span&gt;&lt;span style=&quot;background-color: initial;&quot;&gt;he signatures&amp;nbsp;&lt;/span&gt;&lt;/div&gt;&lt;div&gt;&lt;span style=&quot;background-color: initial;&quot;&gt;remaining are converted to a matrix&amp;nbsp;&lt;/span&gt;&lt;span style=&quot;background-color: initial;&quot;&gt;of FCs&lt;/span&gt;&lt;/div&gt;&lt;/div&gt;&lt;/div&gt;" style="text;html=1;align=center;verticalAlign=middle;whiteSpace=wrap;rounded=0;" parent="1" vertex="1">
          <mxGeometry x="2099.69" y="-437" width="261" height="73" as="geometry" />
        </mxCell>
        <mxCell id="-rfvh13fIFtklXoSq2jB-124" style="edgeStyle=orthogonalEdgeStyle;rounded=0;orthogonalLoop=1;jettySize=auto;html=1;" parent="1" source="-rfvh13fIFtklXoSq2jB-4" target="-rfvh13fIFtklXoSq2jB-117" edge="1">
          <mxGeometry relative="1" as="geometry" />
        </mxCell>
        <mxCell id="-rfvh13fIFtklXoSq2jB-4" value="" style="verticalLabelPosition=bottom;verticalAlign=top;html=1;shape=mxgraph.basic.layered_rect;dx=10;outlineConnect=0;whiteSpace=wrap;fillColor=#ffe6cc;strokeColor=#d79b00;" parent="1" vertex="1">
          <mxGeometry x="962.06" y="540.98" width="172" height="40" as="geometry" />
        </mxCell>
        <mxCell id="-rfvh13fIFtklXoSq2jB-5" value="Network: Metabase/Omnipath" style="text;whiteSpace=wrap;fontSize=11;" parent="1" vertex="1">
          <mxGeometry x="968.06" y="543.98" width="148" height="40" as="geometry" />
        </mxCell>
        <mxCell id="-rfvh13fIFtklXoSq2jB-125" style="edgeStyle=orthogonalEdgeStyle;rounded=0;orthogonalLoop=1;jettySize=auto;html=1;entryX=0;entryY=0.5;entryDx=0;entryDy=0;" parent="1" source="-rfvh13fIFtklXoSq2jB-107" target="-rfvh13fIFtklXoSq2jB-117" edge="1">
          <mxGeometry relative="1" as="geometry" />
        </mxCell>
        <mxCell id="-rfvh13fIFtklXoSq2jB-107" value="" style="verticalLabelPosition=bottom;verticalAlign=top;html=1;shape=mxgraph.basic.layered_rect;dx=10;outlineConnect=0;whiteSpace=wrap;fillColor=#ffe6cc;strokeColor=#d79b00;" parent="1" vertex="1">
          <mxGeometry x="1054.06" y="594.98" width="80" height="40" as="geometry" />
        </mxCell>
        <mxCell id="-rfvh13fIFtklXoSq2jB-108" value="Signatures" style="text;whiteSpace=wrap;fontSize=11;" parent="1" vertex="1">
          <mxGeometry x="1059.06" y="594.98" width="63.5" height="40" as="geometry" />
        </mxCell>
        <mxCell id="-rfvh13fIFtklXoSq2jB-127" style="edgeStyle=orthogonalEdgeStyle;rounded=0;orthogonalLoop=1;jettySize=auto;html=1;entryX=0.5;entryY=1;entryDx=0;entryDy=0;" parent="1" source="-rfvh13fIFtklXoSq2jB-109" target="-rfvh13fIFtklXoSq2jB-117" edge="1">
          <mxGeometry relative="1" as="geometry" />
        </mxCell>
        <mxCell id="-rfvh13fIFtklXoSq2jB-109" value="" style="verticalLabelPosition=bottom;verticalAlign=top;html=1;shape=mxgraph.basic.layered_rect;dx=10;outlineConnect=0;whiteSpace=wrap;fillColor=#ffe6cc;strokeColor=#d79b00;" parent="1" vertex="1">
          <mxGeometry x="1080.06" y="647.98" width="54" height="40" as="geometry" />
        </mxCell>
        <mxCell id="-rfvh13fIFtklXoSq2jB-110" value="DEGs" style="text;whiteSpace=wrap;fontSize=11;" parent="1" vertex="1">
          <mxGeometry x="1083.06" y="647.98" width="35.5" height="40" as="geometry" />
        </mxCell>
        <mxCell id="-rfvh13fIFtklXoSq2jB-117" value="REFERENCE" style="ellipse;whiteSpace=wrap;html=1;align=center;newEdgeStyle={&quot;edgeStyle&quot;:&quot;entityRelationEdgeStyle&quot;,&quot;startArrow&quot;:&quot;none&quot;,&quot;endArrow&quot;:&quot;none&quot;,&quot;segment&quot;:10,&quot;curved&quot;:1,&quot;sourcePerimeterSpacing&quot;:0,&quot;targetPerimeterSpacing&quot;:0};treeFolding=1;treeMoving=1;fontStyle=1" parent="1" vertex="1">
          <mxGeometry x="1176.06" y="594.98" width="100" height="40" as="geometry" />
        </mxCell>
        <mxCell id="-rfvh13fIFtklXoSq2jB-132" style="edgeStyle=orthogonalEdgeStyle;rounded=0;orthogonalLoop=1;jettySize=auto;html=1;entryX=0.5;entryY=1;entryDx=0;entryDy=0;" parent="1" source="-rfvh13fIFtklXoSq2jB-118" target="-rfvh13fIFtklXoSq2jB-128" edge="1">
          <mxGeometry relative="1" as="geometry" />
        </mxCell>
        <mxCell id="-rfvh13fIFtklXoSq2jB-118" value="" style="verticalLabelPosition=bottom;verticalAlign=top;html=1;shape=mxgraph.basic.layered_rect;dx=10;outlineConnect=0;whiteSpace=wrap;fillColor=#ffe6cc;strokeColor=#d79b00;" parent="1" vertex="1">
          <mxGeometry x="987.06" y="460.97999999999996" width="150" height="53.38" as="geometry" />
        </mxCell>
        <mxCell id="-rfvh13fIFtklXoSq2jB-120" value="Full differential expression profiles (signatures)" style="text;whiteSpace=wrap;fontSize=11;" parent="1" vertex="1">
          <mxGeometry x="993.06" y="463.11000000000007" width="130" height="33" as="geometry" />
        </mxCell>
        <mxCell id="-rfvh13fIFtklXoSq2jB-128" value="DATASET" style="ellipse;whiteSpace=wrap;html=1;align=center;newEdgeStyle={&quot;edgeStyle&quot;:&quot;entityRelationEdgeStyle&quot;,&quot;startArrow&quot;:&quot;none&quot;,&quot;endArrow&quot;:&quot;none&quot;,&quot;segment&quot;:10,&quot;curved&quot;:1,&quot;sourcePerimeterSpacing&quot;:0,&quot;targetPerimeterSpacing&quot;:0};treeFolding=1;treeMoving=1;fontStyle=1" parent="1" vertex="1">
          <mxGeometry x="1176.06" y="436.11000000000007" width="100" height="40" as="geometry" />
        </mxCell>
        <mxCell id="-rfvh13fIFtklXoSq2jB-131" style="edgeStyle=orthogonalEdgeStyle;rounded=0;orthogonalLoop=1;jettySize=auto;html=1;exitX=0;exitY=0;exitDx=150;exitDy=31.689999999999998;exitPerimeter=0;entryX=0.5;entryY=0;entryDx=0;entryDy=0;" parent="1" source="-rfvh13fIFtklXoSq2jB-129" target="-rfvh13fIFtklXoSq2jB-128" edge="1">
          <mxGeometry relative="1" as="geometry" />
        </mxCell>
        <mxCell id="-rfvh13fIFtklXoSq2jB-129" value="" style="verticalLabelPosition=bottom;verticalAlign=top;html=1;shape=mxgraph.basic.layered_rect;dx=10;outlineConnect=0;whiteSpace=wrap;fillColor=#ffe6cc;strokeColor=#d79b00;" parent="1" vertex="1">
          <mxGeometry x="983.06" y="400.97999999999996" width="150" height="53.38" as="geometry" />
        </mxCell>
        <mxCell id="-rfvh13fIFtklXoSq2jB-130" value="DEGs" style="text;whiteSpace=wrap;fontSize=11;" parent="1" vertex="1">
          <mxGeometry x="989.06" y="403.11000000000007" width="130" height="33" as="geometry" />
        </mxCell>
        <mxCell id="cHKp6VJRD1__R06fUMZX-1" value="NicheNet:&amp;nbsp;predict active ligand-target links between interacting cells" style="shape=process;whiteSpace=wrap;html=1;backgroundOutline=1;fillColor=#d5e8d4;strokeColor=#82b366;" parent="1" vertex="1">
          <mxGeometry x="1896.31" y="44.25" width="476" height="25.75" as="geometry" />
        </mxCell>
        <mxCell id="cHKp6VJRD1__R06fUMZX-2" value="REFERENCE" style="ellipse;whiteSpace=wrap;html=1;align=center;newEdgeStyle={&quot;edgeStyle&quot;:&quot;entityRelationEdgeStyle&quot;,&quot;startArrow&quot;:&quot;none&quot;,&quot;endArrow&quot;:&quot;none&quot;,&quot;segment&quot;:10,&quot;curved&quot;:1,&quot;sourcePerimeterSpacing&quot;:0,&quot;targetPerimeterSpacing&quot;:0};treeFolding=1;treeMoving=1;fontStyle=1;fillColor=#D4D4D4;strokeColor=#666666;fontColor=#333333;shadow=0;noLabel=0;expand=1;editable=1;movable=1;resizable=0;rotatable=1;deletable=1;locked=0;connectable=1;" parent="1" vertex="1">
          <mxGeometry x="2243.75" y="141.97000000000003" width="100" height="40" as="geometry" />
        </mxCell>
        <mxCell id="cHKp6VJRD1__R06fUMZX-3" value="DATASET" style="ellipse;whiteSpace=wrap;html=1;align=center;newEdgeStyle={&quot;edgeStyle&quot;:&quot;entityRelationEdgeStyle&quot;,&quot;startArrow&quot;:&quot;none&quot;,&quot;endArrow&quot;:&quot;none&quot;,&quot;segment&quot;:10,&quot;curved&quot;:1,&quot;sourcePerimeterSpacing&quot;:0,&quot;targetPerimeterSpacing&quot;:0};treeFolding=1;treeMoving=1;fontStyle=1;fillColor=#D6D6D6;strokeColor=#666666;fontColor=#333333;resizable=0;" parent="1" vertex="1">
          <mxGeometry x="1321.87" y="393.48" width="100" height="40" as="geometry" />
        </mxCell>
        <mxCell id="cHKp6VJRD1__R06fUMZX-4" value="lr_network" style="swimlane;whiteSpace=wrap;html=1;" parent="1" vertex="1">
          <mxGeometry x="1725.5" y="620" width="210" height="109.02" as="geometry">
            <mxRectangle x="253" y="-100" width="140" height="30" as="alternateBounds" />
          </mxGeometry>
        </mxCell>
        <mxCell id="cHKp6VJRD1__R06fUMZX-5" value="&lt;div&gt;&lt;span style=&quot;font-size: 10px;&quot;&gt;Ligand- receptor network.&lt;/span&gt;&lt;/div&gt;&lt;div&gt;&lt;span style=&quot;background-color: initial; font-size: 10px;&quot;&gt;The ligand-receptor network contains information on potential ligand-receptor bindings, and it is used to identify potential ligands.&lt;/span&gt;&lt;span style=&quot;background-color: initial; font-size: 10px;&quot;&gt;&amp;nbsp;&lt;/span&gt;&lt;/div&gt;" style="text;html=1;align=left;verticalAlign=middle;whiteSpace=wrap;rounded=0;" parent="cHKp6VJRD1__R06fUMZX-4" vertex="1">
          <mxGeometry x="4.01" y="25" width="205.99" height="80.98" as="geometry" />
        </mxCell>
        <mxCell id="cHKp6VJRD1__R06fUMZX-6" value="ligand_target_matrix" style="swimlane;whiteSpace=wrap;html=1;" parent="1" vertex="1">
          <mxGeometry x="2067.63" y="544.97" width="210" height="110" as="geometry">
            <mxRectangle x="290" y="1266" width="140" height="30" as="alternateBounds" />
          </mxGeometry>
        </mxCell>
        <mxCell id="cHKp6VJRD1__R06fUMZX-7" value="&lt;div&gt;&lt;span style=&quot;font-size: 10px; background-color: initial;&quot;&gt;The ligand-target prior model is a matrix describing the potential that a ligand may regulate a target gene, and it is used to run the ligand activity analysis.&amp;nbsp;&lt;/span&gt;&lt;/div&gt;&lt;div&gt;&lt;span style=&quot;font-size: 10px;&quot;&gt;Target genes in rows, ligands in columns.&amp;nbsp;&lt;/span&gt;&lt;/div&gt;" style="text;html=1;align=left;verticalAlign=middle;whiteSpace=wrap;rounded=0;" parent="cHKp6VJRD1__R06fUMZX-6" vertex="1">
          <mxGeometry y="26.97" width="200" height="76.97" as="geometry" />
        </mxCell>
        <mxCell id="cHKp6VJRD1__R06fUMZX-17" style="edgeStyle=orthogonalEdgeStyle;rounded=0;orthogonalLoop=1;jettySize=auto;html=1;entryX=0;entryY=0.5;entryDx=0;entryDy=0;" parent="1" source="cHKp6VJRD1__R06fUMZX-8" target="cHKp6VJRD1__R06fUMZX-13" edge="1">
          <mxGeometry relative="1" as="geometry">
            <mxPoint x="2557.75" y="384.97" as="targetPoint" />
          </mxGeometry>
        </mxCell>
        <mxCell id="cHKp6VJRD1__R06fUMZX-18" style="edgeStyle=orthogonalEdgeStyle;rounded=0;orthogonalLoop=1;jettySize=auto;html=1;entryX=0;entryY=0.5;entryDx=0;entryDy=0;" parent="1" source="cHKp6VJRD1__R06fUMZX-8" target="cHKp6VJRD1__R06fUMZX-15" edge="1">
          <mxGeometry relative="1" as="geometry" />
        </mxCell>
        <mxCell id="cHKp6VJRD1__R06fUMZX-43" style="edgeStyle=orthogonalEdgeStyle;rounded=0;orthogonalLoop=1;jettySize=auto;html=1;entryX=0.5;entryY=0;entryDx=0;entryDy=0;" parent="1" source="cHKp6VJRD1__R06fUMZX-8" target="cHKp6VJRD1__R06fUMZX-6" edge="1">
          <mxGeometry relative="1" as="geometry" />
        </mxCell>
        <mxCell id="cHKp6VJRD1__R06fUMZX-8" value="weighted_network" style="swimlane;whiteSpace=wrap;html=1;" parent="1" vertex="1">
          <mxGeometry x="2052.63" y="364.97" width="240" height="100" as="geometry">
            <mxRectangle x="253" y="-100" width="140" height="30" as="alternateBounds" />
          </mxGeometry>
        </mxCell>
        <mxCell id="cHKp6VJRD1__R06fUMZX-9" value="&lt;div&gt;&lt;span style=&quot;font-size: 10px;&quot;&gt;Target genes in rows, ligands in columns.&amp;nbsp;&lt;/span&gt;&lt;/div&gt;&lt;div&gt;&lt;span style=&quot;font-size: 10px;&quot;&gt;W&lt;/span&gt;&lt;span style=&quot;background-color: initial; font-size: 10px;&quot;&gt;eighted ligand-receptor network contains weights representing the potential that a ligand will bind to a receptor, and it is used for visualization.&lt;/span&gt;&lt;/div&gt;&lt;div&gt;&lt;span style=&quot;font-size: 10px;&quot;&gt;&lt;br&gt;&lt;/span&gt;&lt;/div&gt;" style="text;html=1;align=left;verticalAlign=middle;whiteSpace=wrap;rounded=0;" parent="cHKp6VJRD1__R06fUMZX-8" vertex="1">
          <mxGeometry x="6.19" y="30.98" width="233.81" height="69.02" as="geometry" />
        </mxCell>
        <mxCell id="cHKp6VJRD1__R06fUMZX-11" value="" style="shape=image;verticalLabelPosition=bottom;labelBackgroundColor=default;verticalAlign=top;aspect=fixed;imageAspect=0;image=data:image/png,iVBORw0KGgoAAAANSUhEUgAAAJIAAADKCAIAAADBxI5DAAAWxElEQVR4Ae1du24cuRK9C2ziH9lkAX+MItupYwOKFApwtIF0E32Cxpng7CaCImWGE2Ph0LkCJfqFiyry1IPP7p6ZnhmZgIOeniJZPKdOsc2iev7z9Pyy3b+vZ3+++SP/9+7rdt1u6dUpNP/+z185bn+++evzv13o/tO1GAZHiMCg7RR0mWXEQdugLQuKI0wvr8OlobahtqG2tRCoqe3fy7/fnH3ZXSTSw+6HTTKrLx/++Pufb/Gm/Efi7eX33Y2bjLjGR5pIEbrNu/L9BXn7cLQRkTlDX88KN/fE4q5D08Rfkban8pSXzO5QtBFkpf9Xvmranl+eXIJZQliQZps2SVwmv335gD0RqxWiId7XvMde6kaA78Saae5KaIuC2LwLndsR8zl/Pfvzw0a2Hkz/3z6/hc/RB3QIn8PeRIYpNQzbPdLtn2/iHeFAvoobQyZJhq+MJ0/Pu5F4i7Y/Yr4yyiA/gB3xF1H49vkDFqSKMTVU2jbvilJ7eXou0PYH9nsI69aeWQiyMIrBzvn51qymGYLeyafnF9BmeiMP4XyMYB5RkYEx3SksZugzD7sZd1q0SYKWkb59fmsyWzZtFo0YO24cIuWGLP8SbUJVpga/mLu2Mrp/ELA2uRusV5HR80vohGZkFSNuEG0IYpUR0/a5zBk5LM01x8wgbEqSjN1ZJpBtYnqJ1HJk6VcMtABHIznaEI8Fvy2sLzNTimuL0YkbdYwydg60oPbv5d/07ebdh7N3pKFAuUw/RongLhduIjQ7HlGzS2wYzBwUMvS8i3lqAxbJGOSoqFAm6Yydr3mYS4cO+l3RJmnDwaf6kNEDT1/P/v7n25cPZ18ii4na9GOdtrMv1JXTqFBbbqU+eCfL9+fRRgLXaJUejXqC7FhtOj1eD2QhfELyKfm3c9p4fTLLqh00XyxJXp//Ofv8L6WHdx/oGSemClmlzGTLBIgBC10yPGiTsLaezL2eSVtIzdnDIbmCzHApT18cznz/7eV3LBvBe/OYED2Oy7sktJDKGrqUoJELR7nVunEvUQBBHDwP2YItdWiVSwhHNpa8UlmlhLbwhPXGxuvM/CFTSy9qtKV2c8OhZ0986PwRib1W+/Zq//2XBTp73EPRFh5S5Olgtt8nSTBJdjdTPhxtSx+F8/8ptx7bjknH/r8iW0XqQWk7JkxPS76Dtq2i/lBkD9oGbSPprYXAUNtQ21qxdqgV5XjGHWobajsGtf28O//46f31oyjjx+bSfsT9x6uPl7c/M85C84+f3n+8uT+G6VR8aKnt/vrT1cPL07Of4c+784u7H88vFTg8ELOMn1/urz+9/xgG9f3k3j/cvGc3QAPst6QtDESd7IW2MMH3PrDSKeSTze60aQvx+Hhl5/Dz7pxj+cfm8nzzqzPkLGOKj5v7h5uSOMCKTKBGmxjgohJePhZhHKezF9p+3V64NNCBLnHJf6zQ9nBDEeH/nW++08D+Zj2ZsJdTjZmVyISPEu8uTVXzmDgTlSGxbOMp0CZfcf5ACnngjPrxUyrcAm2PV5iL7fwpZogJ0pwYjjTfX7cXmsCLYVehjRoDPh/XEBmxAggyKQDrWcb3158YkUk9P3mvbOSin+gVTftj6PmFWsXMEWgIcNOIjoyUNmtADe3EOSD6tLFXd8K97cE6H67ZZ2ZOHXYg92lL2AYTzSST0jbFWG2SEfNZ0Z1ZtOkTioCuwz2FddqulAltWKEVU+3QoVl2NQrIPOYQGaqnYiukh7JZmTa0kSzEQxaykw9SsEV+zDJOaEhQs93K9ULaRMqOtjQIEgfyJWMRbUZh4kaDdbJBbkjNyrQR7sDF5xyMl0xM0HQXM4zzQDGTTJ227uWh6h1OnniFLbmgzlN9J7MDFPlY0+94r4CMg8tOkwzON4815pq0cUzhvwGhU6yWPm9UvJ9unE6DWGxHNCFbTiAeIEcJ0ROToaVNMieAS2ijZb6aVzjg+mubWVbtEosRHX+EBqZPQ8NnNa7ShgBMAMVsJwXgZOMUpu7EaALkYXy6C6jxDPG8J48hxszO3xmLsp0xdSV8lO1nPEkWHFYaKnFfNajSNrejYb8mAoO2akSvScPcsQZtgza3rp4kHHOj/lD2Q20nGV6DtkHbSJJrITDUNtS2Vqwd6kHgeMYdahtq24HaeDsubFC19yR3MNZJEhYU31IbNpGxtRiQwiYyNi13OXnq09a9DsLNpO3WXc56Qe5t0xa22FHmFtpYB6iX7nICyeb9gvnsoMkJ05YXBqlyMessyQI6KUO6wwF0qoJOAKAap5Ua3PkkZWIOo1D153NEC05HUSHCVoZNBcB+dQTZu6E2iMxHH0SWFHQWkGSbuLIIl2MCQ3GpC1xKEc7mUi61UHmFLy5vf3KTi7sfeTFoYsr182X5knso7tC1jy07kZWu+7QRHCa+QJtf8CYi0jEjxD0izIGMHgG1IIZzToQp/KQmBPHuaKOe7Ypb4HUltmQJKNNmUpAkjZt7myiQTDzKW3pfpg1hLp0nERN52i9tEjrmuIaAuP5FmTbyAzHlHxO2juWW4KbTJikrHAxcVW2p+FozklDb8UWTNg4x/DcgDDz9eMgCRyfSxk8oyFoC4s7URklFn30ogjnNQPRJil4wzR00qdKWohBjCgkKWtxpfphKG05whAQej3ukDi9e24qHPswCsdN1YSGFVdp2ysdC54YPNQQGbScZUoO2QdshnqlqaeR13x9qG2obalsLgaG2oba1Yu11r1tTZjfUNtQ21LYWAiepNuxjHVgoB3SjRRs2kbEPGUJpn2dJpqT1wh9/rhXjiXtHS9vaZ0kCLl04ugYeX5TpZ7LrK1YFZa/jhp9LdKOitsOcJSGfuEIrf8NJdwgdVGVD9STgJbVclFRiLRD3tfjCPejHIhD+JnXlKtqHcaMQK8HPCm0UmAhSX6PBoYSIkZ9tdZhpZjWwHItCZCigECWx9sbNcdCDyEtK0noepO0nVdRc28jZym60nOzTFkJbcAdtfsGbmX+kN3NRAItDxxay40ycS1pXY9qEKh9tNBDXzDrVsrJNuTS6Rzd6eJZpQ56RgyTz30vSG9gQxmSEtCygh+YEYiG5NfBCwiyFKlNi/oq+YEM9Q6/q4epu6NAVGMu0UTNEq1+ZkRtpJmnS6A7WM8iTZFnTS2jjsGiRqgDluj+IG4WoEgCbtK19loQcZaFrQNBHHBsRp2fTRpwVVCsdZhdpAB3IjSpzVdoADeQVgxFxBy1mE66ONN0SQ8eubMa2T5KxQ9V94qp4gmcr1ZN81brwaUZORtPCsaYbRdyqtBWtx80jQWDQ1hLckZCUuzFoG7TNXDzyIBp3JiIw1DbUNtS2FgJDbUNta8XaxAXgFZsNtQ21DbWthUBLbTs5lEA7VdgN6matsI/lNny1YCubin7DcMYecVdYlZ7dEGpjd91cYaHgc3foeQZt2gJSfk9vxu+f0AzPN/T2AsdENSR5IPfrFDo00x+2mGlf9PwibjffX1+eT/ghiW7EsEG5ZyoxXuCXYegozWX4lR+iDZUm7170zdycx0rX2wptGi9acpv7gosfm0tmq1xjLHgWt6eVKmejRS8yuJXOrx+TPV/XqhoiRRzLPXNl+O6KCxE/Nje39BMrRIylrVzRVZ+Lwy2/WaGNZgv4/GY/qtukpMkammQJ9Cs9KwTsWBD9w014a0mnZj2VvHLPYcr31/z2jGt9dcZR00ZKRyoI5zgYI1Rw+ohMVJt2mIzI6uEVJbgRKzW/bi9urq5j1O+GtkrPMZ4ebs6vb642v+TVGZY2uk7rgsbnPkrzlFdWGzmBw1K4WPyCi2m0WU1H+HQmDhR8K+wiAaj9wjxZ6RlpQAIr5iGHUsoZp9Ds5kLHMtbLtFHvwBFOB1CQwTDDCX5Mos1BwBEjGZi/ios8DYfztTK08Cd3Fl5UesYTtYRF5I8cM3nIDpr6nOFujRdcN2ljn7zTC15wMYU2RAOmJ4gU5l8Bd8Hk0yaVnj0CYdWnZ2xxMumn4DPmlVgu/lilDSGcAIpEAS22Bs4eR0VAaatcu9S2lJavHyUNSCdwVdSw9CKbFPf8v+zhq6k2motfYiqKFP8XXFRpW9DXaLIaAoO2pdLcdd6bRfmgbdB20ACcFa2nbjzUNtQ21LYWAkNtQ21rxdqpr0zb+z/UNtQ21LYWAkNtr05t2ELFPmQIJey3TtkJ5E1V3qCbVsII9m7rUjc2T+csidmWdHPZnRZbauN6rilzC228N9qvcumpkIkFQ65jaSs3NEVJ/PtVCqPjPkuCaj7xJ9G2S1lXaNMY183suWdJ7PMSgd4VXNyAj0VI25yuFQIyONqzJMlMfbVyZ8xVaCNhAT5fzoDIkoJOx6FkMiklrGPMsNKzp41+S4KLOMd2loRmaio1ycfixBfc7NOWDAza/ILXztqc63tZXjtMRuRZmTRLvd3c068WHeVZEg2v+EoNy+IChopNyrTpo4RW/EpFy/xdEAX+qLrdP6JjNR2JUQWTP5Jj8a2wi0hS++JU+zcrPSMNSGDFPORQEvfs+4Iu7u43OGBZQGa5w2XaaIbAEU6HMZDBMMMeFsTZlHBzEJz+WRKBBU/jyxmSruxFk7Ztz5JM5ewJv9MmnhGLGB0PkJg5/gcixiI7ubPwotJzBn2UnThZG65rUGvYvV+lDVhAXlHjSBTQYmMA6kFzLD2RVpe3XLune5aEHuXi43d/aViaOau0NfgYXx0cgUEbcu/SwD8IhYO2QdtJBexBVLKrQYfahtqG2tZCYKhtqG2tWNvVCnG6/Qy1DbUNta2FwFDbq1MbtlCxDxlCCfut2LSsT5t2GlEcN3WNxooS6gBu61Lr7FLd59qbdMgGrslWIe8nG7vSbUb73vLgLfZdzd+74uX1U0ofDTQaX7XUtu1ZEgPftL1wrmMd8iyJ/qWoh8xwybEYosROivfNI3N0fXF3iyKG76oe5QaubpMKbRrjkAuVOr/TT4iIgOKFj7LK2H1paoUPhyGSrgivIDgy2M9Zkgm08QZ/Tpu+lwSv27GkdmmYa1ChjSADfL5Gg1JyUtBpB9EkY9RjK8aetv2cJZlAGwV0TNeeGEqkNlf7b9v4zP62T1siFNBm8kYiC/tRVCtLkf3WXWuHyYgcibyehaM1xN9+zpKQP+qGUYBd2zS7WGLo2s/Rfmu6ms1QsW2ZNhoyT4ac1pP7UyuBxJ9OuOCK1XQkRmfoQMG3wi4iSe0L/bsQaVjWaJP8rJJyKHnO4u9QmCNcW7hU8LZMG40BHJG7QmNkMGA32ZsiHOqQg4AjRhIOf2Uox6OsDC38yZ0tLop+6k0aCwyRY3Vi2t9u4SGB1qQNpzkEQT70wXGXYdf2w862ZIlogCZkzilne32dTCtJxvVMHz3SV6VpCIYJyhRK802N59pUaUMIJ4Ai7qDF1niysH1M837aKtduSKp036frvb6XJNJmR5TcKLSFnwEk9VeIsQshd1VXZIoDorZ7v0pbt+UwOCACg7Zt89VByBu0Ddomp+aDROhrGnSobahtqG0tBIbahtrWirXXtEotm8tQ21DbUNtaCLTUtu2hBMyB9xV147yRFgqWukMm20tcxMF+Lm15+0JXo//uV3a/irb3UFrDVp+TZsWY3Yt7cuKza9h1o2vQpk125PwGPG+yTS2X0O7lzdWk33o4/KEEZYK2QxX0Dm3eWEEPO6sIX72/9Z0KbRrjuq+66FBCqPkm+9GV0Ivb06iqJ3NTaPZ4KAG0pQ43aUuNlR7y2UR8MqMtPlZoox4Bn9/sh8jqvhpvaijoxLwxF10rPXva9nQoITiMOWp4NWjLjWV2xVby7TYXfdqSseElKjgG99QPjbUKE66tdpiMyN1SD7EmGbvdwwsuQi2mVGYqucSFm5JxqMnxMQBNsyk4bu4aHxPNyrRR0CWFruJb+VtvrrBU2euKi1bTync0Jn/kGQTfCpSIpErPcwAKavMFfepWxrKw1oyNTXouyHy1lbdl2qh34OjnAAKAXdUPMsi4F+gzKPNAkZI6f2VWiKywXsS06lg2tLUMTNgSdvi2OETNOOlw6nGbpmO2z9UOJYDsqmepARAJichwtudDCTKuecVXR20EKMVoKR/W7ldxmCrBqtoQXwmgWIGgxSQKKh+TTjLncu2GR+dcsns+lKC04WU+QfSEhk0eOGUjR4CCARvbQwklLrfmrKm2XfReYTGjbYw1E4Gq2gbix4zAoO0kpT9oG7TNTNDHnIWO3LehtqG2oba1EBhqG2pbK9aOfOFZwb2htqG2oba1EGipbeuzJHZ3zlRe6nOjLcH8YEgoteufG9EOp/nbVGyThm5TY+8D7ytKbSHLZtyzlCm4q6uH8JdRvppBNjU33IjJ9j9PMNuoTH3uJ4A2bWEAlLkDLngTwIQql29YZwvwsb17wQVNgKPHdkV4nV9cAn1HW2YcIaCtXuGj6gl1Vf8ZFuIDg76E13KX3DD+8FY4mnDzTaFWUPMZsBRYrNAW+Ld73ktecGGxLoyduhWrCkmriAKkH/G62tydRxoMTPiDeWM8l7bGqzMKtJXcSPyJTMeXvBRKOfkE+1hVaKN4BHy+RgORUcgjjmrDoIdqdLuGqMf6njE6Ckmg7eHFvO0GaadgPJu2+imVEm0FNwxtFP3wLYCQ01b3OQ1rA2OfNoMXQQDajHOmOz8SzRNlKu99oYl2aEcEl6EUGeql4DWmU21YMp5DG2HaeHVGmTY6BkDrrrhhZ+0LvKWCasNnD6YL8TJt4dEAiAfoF/9YCo+Xx13CHIKOfI3wJW8JAVv6Ww90Cuje4SXBIcYLaNOTI4jR0EmFNv61nZIbiT13kqpNyNYs0mBLvirTRl8DRw0HAhpwKLIRF+mxcmH9KzTJA4UycL7EUlzDhyj9u6uQiMrGcaxJjySdUyoJDRU3NIyY/uQ5KKGt6XMFSZpRkzaU3s0a9uv2giM6m2FjjPhulWQCTm0KQeiHWLx+tNmS7tMkQxKTZfXx6uIynOOoGK9BG2VIuGGyZcgW4ip74mlr+9yAtEobekwAhWigxUbXTiv6v66Io2uYa5cY+m92BD3Eu3MJ/xNyN7lzJw6aTitu2KtsUgAh+Ow6tKKPcRmfPgARxyX1wAeT+UJW+k/8qNLx2UHkoryhNm/X6GJ8tT4CVbWt78oYcToCg7ZS0j76TDNoG7QdfZBOz0JHbjnUNtQ21LYWAkNtQ21rxdqRLzwruDfUNtQ21LYWAi21oUbsNtmoqsKbe36/rhqzuhfX3RLEn06bnWvuNmyT664mbeW9krMktBmrG5XJwZNGsm3TFspXvkg94ywJ/y3oBLbgHw/0W50lsQUBe91TbYW2vA604CwJdAlWqoqMBnED3kcJyleQPmp+r+MsiaMqLwhUEavQRmwDPl/OQMG3PwZn0Tv5WZxuBkA91veM0U1Ojgav4SyJpY2us0MMFdn1aTN4EfmgzS94pd5RCeOQIZ98wTBtoh3aEcGlPakAXtNDHJSTY3BkEFCf3XQdW9XeeFKpt6VukBnOc2Q00BByciJMSozb+DjllWnLjwjQIwBDD4fiYA0NKYjMUPIxzZxQFd1X0JVLU5YEbdVDHEikDzrVObSteJbEsUh8N/C0iJVpIwvg6OEGZIqsQmP7zV/B4vtJW+WB8lucJXG0abgkSOYfm7RteZbE+mSv0/RYEAex+BucJfEvNEmScBrZlrwqbVhgIK+INbIWtGj7KlzrE6lJ6DltuXZ/i7Mk6do2MUM2T27l4I47R4NAVW0F6RyN08O3QVtrCTna+Bi0DdpGFl0LgaG2oba1Yu1ol5zVHPs/+R6Nevc1tiMAAAAASUVORK5CYII=;" parent="1" vertex="1">
          <mxGeometry x="1314.56" y="512.48" width="73" height="101" as="geometry" />
        </mxCell>
        <mxCell id="cHKp6VJRD1__R06fUMZX-13" value="weighted_network$lr_sig" style="swimlane;whiteSpace=wrap;html=1;" parent="1" vertex="1">
          <mxGeometry x="2344.25" y="355.97" width="180.5" height="79.02" as="geometry">
            <mxRectangle x="253" y="-100" width="140" height="30" as="alternateBounds" />
          </mxGeometry>
        </mxCell>
        <mxCell id="cHKp6VJRD1__R06fUMZX-14" value="&lt;div&gt;Interactions and their weights in the ligand-receptor + signaling network&lt;/div&gt;" style="text;html=1;align=left;verticalAlign=middle;whiteSpace=wrap;rounded=0;" parent="cHKp6VJRD1__R06fUMZX-13" vertex="1">
          <mxGeometry x="3.0900000000000003" y="25.98" width="153.81" height="49.02" as="geometry" />
        </mxCell>
        <mxCell id="cHKp6VJRD1__R06fUMZX-15" value="weighted_network$gr" style="swimlane;whiteSpace=wrap;html=1;" parent="1" vertex="1">
          <mxGeometry x="2344.25" y="475.97" width="160" height="80" as="geometry">
            <mxRectangle x="253" y="-100" width="140" height="30" as="alternateBounds" />
          </mxGeometry>
        </mxCell>
        <mxCell id="cHKp6VJRD1__R06fUMZX-16" value="&lt;div&gt;Interactions and their weights in the gene regulatory network&lt;/div&gt;" style="text;html=1;align=left;verticalAlign=middle;whiteSpace=wrap;rounded=0;" parent="cHKp6VJRD1__R06fUMZX-15" vertex="1">
          <mxGeometry x="6.1899999999999995" y="27" width="124.41" height="50" as="geometry" />
        </mxCell>
        <mxCell id="cHKp6VJRD1__R06fUMZX-25" value="sign_network" style="swimlane;whiteSpace=wrap;html=1;" parent="1" vertex="1">
          <mxGeometry x="2085.5" y="235.95000000000005" width="170.5" height="79.02" as="geometry">
            <mxRectangle x="253" y="-100" width="140" height="30" as="alternateBounds" />
          </mxGeometry>
        </mxCell>
        <mxCell id="cHKp6VJRD1__R06fUMZX-26" value="&lt;div&gt;Interactions and their weights in the ligand-receptor + signaling network&lt;/div&gt;" style="text;html=1;align=left;verticalAlign=middle;whiteSpace=wrap;rounded=0;" parent="cHKp6VJRD1__R06fUMZX-25" vertex="1">
          <mxGeometry x="3.0900000000000003" y="25.98" width="153.81" height="49.02" as="geometry" />
        </mxCell>
        <mxCell id="cHKp6VJRD1__R06fUMZX-28" style="edgeStyle=entityRelationEdgeStyle;rounded=0;orthogonalLoop=1;jettySize=auto;html=1;startArrow=none;endArrow=none;segment=10;curved=0;sourcePerimeterSpacing=0;targetPerimeterSpacing=0;entryX=0;entryY=0.5;entryDx=0;entryDy=0;strokeColor=none;" parent="1" source="cHKp6VJRD1__R06fUMZX-27" target="cHKp6VJRD1__R06fUMZX-8" edge="1">
          <mxGeometry relative="1" as="geometry" />
        </mxCell>
        <mxCell id="cHKp6VJRD1__R06fUMZX-27" value="lr_network" style="ellipse;whiteSpace=wrap;html=1;align=center;newEdgeStyle={&quot;edgeStyle&quot;:&quot;entityRelationEdgeStyle&quot;,&quot;startArrow&quot;:&quot;none&quot;,&quot;endArrow&quot;:&quot;none&quot;,&quot;segment&quot;:10,&quot;curved&quot;:1,&quot;sourcePerimeterSpacing&quot;:0,&quot;targetPerimeterSpacing&quot;:0};treeFolding=1;treeMoving=1;fontStyle=1;fillColor=#D4D4D4;strokeColor=#666666;fontColor=#333333;shadow=0;noLabel=0;expand=1;editable=1;movable=1;resizable=0;rotatable=1;deletable=1;locked=0;connectable=1;" parent="1" vertex="1">
          <mxGeometry x="1916.75" y="355.97" width="100" height="40" as="geometry" />
        </mxCell>
        <mxCell id="cHKp6VJRD1__R06fUMZX-30" value="mechanism == 0" style="text;whiteSpace=wrap;align=center;" parent="1" vertex="1">
          <mxGeometry x="2178.75" y="195.95000000000005" width="102.88" height="21.48" as="geometry" />
        </mxCell>
        <mxCell id="cHKp6VJRD1__R06fUMZX-31" value="mechanism == 1" style="text;whiteSpace=wrap;align=center;" parent="1" vertex="1">
          <mxGeometry x="2310.25" y="195.95000000000005" width="102.5" height="29.02" as="geometry" />
        </mxCell>
        <mxCell id="cHKp6VJRD1__R06fUMZX-33" value="gr_network" style="swimlane;whiteSpace=wrap;html=1;" parent="1" vertex="1">
          <mxGeometry x="2334.75" y="235.95000000000005" width="100" height="70" as="geometry">
            <mxRectangle x="253" y="-100" width="140" height="30" as="alternateBounds" />
          </mxGeometry>
        </mxCell>
        <mxCell id="cHKp6VJRD1__R06fUMZX-34" value="&lt;div&gt;Gene regulatory network&lt;/div&gt;" style="text;html=1;align=left;verticalAlign=middle;whiteSpace=wrap;rounded=0;" parent="cHKp6VJRD1__R06fUMZX-33" vertex="1">
          <mxGeometry x="3" y="24.48" width="97" height="43" as="geometry" />
        </mxCell>
        <mxCell id="cHKp6VJRD1__R06fUMZX-37" style="edgeStyle=orthogonalEdgeStyle;rounded=0;orthogonalLoop=1;jettySize=auto;html=1;" parent="1" edge="1">
          <mxGeometry relative="1" as="geometry">
            <mxPoint x="2374.75" y="314.97" as="sourcePoint" />
            <mxPoint x="2170.75" y="364.97" as="targetPoint" />
            <Array as="points">
              <mxPoint x="2374.75" y="334.97" />
              <mxPoint x="2170.75" y="334.97" />
            </Array>
          </mxGeometry>
        </mxCell>
        <mxCell id="cHKp6VJRD1__R06fUMZX-38" style="edgeStyle=orthogonalEdgeStyle;rounded=0;orthogonalLoop=1;jettySize=auto;html=1;exitX=0.5;exitY=1;exitDx=0;exitDy=0;entryX=1;entryY=0.5;entryDx=0;entryDy=0;" parent="1" source="cHKp6VJRD1__R06fUMZX-2" target="cHKp6VJRD1__R06fUMZX-25" edge="1">
          <mxGeometry relative="1" as="geometry">
            <mxPoint x="2065.73" y="224.97000000000003" as="sourcePoint" />
            <mxPoint x="2170.75" y="234.97000000000003" as="targetPoint" />
          </mxGeometry>
        </mxCell>
        <mxCell id="cHKp6VJRD1__R06fUMZX-39" style="edgeStyle=orthogonalEdgeStyle;rounded=0;orthogonalLoop=1;jettySize=auto;html=1;entryX=0;entryY=0.5;entryDx=0;entryDy=0;exitX=0.5;exitY=1;exitDx=0;exitDy=0;" parent="1" source="cHKp6VJRD1__R06fUMZX-2" target="cHKp6VJRD1__R06fUMZX-33" edge="1">
          <mxGeometry relative="1" as="geometry">
            <mxPoint x="2224.75" y="154.97000000000003" as="sourcePoint" />
            <mxPoint x="2180.75" y="244.97000000000003" as="targetPoint" />
          </mxGeometry>
        </mxCell>
        <mxCell id="cHKp6VJRD1__R06fUMZX-40" style="edgeStyle=orthogonalEdgeStyle;rounded=0;orthogonalLoop=1;jettySize=auto;html=1;exitX=0.5;exitY=1;exitDx=0;exitDy=0;" parent="1" source="cHKp6VJRD1__R06fUMZX-25" edge="1">
          <mxGeometry relative="1" as="geometry">
            <mxPoint x="2180.75" y="331.97" as="sourcePoint" />
            <mxPoint x="2170.75" y="364.97" as="targetPoint" />
          </mxGeometry>
        </mxCell>
        <mxCell id="cHKp6VJRD1__R06fUMZX-42" style="edgeStyle=orthogonalEdgeStyle;rounded=0;orthogonalLoop=1;jettySize=auto;html=1;exitX=0.5;exitY=1;exitDx=0;exitDy=0;entryX=0;entryY=0.5;entryDx=0;entryDy=0;" parent="1" source="cHKp6VJRD1__R06fUMZX-27" target="cHKp6VJRD1__R06fUMZX-8" edge="1">
          <mxGeometry relative="1" as="geometry">
            <mxPoint x="2180.75" y="324.97" as="sourcePoint" />
            <mxPoint x="2180.75" y="374.97" as="targetPoint" />
          </mxGeometry>
        </mxCell>
        <mxCell id="cHKp6VJRD1__R06fUMZX-12" value="" style="shape=image;verticalLabelPosition=bottom;labelBackgroundColor=default;verticalAlign=top;aspect=fixed;imageAspect=0;image=data:image/png,iVBORw0KGgoAAAANSUhEUgAAAlAAAACQCAIAAABI98KPAAAgAElEQVR4Ae19vY4cSZLmDjDKvsCop60ywKg7L7AvMNL0KCu03AAlAqcUMFIvUHVKCQeMsIND1UpbN9oqBUrUGr04EAOK1ClQ6Vc42P9n7uYRmWQWmVVpQKMRGWlhbvbZZ2bunkWPf/j46Zf+rxFoBBqBRqARePEI/MOL97AdbAQagUagEWgEPn76pRteL3AbgUagEWgELgKBbngXEeae3DUCjUAj0Ah0w+uG1wg0Ao1AI3ARCOw0vJ/+/Ltf/fof6b8//m2YHchXf/iPJ4Pp5x//6dd/uu+/qakQOAJ8gpEj+Ot/fMJgVUYOhDn8Y7Dutz/+dFLNh9twyZLv7q+++/6H6zdPltpfJaaPNz989z399+r+wxBN/urq7v2TOfjm9rvXD+8+z833D6++/+G7m7eDzU/xUQJNKH2V4Z7ChWN17jQ8UUcF6Dwb3n/86VdftSb+/eq3T9Q2jtN8ZMMr5w0//evvb3/z3eN/76Xlf//lr7/5/a3/96//tVsmTqT5wOC+f3jFxYWydzdvv6QS7QFV5d6Hu9fPr3O8jIYn4Xi86Ya3k7AHJc7nkH9n3CpfnvyRz294T27uISu8A2viyaJ1XFs6BqIn01zC+F//+Zvf/+e//eWvBza8f/7LOEdeunZCzQcG9/3DK+5z7+6v5rn8aGc3vJPlwpPXpjF2n2V52fBOonlLydem2RfFohveCN+0wvvbH3SX7HdXP6Ow35c9NPv2P/6k+6Kxq/b3q9/+7upnl4clCAj/amNLE3bqTLkrcbWwEyvV05/yBavfUY9USeyqmQ33f9SNQRvuH//pz39fkf6nP//un/78I6P0p3vxyEYEzYrPSvP9H2kIl7cNSffO4P30y0f2wu1hhYYGfWXXWjJ++lde2NHSbVrh/f1//cv/+R//8vj/Iqz//Ze/HtzwTqp5v+HR+km2reD/t49lZZSdIt7jMmGXfHvt932NKDXLn/L7fkcfUSWyKmLNese31Gy4YqmR+HOw5o+f3l5/f/vo8rB7NptBQ7y5PdQG0iyQ4o7fh7vXV3fv/SvHLUiCjkiPcUt8a9Tv+H7p1I1gQXyEzbUZYtI4hIP2ffYi7ov7c1gdkEPA/wG2NB03vFnb7JzBqZvM5PwrxxMxT9cVdDP4/gh95fQWtgSj3l5/z46/uf3u5oHT7eruDW+6igzdf+vKwWzMzQx1mZ5f6+aXrPD+9odfQ8399AvVWSnrXH+jQFut/0ilX4ovLWh+pY/TtRZretB0FpV6YklVE+//6PWdeoOaoX2Uv4pRYGgSsKHDzl+o38Su6aHrMO5Sv7v6md387Y8/uS8///gHa5O7mrURMnpZ+JePn0bwGVu2H4wnTvvQE6WeoOFpgE6juQquZ6lf2MIOauXkqQtT6Y9kVmsfbzwhqTZpQdGqwV9RNZR6R6NoVpOAFUG6hhIZQxxmFRl8lGapoTLiYPNshtWsDVjGr4ZHyDZzFuwcn3I8uWfYslsBB4i4ARN0Y6llEBj/wYAp8RdDR6BNYGx4cp8CqkDxI+AUhvX9w7X9/kemalj3wUea1QaYebPBHz/9Mjwi7URYB2YsMEH7fZQKfB96jELKEQsEaaDU4L57+0gTI2uE/hMgjDLqdEu+9cUJGx50l0/QSJKHXqZT56BqzmVd1jQaiXWl9lBRlY9uVDAgFGI/Y/OoEUbnkxai3fH+j9YmyXi3+ZeP/mByqhjXPDI3S1/STZMEzdTw3LskPFilBvCgP46/Mo4PhrVlWwpszRIS89/w/udPs8B85zSa94Ir41rDsww0s2er6E5K5oDChaPWpMJBBZEKcXS+X3iZpd3x8cbaJI2OltiD21Z9OlYzDhH1cWEGFWiYehdeu/t2kfRLM/aFxW4to5roLV9bC3QUhkJx5vUBlHgf9zNsrv2KgGIIhoa3CKuhwZrjETeS7pv+HGigWUIDbVhfm071KAEeZpT+jjizC+PNLf1jjpiz5pE9O97ngezmJ57KpClFae03uHnChkclG1Z4tlqSlZ/9oaCtolJ9t/ZAa0Tfl9tYmgQRy5pIvS22H1VhKUnNzEaMhRE7AhrM5pM0vEG5L0YTIOJgQmNMD2zDzhtW7utpeeSLG16g/enDv313+5sDet6BDW9Hcx0yd1aaxLiluVPZLW9h6LTjF3/UV0ryjh+s8GSVQAXF9wz5wlZ+sWQBs8dQyldQ4mOmvNIclWWoubUZVCXTTl1yv7An6f+MhjdFgRzxlhk26x8cvb2+ub2mFSHvFoo9R9tcI2wFOn87to0SfF12A6S+pPb47jc8QU+UIAIbIRhsPqbhkSPTKAvwLe5J/4kanoRYvJ7IkGNhZmwAcsKvTtjweEvT+oT3LWpm8RuSl+lU30/Z8Ki+x/osekZdPVP7sT3YZFvGeuOrFEXzyOSt66wXbSYJ4Q/j4abZ40jGuCz/t9gflqdsaHsw5I9vS7/QI0/S8CrNdcjCfvbIknksYYOYfZzbGBdWrxFRa2ZJwjN1IHvKbCjCtPGVmaRPHaU5NSSzeX8sKm0HzbuT/lM1PCh8ZCp/5A735vbV/QfaWLY/uEWuHmzzgKd+NHDytyNbSvB5+25cqg4r+EMang2dmYY+DteDzakhjZabcmCR0dK/crTlzvBx2lhOzDcm2E2zbbzPLtjNlAgwmUj33byvenG6hrcorFT6bV+Of5SSlV+q79Ye8Acz+dMMXwAtQKFBYylJoOMdXuptrfAWJZXsiSadhiYXhiVUFUXzyNw0cOBx+gpHga90xOManq9QEYFT/IYX2fj3x3/+/S3+swQOaEwvXLJspfOfw7j8x0kzfbWITjxFyMvfU/Bqz2tTFRF9iupFTM/pJt7hHyq0LluGp+HKm5sbOLSjhX8RsLLtOM2pslgNOmAfKdaOidXJR7Iw6T9Fw8u2hRnU8O7ub+X3vOsb+guI0ZgQZpu5bcSW6QpPu+/gJLVD21iAD7GTjrixwuPuKMYvLSyXX0UgBpuPaXgZZwMhTRoGPIW9CHsIiNf2Wx3nl9lmDEnQ2U0blzEf+2sKRJIsoDi58HbDk6Ic24Na6/Oeoe/4Sfnz7URb5EnrIiX8h4tbDU9+JGMN8jecew3vE/dIXVaqcJjx2x+vfI+0rp6jg7bIQ7XwQxqFB93Z+itNxmpseNyPFc8//Hn4+8lRc93wSvD5phvPCNg8wHotUId3Jv1nufyv8aa2hMJ//be/Z1LyuBZoaj+053kSzYc2PMuxlHjZyJxUnPxpf4/qmuz4vX6483+2VSuUEmDysH0EauEXLBqaytwBeztHaTav2TWrQeR1YQbVLzc4N/uMDDEkCac/VPF1Aw2B9XFSgvYA69A2N4O9lpkK94mYbSxtFqDwT07KcAfsCH7Ch4aoN6XVWWldbMn1vf+dywp8HxGXqn6TQgBr3CNtdsCHVj2BP3DARwTHM/iBc8zMPCOu35izlg4W3PE+B9pu5o2QbbYgQ77C9XbDK6OyuDkU1mGdUQXmK7i3M8TQBal877fYHZ3n5ukQl9OaR8qLFd5pIBqic1rLP0+bpb06GHPhRVIcPsrTaT7chmciSeX4kNX84e40+Idj9cwlT9fwcrfY2BU8TTU8Be5kpG23fpQ/roGP52PnF1nyVA1PF8e+rPwiI8tonl/Do2kylNoTVt6n03z6uJTB+jo3ZQEKITiJdw3+SWB8FkpO1/DGv8Y80VKJ1xC+TeoXsI32JZPrvKV5fLeL7VP7ax228ES+n6SIAIBP2JxOYqop4dkSb/weH5Enzrq88XjKyvt0mr8kQS7k2Qb/QgLd78OzIvvEhfJS+NQwNgKNQCNwtgiccoV3tk62YY1AI9AINAKNQDe8Xns1Ao1AI9AIXAQC3fAuIsw9s2sEGoFGoBHohtcNrxFoBBqBRuAiEOiGdxFh7pldI9AINAKNQDe8bniNQCPQCDQCF4FAN7yLCHPP7BqBRqARaAT2G569ZMvPSeMOYeea0yEFfs5b/5u2l4pAdR6uH7gXh4/gcYj8qjA7q/CZzirk3yP72YPmhZz3EbQXMT/dMWfKKJwOV5RjHv2YyudYj4QG4EJ2MFDK75rA+yNEijNrnsB/qSlmfk14MhoCEZ17aYDAOZ/MIqefsdQUPg9S1RwILtmhoPmIgDjMFu4jtSYQDml4AjG8qkrOmGe99vrN54nyBMfzIMdXN5uj/PbutSWbnDKsxGKqyTWdSXj1Su+/vX59ld8r/dxIwrO6x/srSza1n6eAmA6EwKvXV1b0U8ObhFXJcJzVsyWevt8HZr1UpACKdB1ib25Nht4zwIcUY8lmJXReM1Duq9P+WwRlxlMO3XYcPtzdPLzTt3wgYs8tuXI0Cw7k2fM7fqXG8OIODxC0IWLOkLAu9vHT9kkrMa3w09Z/eHX/8/S6Sz90/HmDjrj0NSBABf36DSVeyaSo3fQC64e715yHVNFS6QeFz4MnunthmxlmvzrFKSqOMD73D6/0pDH0ehZW3wO0nPk2yvOAyN4gj+0fG56/Lo6rdn0SWwHR4w3Xdyp5XuifCSBfGE09xnqJZ9CDwHkxDa/kQLy9Ibw+4I3KtETWOXfBmd0VnkGfDxS32qelEAwqxuhvnzcCnlqZA+5U1G5qeG/f3dNah97nOb5W7Xlxw7mNDYxfoMOFW9shFTiV1DKNXhtiIKwgBGhfWCK/6eP2shjHSl+HZKs3h44EytmStUzuiEOduryGV+BJq46qsXlWflMCeBH4oosiTdK0CZQj0+p6cpqGN2SsNTwndD02GNoCzxUBCH0Vbko83bZSyfcPr25ur6l4VfLPJT+hoFgZogjGdQhYEnK/R68rYaXBi2h4Ed9MEtwQ+sBFYNnwNiBK7+Z9LrT5IjsrPLcaXuAcv6N/kQHfpkZVHNhqeFvvdyS4tnYFtlZ48vMpaOetSy5w+eZi7vYMoe8OPSFg1ZyjGdTU4KYdc6t6/oi9jvwZMsF84RJgM1BsZr6wyxe4ro36BTIvqOEFLPLieFmIYKkiJvD+0qrhbUF0cQ2vxHOr4VUrv+eXayUHkEXYhr224E27hsn3VMdUZqvh0TMWg1zpbNSY5NqQzw/utnwTgXl+E7/EEClxu9zW/a7QePL8WEGW51kdTxup+uT7tJANNxmBh2uZY9bCCs4LWOHNE2LeycylCgpIsQrZhOjSGl6N56qIv5jaW3OAE3DY4qYyErk2tjQGqt42h/pzQMPjUeEnehnVflWO8udlri9eEAJWsJRexCrZMRi73cdP81+1rNkJFByJexZf4axT0+zV/Ye07JPpIP2+gm7K36YSRAvhF9Pw0Gtyyn47wYZHMlqDhnrEf6W5DdGFNbwVngxs/Iz30v5Kc8kBboT2Y/Av23+lyVQxpm0WkJ2GZ9YMwbByMFTDzZHOsq69oM70NODnlX0u/Xmtw3+oMnBuoM3zQXsiNiXC67v/zX+tCkyW4p7c5Hn61d37dJMfwU6w8VeLzwSleYVBFUp2dGERjJN07nm6RM4rY4NUISK0E7tkjvVMkPm8TFziSV7D4s+gQDAJq2e6vbmZJrD4s6UbySM3pCMCPvKtoTTFYqfhGRFfNNUmUNrrRqARaAQagZeHQDe87uWNQCPQCDQCF4FAN7yLCPPLm6m1R41AI9AIHItAN7xueI1AI9AINAIXgUA3vIsI87HzoJZvBBqBRuDlIdANrxteI9AINAKNwEUg0A3vIsL88mZq7VEj0Ag0Asci0A2vG14j0Ag0Ao3ARSDQDe8iwnzsPKjlG4FGoBF4eQh0w+uG1wg0Ao1AI3ARCHTDW4aZzzd6pgf2LJ16eVO29qgRaAQagQMR2G94dmy0nZ8pB3HZa6DtsM2dCitnnflJoJvG0Xl6cOCeaZZz1eJoPj5UzY+u9pNG/YLszDLyMb0tCU9mG49fmxoeCpOFe+6EI3YQnPlSHGZWCsOI4Ti/wkIhQpvPW7hw2QIkvqCDtXAJER9KqWjg7OQ5Cpf0WIS1hmghHGcSniFhjopUCdGKA0cJH2XGlws/XaRqr+m9N0XROEr46Wz+cjwP5cAhDU+SxF59LplGL/l8Wx2QXyLIz+rrMUsBu8knokZ74CPVpTty30UbqAG/eq017vHm6hUf7EvvZ3l9FQe0v7565U2Rm/TjvX07lAwiBFbM+XhfivdekzNHuLmGGTvdkTTPwjRL0DZAhAABLVvYks9aeIDaPtY227d5VlRDxGnsHPjBXkDzHIWdOeniGIj8fQX62vHnQJijIpWQCXpA5hJcnu8lkWrho8w4gXAdVqp+X5raAQu6v9B8lPCT2XwCPBd1oCDMZsOLSYEtuajs/jycV80Th9QqRhz17HlsV4Up8IaR+VtdX9pyU1L69u7+ijvQ2+ubt3Kuv76QjElPb5R48/DK2pguRm1tOhpJnNj0Ir0FZrYw34G82vSLnyqFgaMysZBMBtppXSMEzlt4hFpScWFzLVxChLOKTwDCcxTG8uTXR0G0ED5rwhwVKYclXUC5RA4kGc/NhfBRZny58NNFqvYaZ0JQNI4SfjqbvxzPVR2oHNxsePSAdan8whR71ScRaHfRY6+Y2RWmdUytzUaHHVQ2TBaavBCEhvfh8Ybfz3Lz8I7iJG3MR897swYKaPb0GC5cw3C/+Ija6Pr7rYlnLWwuUwMgTsgbQNAGuv5OVn5nLVzgo075ZDwcrIVriIicvkenuyLXb3hpbhukAP5ZCy/b/MEQEUkK4bMmzFFhrSFacOAo4aPMOIHw00XKqll2f8GBo4SfzOYT4HkMBw5teGgW7GRiEalLFbdMWKdbJcohkWej4dG0lHecpf9Zy5RZPDcw7WQf7l7fXt/QHZFRyTe3r25ur+8/8NIH5Wmg0KYdXcby0rlyRBuMGPZdlNpCXuGSOv4a++7BwsIwclNanUCt3BV84pWkZy1cuEzRr22uhRd4Bibyk6pE9jkKV+lwHEQLPM+aMEdFqoZIi53mZvVSRmTUeRCmZv4pIrXZw8aicZTwk9l8FAeOEi4Js9XwvOtYiefKqyU4Njl1kVHDZ0kr38Z6S1qXK5FFWDQ8tlUZgC0zXvFuqhQCe922NTPvxLpCdTHSLMEbDR5GxzyRa7dn/mq8Q8Phqq4eUZ+qhYdFj/qria0/z3jzPmvhERwlYm1zLVxDRMWOKGS7Ahqg5yhcJicRVac7DItx/hjhsybMUZGqvV5w4Cjho8w4gXAd1lNEaqxpkk0LzUcJP5nNJ8DzGA5sNTwijVVqaySBIFWZ7QxkQOeuaeVpLm0cmFgC0kcSVqy9O/Kfckw/xRFw/Ete1p/mdNC5i/Vc9rE2LyufZewO2SxdnO6IbYskFAcnYcIWjIRA2F+y6F85kknnLVw7vrC5Fq7xJIZ474+J0XMULqvPURAthCkB55w6E+GjIlVCNPx+ows+S8PxkfMgzNOBP/qrONQcOEr46Ww+igNHCVcOHtDwOFvgr0WkznItnrrOVK2sadnYGfqJl+RPNWGPjLX2MA292fB8wScjDrznm0NEzWDwaPQFvpockUmHmj2sHUlP3hHllcoozGL6qwwYjBBF+M9buADT/k3C7CAJHwiR/C2yTguIAKqtxPPMhWcKGQ41RPyXCJEsa+GzJsxRkSohWoWVhdl36Pcr4aPM+HLhp8vWGiJZM+hkPYoGC1Pdy39h8LUJ8+V4rsJaoLHT8GxpQhGCxY31D1t2LEs/oRlrFxIb4J5LoQSAt6q4+Q1D218Z/Tv8RM9K2NT/ynaK8NXd/62EqY4w1joWLKdmq6IKx0ITACmQ5QWHCmfJuZqrU7IABWGRJCWwjsElL2J73sJ7kCYHi4a3gki4zjhrY5BYRGQBzzMXLlm0CCvvZsPsUJ5dCEvdx93RzOcE/tcWPipSJUSrsFqm4HRZtlsk5b8lYZ4uUjVEsE+GRcN+WkpQGG5fjzBHceAo4RGNnYa37GR1/Rq19+ONQCPQCDQCjcCZINANr5t0I9AINAKNwEUg0A3vIsJ8JtOrNqMRaAQagW+IQDe8bniNQCPQCDQCF4FAN7yLCPM3nFL10I1AI9AInAkC3fC64TUCjUAj0AhcBALd8C4izGcyvWozGoFGoBH4hgh0w+uG1wg0Ao1AI3ARCHTDu4gwf8MpVQ/dCDQCjcCZINANrxteI9AINAKNwEUg0A3vIsJ8JtOrNqMRaAQagW+IwH7Ds2Oj7fxMOVTMzm62wzZ32oa8MwFPNWSf+VQ0OMaNtOnJlsPxynpUbnpbyrkfbxZnvqWzCmuzS+E4cA8PwNXXL6SDg9NRk/CihlBL0AXUlWY8xTQkk2Z0RGKa1drRfBzEKdwzSSozanyWZgBnqkMC8zmK+vZ5fA2F8/l7fKsAmVprLlACL5S9cC6ryGczAroxiF8IEViCI8bxmGAYOT4moFeiMWHBawxrOAKEAdzojNOQn82IO3rqLPMcvJjxrOgBI2YOHCEcmQIkB0sQT0AjcgpvIpfgfkCBrAPo4MTLiFSADGDiTamZo/LB94A6NHu4x4taeIGGZcpkwMQugCJw0/fUKwFQyTKsogcjEgaPWTy4dkjDE4Ds1eceKh7PXn0+Jyre4Wff3KaqTSbe3sUJ91ZiLPzkrV4z0HafshRdHeJ6Lh/JZs0cDg8GcoiBvBxgFiZOq6dEHctD0fyQ3w5PN32I/GBRArKAa46QgQA4wvVRR4lokoDZ+eHutaUTxdeuF0GBUdDBMAOAAjMQT2bRI+snbUYSIc9dACg6aZTr+/zeJUnX1w+jcK0Zp31gEjoID5Zm0E0nMAiDs4HAMRDxpHAmDMGlgaCh/TB3HnpIQLWBDoW/vQ5GLcJac4AmCsbVcATfYJXMCOj28SwhwvPokQPHCMPQwC5wBPm54ICtAfK4TLk3jAMEgmVo0OsbONceBGqIQCCNsrrv2IJArdkltf0UhFlQUaAbypG+JKBmF481aNOqAnauwkr2z9ka9kMo42bwcLPhUUrYzMsuXt3/zG+3Ge4XVTVCoi9VwJb59pprk1j/zixLH8l5VrtXFGIg0/Pt72SbIboBfRhZCmPsrSi/4wsmByQSeY1JyEuTKHxTaBaawx4ZTjRk2yhAXqwN7RQ1uymrB+/BqFyvDzAjnspmGJ6Z3K7w/cMrNtLEFPPHG05jFxNTa+G1Zm8Y/vbdcJkGircq1ppBQIvLFCBXmE1d4GyMWghnEJw2dQIy4CJDCFThcw02LluLtkGfCJmFGSGwerlm4OmwpItFpJKMj7IQrtnlT9FF2E84R8jCvKrhISyJG57R8MKZGIKML3FOae7ZQaNMWenfJuOXmsPZ2owFu97dX9XlqCrvaJLbvIBoEalFTqHmiEjFgc2Gp+hY17Hps+z28CRulRUBH4S5EB68xY+OSA5A0ox+ntW1Gx87Y4DeYGotDJlgGx2RZnM+EEqSh0RNL1U4yTDodjTrm9W02KEwvBAYXcCowf0yY82GQRVVHLO/omkNUWrzNFzaQMMihTpz6rrBmWZYWVAzcVjXkWTztITN1VCUZ8367hWGl7VtlCoEfw8iIolzLIQx6Xi42CqgWMyxM2vxQYhaXYiTnqrhobbCDKgSONYhr5heRSrrUQLUwgt2JQ0GS37vIHJg1fAgvjGQkzCitg9RCnFQGp1KNhu3D9Ac2hbCYae/PGirHMnQM7tmkwITtsE+olOYgOoghGNwGR8cvqKPhzY8s0NVGKd3tLN7ITMomfONBGwp6Xsv4ZumsW+gFf4YoN/4K/VUDH798K6qg25qLSwMowelEwSMhqp3NXNW8cEqrFxhVO3+hmZH2EtnKnCsLb7icdnCeSlAURskI6n4wQ0zBklfcY54CiZaQK/f5MXTCRperdlYigmvIShnl0Hg8EvjUmz9hQxXFiVPyQGLuzxS46n1i2zgVqdks1HoI4YpiIqFLwaqw5o5YPjwJpCW+x0zPnd553sbdaQ8xeyiJoxiMrIrvOYZp6UPQ2c+Agc0VWXry+7TTXtQBBiQ4IlEjXRuQKTeDfM5cUqNt4Cap2D8lmYUk+uFGTW7/HHi81wEyDZkl74PlSHy+zVEdaTcuzmnLCI73WGr4UmSQAfirEtxlegWPwK5ZWlWQs8aFZw37vkw3yT+EVcG3w4IsIfhm10o+u5a0LowqRbW3mNwjdCNDItKxA8WldTw5OyF5dSomS0kYRtaLeFH4mcbcYTMmMdij+zxVSqqWhMrzbBna4i4GUMV0Fx17g3M0fs0kNUg019u+1SaufRwzRKTUpIfpFkmyGIAtz0nCRijph4D0SKsWis9RlFqeTjyIgxAAPFaSbsIa80BdsHh2jHjqEh5fPmCMYxqW5gN8rXwgl2WqhRWrObuFK9r01cFUKqc/2TsUX7dxGoQ1zsQOZ4eSnc/kXBmkb5OOfJ04ADgY+tXSGoV3qEiATubkdlleIqFpFBzv4Do81K7oHQedH+FZ/HIGBmrNouU4EhUjkUbXSMuAyL5o47CcFhZ9Ml+EdfRtxzIr/sthFMXsrCzMRpWCg/V0wJhz2aGzcJGJpP3ubBsE0HFHzULUMOCUtGzlb3LFPMpjhfoX0Vqtjkq7xSsEiLOZMj/0eajymgWJu4VmmczwOasIVzI92fNKSMgXgdGygZa4DmPvkxA0jBmq7fDRVi5hay5TU/ZmgZ+Z7ICItwYLDfCZMvNTfvWgJrx3ODeQngOq3vEmAATZL6SyxFwQK2ip0LGTKW5u+xDDCVRqmL2N0NkXjueopM+zqObMI67BP9A4SFGY9HI5ch0bpo3ZqtYa/8oYBEp05yxytxYgC/6t1Z4JGEzerNDVNtfbVXb1o4yX4xhGwwdEEkfg4UpqUjG6Wj+50Gz/99GBm0e2ECY5J9/SmEWUzYP4Z9+0+a09EJGIE9pADe3NRN6KRAGYL6JNgfgJFOtn6oAbZjBXyU9OFzgicNl88ikgWxqw5C65t0gXGsmTno9ZSOdigu1kxn5qaQwYDS4NiBi79L0cSFMQ1hPjZzSsWbQcGhnFKJhAkrCrZZz9JsAACAASURBVGREWq7NGJDfDhOMDi5YUEZ3eFC0EB0B4ZpdvNGK8x4ekXQuOKBcyiFeEEwdwc6xhsi8DubzneHjzB+7s6GZY5TKRS28YJd6V1sCCJslhkb5FTJhESnVg5IGzv5X+7/h0aiU0uStsz/+JhCjZZ6k4QnNPNMhNG8fbZUdMx0u0OykzzGdVbHQVnmvMuWg53KTs4inzACd+4LeWe0YhZlkfDPmmEzHwC3VMoPOux0KJ9D2NLsGjBRoyJHyhXu4rBaGnpHxzJPKDAqf3D8EIt1WouFirMkMtnyyWfTXwtr1ZcUTmmE4/LdWYjDg4/UII2WVF0ccfJxRWkE0NzzHjcIRhMEfTiIZQ+0iUiRgvEWDmWMMyISnyKPm7F2wEWoC3cxiToARzxkcvROWQKQoBDJi1rMQDh/Na0UYIqh2hgbgAN4E8EMt3ARHhhJaQIR4ekRIAxX9wd+N0ldoZjPmhue4EfkhUlAKwpdQq8WH0Us2R26icFi+hCggrYQ1LnNq53CnfrS/pbmBYH/VCDQCjUAj0Ag8HwT2tjSfjydDJ++PjUAj0Ag0Ao0AItAND7YXurs3Ao1AI9AIvFwEuuF1w2sEGoFGoBG4CAS64V1EmHFR39eNQCPQCFwmAt3wuuE1Ao1AI9AIXAQC3fAuIsyXOZtrrxuBRqARQAS64XXDawQagUagEbgIBLrhXUSYcY7T141AI9AIXCYC3fC64TUCjUAj0AhcBAL7Dc9O0cxnfdopmnT6y+ZRLjKPoFNw/BCs+EcefKhMHBuTz23KBw6JBj5OBk+7WQRJzrDJhoGGfOSxHK6ThU8x/VkemVMpL4XhhB40L07osTOZxAU5B2s6DUtPIUr4n0BzHPzj5w/tmTE5vjAjGILxLSFCziAxamE2QAY16GSssFzug2GKKt8P5PUgJSR/EAyDtWRXZUbhOFiCagvJdLQYGmYvUhhOcC01B25xIpSOxV9BtqbT15wDcuSVUdGP6ZLQC2fgJtgQ+Y43BeccrMn3goqTjHNvIRyOx7lZcqis+mLsWnMgCBC5hr4MXsSIAAjwOaAOyYVt+SS50vcwezADU8yua2HwBalYCVdQzEe16UlpKIznzB0cKTAMs7XC4ZCGJwDlV4nam2fz8fmG1zgSP2vnUCvzCKbb4R3w5KGFGa7ZH7tPJ3ki3ONYZAM36WQwaEtGyv27m9wCK52eMIddkM3KTi55yOlJQy1MPFBPifGgTSlLxkOhcbXwIDtL5/XdXsfRiMy8L9TM4XtkoFbYjmZMqIIAODiJsV81RFzKtRKRNiXJQtitvbm9jvKK7+tJ3HA8cZS4yUcLWgGiES1YoWSDXfTVYEbl+DEQHRfWheaUNeFsla0IS80BYr6XVwnKQ/keGRoIGBXjbtx3uOBB4EBEYaUNhBeE2dccD3JA3+pY8GCMjjcXNQFMcvtjiPTaZzyEM+HsD8IFCJCdVdEIOxfCNWEWwqW2uPkpvQnE1lRgcI47wAJo0NDpcFHVjzg7Sexis+HRkzaTtYtX9z/zYf/DfZv+mN7km8YGc+ntNdemIU/SR/KH1W46kAbS0XUxCjgCTGihtW2IZQYdhY+6zjbv6C+FgUn4+oKsivrE1ErzWlzf4EoIqOQJNA94DiMKhuVNgHdhRhXQsRoaCNkMV1jiKeFTGbTNXv2xjm9+N5a5QKqM9sNkzsfiWYVZaw9GtqMZ8K1b4h7xnZQdLuMXC+E8uhFmIcwl1ZxyzZ/KbM3gE828t7kvcfPd/RXTzwwI5SaMeMK3NfghkM3Ifk1cWgjXhFkIx9DphezJztIXuAmlydwXVsS03u5n24gDTCq/YB8D58ll0lNzAB2B61o4A+tUrIVBW7xpIN3khazOuWV9Yv6q2AL8jEYeXTWkQORB99+WEAmAEwpe6fPclsyaCu5gOvmzEnbgJE740SNaelXGVW+aqa7B915sPl5YOE/Pt4aYcByE56Ft8TEOrbZZ7OlBOfjfvCDNFGY5uRwBp+vxXPzpfYGGHjx4As2gjaAYPpKPiMAAjn6szSjwGbQFRKnIUiWVbXMcGoTVTuYAFAguQ7TTIFO6ueJAnUJHjNVkMF/T2kWUDBlhIXDXCK7RjJJRx0BEJHHjdwlTC8tbO+aGp5YTmD7EGPSCA8kkdXDZ8DBqgfMC/BBYcAAEHHbxzrvyLmGAJDxrnH+UQQ5IknLoCYq5noCDrPnelxMKOAs8+HJCixVGSkqBhICQ0V0fIljEBf2VawwN22YPVigthNGMXXYhmfHBuI/Ylg0PBXYjBS7vEWZzhUf26bIMokXabScTzYJRw7FEskGJFjIIFQlY1fB1d9QLBbogE0YuWDg4zxQh/TCiPBhDJMtXHu3fV0/F4NcP7wZL8ii1sBBFbb591MRWOpLBzNoJ0hyRGBd4fArNNK7BSNfjQjObkf3VYNVm1NjWEAEmYoCEfiHM8wa1GczjGNlMiMuBTT6cG/Yt2BbA+i9n1idIoVdVemRkV5QAMOOLIdLuciBhluBrceE0TF7U2VpzgGG0+QfmJteTYYrsI47D2UziQ9YAUSDQBEMdUV6vWsRL4a2FF4SphcOYxAGxSn3JBkwOSoyMZkQPhpGT2kBgmWlNzKoMc3uL1k499PnoumggpFooRuGaMAthQnuDA+NsWMaSym/Q1eAvIhX2R/EvE2r79UBoh/Wh20fNKJ3MZitj4KBFpHfaARABciDix0D4RyscZIaRI0/2A1MouIKUWKLxCGMiElaeGJdhiCxfObVA0x8kv7CzIgjTs7WwNEvfNNPsUpeNFr56ViMznug+XJ9AcyL0q/u3d68tUdm7bMYCwNqMWriGiIqdruoYefVxLexGAkmG0AwfCXZ/KmzLhAFsyf3h49DwYGgt1qHW+aMXx0AkKwyfJvLLS+PFkyNhDtFMMsn3KazkqVWAkQMeER+a71DIhhWweT19tQDf5AW3mgNZxhGuhdeEKdjlmjMHZBtG4OJRvI5FvpuDmstmlX0cinV81GDxHo9vntNTgqREIRU0N5IvNEweiNActpkx1qhG4Zowh2gmGdfG9hgOxej0FQszhkEVUnL9hhvERl09gDB7KzzL/4yRDm9J5WAVF0SLWLQhgUh4SKH8EZ2McJIM9L8cWt/9g0Fn4QmXkbtFJArXxqHxKeLHUTZPwoOREAhw3wKhQ2cmcUoM4NP04ss1o6d0jb/OysdVUQMYF2bUqNZ4kvuQS9ZLSmHNWCCGvL2TzAjwh124mhiD5bql6QuRISi54a3MGCFloIaBjAM1RAvh7ILZthDOmg1Psy2nJ4Sy4IB+O2VrpqhplnFzkcm4ZUmwc8GBWn4hXBKGS3/BLtE8AFgIFylgDmZgSRUxcMDKhBPOtrU2gDP4lR6Z9hiMAzVEhWaaoAz+GhVrdmXNg1+bLKLRGfPBI0OsjpT6m40ZQRDOHNDwuGHkX1ntd377xwnAv2GYEdzBpsH59DF8425vfWuAbxh6/DaUhGEkgzVu3nTKARuGOOwj2jwkOWGS586lMIvpPBHCTx5ZLmXvEnqjCxiI02oevBsnMWu4FmaQ5fxVWl6UEMmMT1ch4H4tDJZY/thYVtdoXLuektwgHThMajEQeM2PFPKqCs0IfoKdGxBxYXImmCO2XwKO1ITZ0iwGkNl5mQIID9aOHDAX5vvzHVM1lNTho4Fvmu0p6RNGldFC9h0miMcRhrQtNE8xZTytRjEf0uKYzAaP8PG4BgEUdpfRuxQdetBqQglUzQHGkJ9Nga6FF4SphSM60yb2mgCaR5DOBfj0uAU0q0L0ShD45k7DI4gpiuQtbERYolqf95CMF2QETJ+jNDB8uPLj1GKG+RwcGZPlnVijY4OdvtpgmGI4N2m471BiwD77OpQDdGU1VztlNQbC4XVUYcVQUHJHJJ0wRoPZAzJfrFlKCUGKYdo1o7DK9sR8hXQURFLCGI1UnVfgiwFGYOVPCAPODNHMNHI8u8xKgLoelFCr6+xR22DGAI58XERKZmljmVsIR7DcNgeZoAuvQxJzIdSqIwJ1CCMgSTjIHMKa4PwVQjQpGeEq8aGbAX7igO33ZD0L4bAkbF5pJl/QWjEsNMC35c0EvpVvVhIouX7AMzkC90caVECFZuSAJmxqeKsKo9PQTJhaeGlb6tNT9g3rkGMixSMmfCoQtn/DG7vX2F1qjf1UI9AINAKNQCNwhgjsrPDO0OI2qRFoBBqBRqAR+AwEuuH1OrURaAQagUbgIhDohncRYf6MqVA/0gg0Ao3AC0OgG143vEagEWgEGoGLQKAb3kWE+YVN09qdRqARaAQ+A4FueN3wGoFGoBFoBC4CgW54FxHmz5gK9SONQCPQCLwwBLrhdcNrBBqBRqARuAgEuuFdRJhf2DSt3WkEGoFG4DMQ6IbXDa8RaAQagUbgIhDYb3h2bHQ+98+Ojabjzg44wYyOUCsOfOOD5obj7+DENtcsj+s5foWe8wxVHKMXZxUuj2crheFIOgA50BihG0/GC0k7R9TOCSyHgzMJ8QRUOV6WNdjjCvgxh92VMaodXEzcjrFZz+rFAyHtZEWBAvCU822nIz3XtgUgduBhHFSYR5Rwy7cwIsZlgHTyfW1GwaWFcJhnBjs+c1hLYRlLHAfWhSNw087+5jMzwetgC57eGWCmk2BBOJ/9WHi94G0lmQ7eRJLbq6bSyaKqQVA16AIfPRS0KFOIRsibBlXLfEbJdC7lIDymdnYETkNdeG1vj5oOvy3la5srdkH40oGccN8ZHmxJ5QjU4gmlYQPkFN7ERIbhKJGBdUNCHdLwBPr8Cpj3D69Yqb+uYtCbP/Kz/iYngZhMv6U3TaeQMwnc3De3Apa9M6Ismud5k6KofY6D4VHPyIjxtTDxQ6EgWFRbwMhEcawIVbpzfQNvvkY2kxkSShiO81xt44g88iNUbjQu9mYMzcbIQzIvxY592Xc24lU7iDbHNdiMQ4DNaI/YfxcAxqCMP2hj0OZIAbEB/AmEKZqoWQalmeL1TcwLyTaPGtg/qaLHj4FoIRxxl8Yg/WMR1lpYHCHXErsWVKxtxoPmYxTCVukXN9PbJzCsJUT4qorPFYaokRlmkufCze011uKKlpAyQyC0YZOAt9iy+gECSZiGq8D37IMHa4hAYNI8pIZ0Vk1zFK7DGlCg1wt2gXD5OggMJTgC0UENQ+Y6Gklm9G6z4VFUbBZjF6/uf/a3PsK3m7Mw5Tq2zLfXbB8BCoYOH93n59fwciEDrowBIB9LYeDo/OJAQWaASz9iZYHY07dSZ/Nwdn9gVV7Qq55cniBwGKnN1g7uH+Cgq60hQsbj61dsNrYBezAqo1E+AjchkwHbsHN8N55WAQOZ3I+h1eZ17hwF0UIYjPeXh0AUyIsI64bwPruEDwszEAEekUqq6jQkDZlMxawQoebrUwhvcEBHL9NBeoOELzAkq+ipKazhSF39jgK/xHMCRwO9oXl+pBYO40nnEDhRkk1yjmVkLNa1cInbkDKmIYFsO46zO8OdzYanycCRy2XU5r/Ett0ChzwehDNwmbvu2MphEBi8+uYfMZx0jW/pncyuhRFwSkh+33F+NqHnjMQHQx4ydhDQj0Moh49C3+Au2/zgUx/bs+VR7n2eNOV82MNt3lvmwkGPYw0RVWpfcZJtw7Z5Tl3PQCnxMIe19RaNUkUq9HBC0raEzP/c/vALTYqpDNrPzVuyhkCO1V4oMVMxUnsQkVq3J4QxjjycbxXEcB7WtfAOu6AC1mbojpzwhPBkUxMsUkYpFohhEVZnBV+cQBjNyBwgQNhmHMWik+rSIDB85EccQ0OexvKQyRrujSjPkfIHEVu6qbs+jmdGxu1ch9UsgQcXwjh0sMuHsDWo2o/3nV3DTc/cuI+BAJMqMBP4zK5AMhSCEr15aMMbTLGGV5uShwmZQck0U3B6jRZTRG2JCe+aGsXyuN/yW/VUmKEvGV9W/1pYGMa05p2QgFHd5K98AmGzitxIjNAZeaQgFxSvPkYaks8bO7q9ZgIcEaOsWyLWWv/YycNdB8145cnNW2kVVCNooNtHrYxaHa7f5MUTp8TQTsQv4pIZWYMPQ/Og5ikH1Lo7j4t6hKJ2B98imfGP1x+aqgVXj4FIG56EIIMjyMivU5MlvAbVsGqxk3R7df/BhbfZxXNtm/hu2ayRcvDTvlaQR6i+DGtO8xMILzkgvhAZpuyblnEEmoU+ZYdyKbFFXKBxLaGcLceAP+GJvI1rEtvmAEC6EN4Iq/a/6gcOycHwUXnuvLJxdVoz1HYSG3PKMkUrAH70HrGstB+334cn0EOn4UWGZpRrp4utvA3SFCv9OeSlqsi3iKK5epZ3NFQeaQRhMrgWHqZRQ4ApAwF21I/XOhZ2OMbNOfr97ePwSwwz7NX927vXVuVZCRsZTBoioh8HI4ePg+M7Dqb41hAxCNCYNVcti3Q70T/iBSnk6Cw02+jMdp9VpFWU7EV7iM27pNkqIN20a+igMdtA2+L6GIhYLWwDKPhaEz2thsCx+x7WhTAyCq+BXa5/YYau8BhJGUUHVfx5Yf14f8V6tPwZ7GNYAx8y4ATCaoOHUn3EJofXyg3scGySWsKExJ9vSJ6EXf9EFX78SPCDmQnPDI6YutBsZuRHFsKHUJFknEs0dGaX4iYhs+D6TbkgDOevSE9GbwI/9CwGVYG9FZ7xO+cJgUJmbVc0BnTumujP4ElJi/FnjzpO4XCO3ze6n2NPbnq9m+0vhQlbaDkWCPaOUwsUziBDG4DtpnloJmVUqxBIGcscAmNi90nhNXrkurBNjy0Hp6iVEA2/4U3T8I2sCOrWmtkAshBmFdOkfux/gp56rYUjzxev7t7TfQC8znDl8FEQLYQzCJa5bOoc1lJ4k10jFdOiDeYEs2YAIVjExWGGKHEvJ/gphEsO0M00raePnnQD2pE4xhwo0Axg6gTiQlH9XL/tcK7APwRPB2oWxiLsYnJRCw/+pnLk2ZrSf2ZX6fU8+kyMyNZIsTUlyNQCbRnogIbHMbB/nCC+2U/3+z8VpgTTmU4EdarFZCuUg2f8V5pYCIaiRpjkxXspzGKaNpjVKOxUg4uRi8PoICl9CzLTyJceqYmLCQDXmC14bZpx9JWD+nvAARDJFFKpP5SPmWxoA9iGeILjAxW1omEg8Dr8As1xk2xT2rPXngJUVdepy1XP5rbjcDRQmg6z5pkwXLi1wEFlr8O6EA7oErsQOne2NoOsdaYxtkPNRdzQtjmsYczUtkdhdseQJwsXmtER4EC0sVTKt6k1tHwOU11/S2vnSIW/AP4unvGU/lmcrZyAAyTDsYjQLIXrsOIo6A7ijDKbyzsxpkgH5MYO+JIynl8RQeXnTsMju+lh8hYIauGHAGSvjP2EZg62ws3w4QQqJ4POrcxuW0CY2smNevRvLMZZxD4CdGU1j52ZooTpHuMH8ZGZlCaeWfn4G15KDAUEwDeESblUBxoOORdeaFA8UrX8QnkdixDO0zq5j2asIJISxoC4YbbNFTN0djNBh46DvIPJdQpxdmMCELd5rVkZa3kkH0NDhrqk9woi3iVLDc+pRWa7bTmynoxoQ0YvwurCYBikfPI68by0OW4CycOMZLB2pmxYTSGyLSwJDrDN4kuK9Uo4LHEOQFWxiic2kFrng4ITNmDFk3bC4EBNS1DQfTf7YPClJjvDK5shaim7c1jnhrcUDrMjWGEweAEJpRaag1U5CuQRVcATFtZq2wb4mfkTZ3YaHoQ8wzcpaslGoBFoBBqBRuCcEeiG1428EWgEGoFG4CIQ6IZ3EWE+5zlX29YINAKNwNdBoBteN7xGoBFoBBqBi0CgG95FhPnrzJ56lEagEWgEzhmBbnjd8BqBRqARaAQuAoFueBcR5nOec7VtjUAj0Ah8HQS64XXDawQagUagEbgIBLrhXUSYv87sqUdpBBqBRuCcEeiG1w2vEWgEGoFG4CIQ6IZ3EWE+5zlX29YINAKNwNdBYL/h2bHR+TQ5OzaaTjzLR9WVdsvJhOnANzhlzu+zmB31xgJxaNvzO8wszog7wItSOA6vQ5DxlLlRc3UyXsjbiXb+UpV06CJEJA73c9hHzWFwOgwQlHhYS0rwzdrBhXyMiF6Hd3iGoZg9HaW4FA6z45g+PE4zfAlJOF0WTxTEdIj7oRbOLM2HBDrU6eIoiBbCpRk0SkAaDvLoY8KWXsPjiQOlZtAQ7ArD7NhSQy/AD9Iu56bLsCYk9fGlsFhoBggJS+GwbTx4Vg44hVj76czprFGxhMFH70qI1IU5UnFnAr8CKqDO5lUQAUVRuGRXZQY6IueIgpsCaeIbyKf78lql4djShXAEBcaaK8khDU98Tu+LoTO2mRn2JtgK4oCSn433rskptwYlRUKu6SUMr+w1bKT5tbwfa1v5eX5L5NC6zBEaApkjUQtTCDX9iFWqDU7vHc5l1zO+b+DN1/WLuGA4rlmzbTC0wEuPXCfNmQ8aa3uNxuKM1+w1vq8OHAzaYGTBZsSTyKMzJLI5cZ2maNc3MCFbCQcDY0RKS6998SDZqXCRGcbhsBnsJGzVNk5ym8nVwjE0ogSB2IVogSfYmcxAGMMkNoM4dnsd58WvwhoOos1yAP9MKpcBp9DrgI7stFAuhOHBiA4jYA/6cOliISwj3kXGGQ4WQWSXrQHABgKQuXE/sGJBGDbjDtxMRkraOv3qSC3AH0IpH1ccOEYYAoFU3DcDHpQQP0QSOW7yqnSw8yg8DyfMZsOjqNjMyy5e3f/Mb7cZ7s/JDGzQGr2CxjnBeXV/y5X9w93NwyMWnTI2Z3sT8mrvfRbymoIAUPmRYs9HvHMmU2g9EyjHouZq1IeOOOd/ti0r1KgNNwvNUM2HXLWPHlZgAsZr4aA9np/KNlsKRYmkp7JCkQFHVsJQzcG89IIO0kwBUhxMLMls3hxscx9LDf7t8NQweojJ0Nl9FzasBM8IyqJqW+F+Q3BVTSs0cEkK3ro9a801u/RBA1krnVTA+R2EhrMNtwpr5o8+tRC26XvGaiHM3WhG5vGGM3ERBbHWwv322nN5Tk82FXhLXXwebgW+wZLcz35hBJOYG5krDI++9GtV1V1z1Kh391fsSDLAieqjy8z+ODx9GrpHmM2GR9CbP1hGOfO1LdVZ4d7ShYV5N4Wk9DAb3j9c33/AqJeBPNubaDld4xtAxozlMmo9LIQRcJ15cHEh5ulqj3jsCeOMhAfZjAefoBRrRFmKuRKoC5FjleYgxuSOBSXR2m4CMcBO20Ipqqc8uMAzckmqZLx3xhokPLgQJu9uaa497L0w5gwC8VZKAGgjR4aPbCqOAs46hgmuhbDLHAMRYehxDMJg0rEjSh4e+t5ntIG8FUd8EByRdYx2IysObjBdLDUbB2rNViVMw3sfdBsl/JYoFxxIVom2HWHzfUd40YH4qRzogSHFRw9ZshYhWuFZgu+g4QVqo+v0Q0YaV98wZbkPwjW7oEGMetSAwWXLkWjhg8DwsZjzWamEBMSwzvxBKH45tOENdthO5jBSUm38DplBiQhA1VbJx5ur65vbu/dlQSmHOLub6qnUndcP77iqPm5zYhAWhtGDP/CuXcAYr8KC2Ee9AGoStr4EZFXTDItrhGedFkroozFfGd60p8WF+0SsMi3oh20uKTKzg2NAF3gKJpqW12+KqRVQbiHMLutUYHx7pPpo3+ZFpITGQkADScu0Ow6FxgvubwqD71scADHhVS2sxY6ZQPMkBSQbHzlI96X56YPgBY0YkjRoxYGVZnzLmvPNMyLGtVEMrsRhl4+LRVhDAIHaEaaxbFzt3PyGemminmJskm5xBTdkRHIE0gE/ZmS0Xg9QzAmYnwL8K/BrrxccOEq4ZteCA6FZAMcQ6CPWU7dyiriHAA4fARkMHEcHQhDGkBlbDQ/jqsn8/e2jDCO5bf8fo45jQP1l62MuaW9u9DuGjj+SfvYbUDvrj1rRnM3uESJj17WwUt/AIdj5mvGPlYfcRP1w7SkqZSs+el59f/tYgkwCPBxoS2sIM540k3BiGHtklqMkXq8cRBm7riGygmvJo4lNwla24FoLxCA8OuX+hlP8oIVSLeEl++N98RszCZiwwz7ckft1yTOXDViZDTDbnQMo49c1noQJzuiVA4Mq/YhNDq8119j3RVgdrlpzzlYSTnqwYDE4Uc2v32wvZRZhdVjSxY5wNmNH2O1M1Y/cn3OBu+Nr+o0GhWeqODE4pxiiQ/FMg4Yecn/BgYSMB2ghXLPLn+IL54BpXjhIwFoa0oPMqxqiseEthTVYPDXZIsxWwyPULP+jVhqCZPEQDPMT4Z67prvKfmKcJkNtdFT4PK5zSpOnVoIL+0vhIXMMipyTxM5X9x9mkGVOOoybg6hktcV65q5sTL3nGb1Na2zSk8jK7thMhQkwhXXQbB8XDhb4aE+NEml+qfv2SJq/u7V8cXXHU3UoN2bzwGHFedY8e03gOJnNhjEpODRheYhJsgyjDxl0FEQL4ZkwbLO5j2aQBl24BHrWvPfC6gr9ggNdOzjLYB0whrhtZsOIHgnMkVqr2hOesSoIk2M05tQQhUkYCUOQLl1ziPziYDzzoNPfEBBiaMaA6gwCCQ9+WTnKz2ZTeT5aDTQ2PFQy5tQwbnZtFJZv7V8QoFq/PqDhcaXOqu13/k3VPMYIrqNZ5c8Laniy+NAmNwSYMMlLIp6ejMIspvlA15J7BKAnCbFh4i5yEemC18abVcrV91GzaRi2uaqw5voVD9YOOm0OgEjmhlrgSpvppk010DYQDmyherJt9uC8hJ2KSPjoDFeZvJTxxJMLFB6+ChwmDsSzKfoLPHlurnUHplY4NF6bGaTNqxVCZwLh8sAB1IbX/iCAT0pKGRWuSOt65AJtGzRz4HCXcocwgyVbmoXGhGfur2uDB+Xb63t0BB/Ea8eBbnpNiPyCAC04QBrI4Px4LbxgFww3mIEuuKl8MdTDsLPw7hg8zZ0cEbBwZ0tTQ0Jpn9hvu9uxA5ZIfQAAAbxJREFU/sv+hAPFElBTjks8TifLH7oWFXY5XPbtW4uFj1442CSmzpAntjuXf3IXybQl5RsUMgfPmhn5ATSmr61yJDSh1psBGRaSOQEcVdSMwt4YwAtdImznoW224J7bkRCl/ZB3bqpdUNaFeSvhiFSe0ftyx1OolAS130N5lVKCJGdLuIyaZrBtQdcIFthGcaTqkBpebF6NeEawcK0ZmhEiM4O+NXaF1ymsoRa8JuQrzSiMrKD7Dq+WDoAIDdZvzcL4GPKo2SmdQa6EJwftkT3hMC8kNeLiVGiG8AE+IixmryDaxdOsnZGJO6E8bKZv54bnuJFtKBxmhy+hNnOA1Rp/LFIozI6zQAlRzikS3sAThdFgG9eqwX7DC7zgmb7ZCDQCjUAj0Ag8OwT2tjS7zzUCjUAj0Ag0Ai8CgW54xbL32U1b2uBGoBFoBBqBXQS64XXDawQagUagEbgIBLrhXUSYdyc+LdAINAKNwItHoBteN7xGoBFoBBqBi0CgG95FhPnFT9zawUagEWgEdhHohtcNrxFoBBqBRuAiEOiGdxFh3p34tEAj0Ag0Ai8egW543fAagUagEWgELgKB/w/WE8fU1XbAMAAAAABJRU5ErkJggg==;" parent="1" vertex="1">
          <mxGeometry x="1316.06" y="442.46000000000004" width="249.12" height="60.6" as="geometry" />
        </mxCell>
        <mxCell id="cHKp6VJRD1__R06fUMZX-45" style="edgeStyle=orthogonalEdgeStyle;rounded=0;orthogonalLoop=1;jettySize=auto;html=1;exitX=0.5;exitY=1;exitDx=0;exitDy=0;" parent="1" source="cHKp6VJRD1__R06fUMZX-46" edge="1">
          <mxGeometry relative="1" as="geometry">
            <mxPoint x="1989.12" y="344.97" as="sourcePoint" />
            <mxPoint x="2064.75" y="604.97" as="targetPoint" />
            <Array as="points">
              <mxPoint x="1994.75" y="604.97" />
            </Array>
          </mxGeometry>
        </mxCell>
        <mxCell id="cHKp6VJRD1__R06fUMZX-46" value="all_ligands" style="swimlane;whiteSpace=wrap;html=1;" parent="1" vertex="1">
          <mxGeometry x="1947.82" y="475.97" width="100" height="50" as="geometry">
            <mxRectangle x="290" y="1266" width="140" height="30" as="alternateBounds" />
          </mxGeometry>
        </mxCell>
        <mxCell id="cHKp6VJRD1__R06fUMZX-47" value="unique(lr_network$from) %&amp;gt;% lapply(identity)" style="text;html=1;align=left;verticalAlign=middle;whiteSpace=wrap;rounded=0;fontSize=9;" parent="cHKp6VJRD1__R06fUMZX-46" vertex="1">
          <mxGeometry x="1" y="26" width="99" height="24" as="geometry" />
        </mxCell>
        <mxCell id="cHKp6VJRD1__R06fUMZX-48" style="edgeStyle=orthogonalEdgeStyle;rounded=0;orthogonalLoop=1;jettySize=auto;html=1;exitX=0.426;exitY=1;exitDx=0;exitDy=0;entryX=0.5;entryY=0;entryDx=0;entryDy=0;exitPerimeter=0;endArrow=none;endFill=0;" parent="1" source="cHKp6VJRD1__R06fUMZX-27" target="cHKp6VJRD1__R06fUMZX-46" edge="1">
          <mxGeometry relative="1" as="geometry">
            <mxPoint x="1952.63" y="364.99" as="sourcePoint" />
            <mxPoint x="2022.63" y="434.99" as="targetPoint" />
            <Array as="points">
              <mxPoint x="1959.75" y="404.97" />
              <mxPoint x="1995.75" y="404.97" />
              <mxPoint x="1995.75" y="395.97" />
              <mxPoint x="1997.75" y="395.97" />
            </Array>
          </mxGeometry>
        </mxCell>
        <mxCell id="DKQZbM7LrBjCNQ-bZRGg-3" value="lr_network" style="swimlane;whiteSpace=wrap;html=1;" parent="1" vertex="1">
          <mxGeometry x="1947.82" y="235.95000000000005" width="100" height="70" as="geometry">
            <mxRectangle x="253" y="-100" width="140" height="30" as="alternateBounds" />
          </mxGeometry>
        </mxCell>
        <mxCell id="DKQZbM7LrBjCNQ-bZRGg-4" value="&lt;div&gt;Gene regulatory network&lt;/div&gt;" style="text;html=1;align=left;verticalAlign=middle;whiteSpace=wrap;rounded=0;" parent="DKQZbM7LrBjCNQ-bZRGg-3" vertex="1">
          <mxGeometry x="3" y="24.48" width="97" height="43" as="geometry" />
        </mxCell>
        <mxCell id="VFXCynfjDcZCcVKc1l1U-1" value="RCSM (&lt;b&gt;R&lt;/b&gt;ecommended &lt;b&gt;C&lt;/b&gt;onnectivity-map &lt;b&gt;S&lt;/b&gt;coring &lt;b&gt;M&lt;/b&gt;ethods)" style="shape=process;whiteSpace=wrap;html=1;backgroundOutline=1;fillColor=#d5e8d4;strokeColor=#82b366;" parent="1" vertex="1">
          <mxGeometry x="1106.3200000000002" y="-1062" width="404" height="25.75" as="geometry" />
        </mxCell>
        <mxCell id="VFXCynfjDcZCcVKc1l1U-15" style="edgeStyle=orthogonalEdgeStyle;rounded=0;orthogonalLoop=1;jettySize=auto;html=1;entryX=1;entryY=0.75;entryDx=0;entryDy=0;" parent="1" source="VFXCynfjDcZCcVKc1l1U-41" target="VFXCynfjDcZCcVKc1l1U-9" edge="1">
          <mxGeometry relative="1" as="geometry">
            <mxPoint x="1423.95" y="-844.0000000000001" as="sourcePoint" />
            <Array as="points">
              <mxPoint x="1413.95" y="-838.0000000000001" />
              <mxPoint x="1413.95" y="-838.0000000000001" />
            </Array>
          </mxGeometry>
        </mxCell>
        <mxCell id="VFXCynfjDcZCcVKc1l1U-6" value="DATASET" style="ellipse;whiteSpace=wrap;html=1;align=center;newEdgeStyle={&quot;edgeStyle&quot;:&quot;entityRelationEdgeStyle&quot;,&quot;startArrow&quot;:&quot;none&quot;,&quot;endArrow&quot;:&quot;none&quot;,&quot;segment&quot;:10,&quot;curved&quot;:1,&quot;sourcePerimeterSpacing&quot;:0,&quot;targetPerimeterSpacing&quot;:0};treeFolding=1;treeMoving=1;fontStyle=1" parent="1" vertex="1">
          <mxGeometry x="1254.2" y="-1004.0000000000001" width="100" height="40" as="geometry" />
        </mxCell>
        <mxCell id="VFXCynfjDcZCcVKc1l1U-8" value="" style="verticalLabelPosition=bottom;verticalAlign=top;html=1;shape=mxgraph.basic.layered_rect;dx=10;outlineConnect=0;whiteSpace=wrap;fillColor=#ffe6cc;strokeColor=#d79b00;" parent="1" vertex="1">
          <mxGeometry x="1278.95" y="-864.87" width="60" height="40" as="geometry" />
        </mxCell>
        <mxCell id="VFXCynfjDcZCcVKc1l1U-9" value="DEGs" style="text;whiteSpace=wrap;fontSize=11;" parent="1" vertex="1">
          <mxGeometry x="1284.95" y="-862.7399999999999" width="54" height="33" as="geometry" />
        </mxCell>
        <mxCell id="VFXCynfjDcZCcVKc1l1U-10" value="Are DEGs?" style="strokeWidth=1;html=1;shape=mxgraph.flowchart.decision;whiteSpace=wrap;" parent="1" vertex="1">
          <mxGeometry x="1256.95" y="-935.9699999999999" width="94.25" height="43.97" as="geometry" />
        </mxCell>
        <mxCell id="VFXCynfjDcZCcVKc1l1U-14" style="rounded=0;orthogonalLoop=1;jettySize=auto;html=1;startArrow=none;endArrow=none;segment=10;sourcePerimeterSpacing=0;targetPerimeterSpacing=0;exitX=0.5;exitY=1;exitDx=0;exitDy=0;entryX=0.5;entryY=0;entryDx=0;entryDy=0;entryPerimeter=0;" parent="1" source="VFXCynfjDcZCcVKc1l1U-6" target="VFXCynfjDcZCcVKc1l1U-10" edge="1">
          <mxGeometry relative="1" as="geometry" />
        </mxCell>
        <mxCell id="VFXCynfjDcZCcVKc1l1U-16" style="edgeStyle=orthogonalEdgeStyle;rounded=0;orthogonalLoop=1;jettySize=auto;html=1;exitX=0.5;exitY=1;exitDx=0;exitDy=0;exitPerimeter=0;entryX=0.359;entryY=-0.036;entryDx=0;entryDy=0;entryPerimeter=0;" parent="1" source="VFXCynfjDcZCcVKc1l1U-10" target="VFXCynfjDcZCcVKc1l1U-9" edge="1">
          <mxGeometry relative="1" as="geometry" />
        </mxCell>
        <mxCell id="VFXCynfjDcZCcVKc1l1U-18" value="filter" style="text;html=1;align=center;verticalAlign=middle;whiteSpace=wrap;rounded=0;fontStyle=2;fontSize=8;" parent="1" vertex="1">
          <mxGeometry x="1364.0800000000002" y="-858.9900000000001" width="27.75" height="30" as="geometry" />
        </mxCell>
        <mxCell id="VFXCynfjDcZCcVKc1l1U-21" value="YES" style="text;html=1;align=center;verticalAlign=middle;whiteSpace=wrap;rounded=0;fontStyle=0;fontSize=8;" parent="1" vertex="1">
          <mxGeometry x="1305.45" y="-884.82" width="22.25" height="9.13" as="geometry" />
        </mxCell>
        <mxCell id="VFXCynfjDcZCcVKc1l1U-22" style="edgeStyle=orthogonalEdgeStyle;rounded=0;orthogonalLoop=1;jettySize=auto;html=1;exitX=1;exitY=0.5;exitDx=0;exitDy=0;exitPerimeter=0;entryX=0;entryY=0.5;entryDx=0;entryDy=0;entryPerimeter=0;" parent="1" source="VFXCynfjDcZCcVKc1l1U-10" target="VFXCynfjDcZCcVKc1l1U-40" edge="1">
          <mxGeometry relative="1" as="geometry">
            <mxPoint x="1413.95" y="-914.0000000000001" as="targetPoint" />
          </mxGeometry>
        </mxCell>
        <mxCell id="VFXCynfjDcZCcVKc1l1U-23" value="NO" style="text;html=1;align=center;verticalAlign=middle;whiteSpace=wrap;rounded=0;fontStyle=0;fontSize=8;" parent="1" vertex="1">
          <mxGeometry x="1354.8300000000002" y="-924.4800000000001" width="19" height="9.32" as="geometry" />
        </mxCell>
        <mxCell id="VFXCynfjDcZCcVKc1l1U-28" value="" style="verticalLabelPosition=bottom;verticalAlign=top;html=1;shape=mxgraph.basic.layered_rect;dx=10;outlineConnect=0;whiteSpace=wrap;fillColor=#ffe6cc;strokeColor=#d79b00;" parent="1" vertex="1">
          <mxGeometry x="1124.64" y="-856.69" width="80" height="40" as="geometry" />
        </mxCell>
        <mxCell id="VFXCynfjDcZCcVKc1l1U-29" value="Signatures" style="text;whiteSpace=wrap;fontSize=11;" parent="1" vertex="1">
          <mxGeometry x="1129.64" y="-854.6900000000003" width="63.5" height="22.3" as="geometry" />
        </mxCell>
        <mxCell id="VFXCynfjDcZCcVKc1l1U-33" value="REFERENCE" style="ellipse;whiteSpace=wrap;html=1;align=center;newEdgeStyle={&quot;edgeStyle&quot;:&quot;entityRelationEdgeStyle&quot;,&quot;startArrow&quot;:&quot;none&quot;,&quot;endArrow&quot;:&quot;none&quot;,&quot;segment&quot;:10,&quot;curved&quot;:1,&quot;sourcePerimeterSpacing&quot;:0,&quot;targetPerimeterSpacing&quot;:0};treeFolding=1;treeMoving=1;fontStyle=1" parent="1" vertex="1">
          <mxGeometry x="1112.71" y="-1006" width="100" height="40" as="geometry" />
        </mxCell>
        <mxCell id="VFXCynfjDcZCcVKc1l1U-46" style="edgeStyle=orthogonalEdgeStyle;rounded=0;orthogonalLoop=1;jettySize=auto;html=1;exitX=0;exitY=0.5;exitDx=0;exitDy=0;exitPerimeter=0;" parent="1" source="VFXCynfjDcZCcVKc1l1U-35" edge="1">
          <mxGeometry relative="1" as="geometry">
            <mxPoint x="1051.5700000000002" y="-916" as="targetPoint" />
          </mxGeometry>
        </mxCell>
        <mxCell id="VFXCynfjDcZCcVKc1l1U-35" value="Are signatures?" style="strokeWidth=1;html=1;shape=mxgraph.flowchart.decision;whiteSpace=wrap;" parent="1" vertex="1">
          <mxGeometry x="1100.7700000000002" y="-945.98" width="123.87" height="60" as="geometry" />
        </mxCell>
        <mxCell id="VFXCynfjDcZCcVKc1l1U-36" style="rounded=0;orthogonalLoop=1;jettySize=auto;html=1;startArrow=none;endArrow=none;segment=10;sourcePerimeterSpacing=0;targetPerimeterSpacing=0;exitX=0.5;exitY=1;exitDx=0;exitDy=0;entryX=0.5;entryY=0;entryDx=0;entryDy=0;entryPerimeter=0;" parent="1" source="VFXCynfjDcZCcVKc1l1U-33" target="VFXCynfjDcZCcVKc1l1U-35" edge="1">
          <mxGeometry relative="1" as="geometry" />
        </mxCell>
        <mxCell id="VFXCynfjDcZCcVKc1l1U-37" style="edgeStyle=orthogonalEdgeStyle;rounded=0;orthogonalLoop=1;jettySize=auto;html=1;exitX=0.5;exitY=1;exitDx=0;exitDy=0;exitPerimeter=0;entryX=0.359;entryY=-0.036;entryDx=0;entryDy=0;entryPerimeter=0;" parent="1" edge="1">
          <mxGeometry relative="1" as="geometry">
            <mxPoint x="1162.64" y="-885.4300000000003" as="sourcePoint" />
            <mxPoint x="1162.64" y="-857.4300000000003" as="targetPoint" />
          </mxGeometry>
        </mxCell>
        <mxCell id="VFXCynfjDcZCcVKc1l1U-38" value="YES" style="text;html=1;align=center;verticalAlign=middle;whiteSpace=wrap;rounded=0;fontStyle=0;fontSize=8;" parent="1" vertex="1">
          <mxGeometry x="1161.3" y="-879.2700000000002" width="26.68" height="14.29" as="geometry" />
        </mxCell>
        <mxCell id="VFXCynfjDcZCcVKc1l1U-40" value="Are signatures?" style="strokeWidth=1;html=1;shape=mxgraph.flowchart.decision;whiteSpace=wrap;" parent="1" vertex="1">
          <mxGeometry x="1386.45" y="-943.9800000000006" width="123.87" height="60" as="geometry" />
        </mxCell>
        <mxCell id="VFXCynfjDcZCcVKc1l1U-41" value="" style="verticalLabelPosition=bottom;verticalAlign=top;html=1;shape=mxgraph.basic.layered_rect;dx=10;outlineConnect=0;whiteSpace=wrap;fillColor=#ffe6cc;strokeColor=#d79b00;" parent="1" vertex="1">
          <mxGeometry x="1411.39" y="-856.6899999999997" width="80" height="40" as="geometry" />
        </mxCell>
        <mxCell id="VFXCynfjDcZCcVKc1l1U-42" value="Signatures" style="text;whiteSpace=wrap;fontSize=11;" parent="1" vertex="1">
          <mxGeometry x="1416.39" y="-854.6899999999999" width="63.5" height="22.3" as="geometry" />
        </mxCell>
        <mxCell id="VFXCynfjDcZCcVKc1l1U-43" style="edgeStyle=orthogonalEdgeStyle;rounded=0;orthogonalLoop=1;jettySize=auto;html=1;exitX=0.5;exitY=1;exitDx=0;exitDy=0;exitPerimeter=0;entryX=0.359;entryY=-0.036;entryDx=0;entryDy=0;entryPerimeter=0;" parent="1" edge="1">
          <mxGeometry relative="1" as="geometry">
            <mxPoint x="1448.14" y="-883.82" as="sourcePoint" />
            <mxPoint x="1448.14" y="-855.82" as="targetPoint" />
          </mxGeometry>
        </mxCell>
        <mxCell id="VFXCynfjDcZCcVKc1l1U-44" value="YES" style="text;html=1;align=center;verticalAlign=middle;whiteSpace=wrap;rounded=0;fontStyle=0;fontSize=8;" parent="1" vertex="1">
          <mxGeometry x="1449.5800000000002" y="-877.2700000000001" width="22.25" height="9.13" as="geometry" />
        </mxCell>
        <mxCell id="VFXCynfjDcZCcVKc1l1U-47" value="NO" style="text;html=1;align=center;verticalAlign=middle;whiteSpace=wrap;rounded=0;fontStyle=0;fontSize=8;" parent="1" vertex="1">
          <mxGeometry x="1065.89" y="-928" width="26.68" height="11.27" as="geometry" />
        </mxCell>
        <mxCell id="VFXCynfjDcZCcVKc1l1U-49" value="Only reference collection containing full perturbation signatures works for CMap approaches" style="text;whiteSpace=wrap;fillColor=#f8cecc;strokeColor=#b85450;" parent="1" vertex="1">
          <mxGeometry x="935.0700000000002" y="-958" width="115" height="87.13" as="geometry" />
        </mxCell>
        <mxCell id="VFXCynfjDcZCcVKc1l1U-51" value="Add regulator option" style="text;whiteSpace=wrap;fillColor=#f8cecc;strokeColor=#b85450;" parent="1" vertex="1">
          <mxGeometry x="935.07" y="-855.45" width="115" height="30.58" as="geometry" />
        </mxCell>
        <mxCell id="VFXCynfjDcZCcVKc1l1U-54" value="KSScore(refMatrix, queryUp, queryDown, permuteNum = 10000, pAdjMethod = &quot;BH&quot;, mcCore = 1)" style="swimlane;fontStyle=1;align=center;verticalAlign=middle;childLayout=stackLayout;horizontal=1;startSize=30;horizontalStack=0;resizeParent=0;resizeLast=1;container=0;collapsible=0;rounded=1;arcSize=30;strokeColor=#d6b656;fillColor=#fff2cc;swimlaneFillColor=default;dropTarget=0;fontFamily=Times New Roman;fontSize=10;gradientColor=none;" parent="1" vertex="1">
          <mxGeometry x="1279.03" y="-687" width="477.44" height="57.5" as="geometry" />
        </mxCell>
        <mxCell id="VFXCynfjDcZCcVKc1l1U-55" value="&lt;div style=&quot;text-align: left;&quot;&gt;&lt;span style=&quot;font-size: 10px;&quot;&gt;Kolmogorov-Smirnov-based connectivity.&lt;/span&gt;&lt;/div&gt;" style="text;html=1;strokeColor=none;fillColor=none;align=center;verticalAlign=middle;spacingLeft=4;spacingRight=4;whiteSpace=wrap;overflow=hidden;rotatable=0;fontColor=#000000;fontFamily=Times New Roman;" parent="VFXCynfjDcZCcVKc1l1U-54" vertex="1">
          <mxGeometry y="30" width="477.44" height="27.5" as="geometry" />
        </mxCell>
        <mxCell id="VFXCynfjDcZCcVKc1l1U-58" value="ALGORITHM" style="ellipse;whiteSpace=wrap;html=1;align=center;newEdgeStyle={&quot;edgeStyle&quot;:&quot;entityRelationEdgeStyle&quot;,&quot;startArrow&quot;:&quot;none&quot;,&quot;endArrow&quot;:&quot;none&quot;,&quot;segment&quot;:10,&quot;curved&quot;:1,&quot;sourcePerimeterSpacing&quot;:0,&quot;targetPerimeterSpacing&quot;:0};treeFolding=1;treeMoving=1;fontStyle=1" parent="1" vertex="1">
          <mxGeometry x="1076.29" y="-601.9999999999998" width="100" height="40" as="geometry" />
        </mxCell>
        <mxCell id="P5JcZGdYK31gjmeDLwL_-1" style="edgeStyle=orthogonalEdgeStyle;rounded=0;orthogonalLoop=1;jettySize=auto;html=1;entryX=0;entryY=0;entryDx=0;entryDy=0;" edge="1" parent="1" source="VFXCynfjDcZCcVKc1l1U-59" target="VFXCynfjDcZCcVKc1l1U-55">
          <mxGeometry relative="1" as="geometry">
            <Array as="points">
              <mxPoint x="1229" y="-520" />
              <mxPoint x="1229" y="-657" />
            </Array>
          </mxGeometry>
        </mxCell>
        <mxCell id="P5JcZGdYK31gjmeDLwL_-2" style="edgeStyle=orthogonalEdgeStyle;rounded=0;orthogonalLoop=1;jettySize=auto;html=1;entryX=0;entryY=0;entryDx=0;entryDy=0;" edge="1" parent="1" source="VFXCynfjDcZCcVKc1l1U-59" target="VFXCynfjDcZCcVKc1l1U-61">
          <mxGeometry relative="1" as="geometry">
            <Array as="points">
              <mxPoint x="1230" y="-520" />
              <mxPoint x="1230" y="-584" />
            </Array>
          </mxGeometry>
        </mxCell>
        <mxCell id="P5JcZGdYK31gjmeDLwL_-3" style="edgeStyle=orthogonalEdgeStyle;rounded=0;orthogonalLoop=1;jettySize=auto;html=1;entryX=0;entryY=0;entryDx=0;entryDy=0;" edge="1" parent="1" target="VFXCynfjDcZCcVKc1l1U-63">
          <mxGeometry relative="1" as="geometry">
            <mxPoint x="1163.7600000000002" y="-520.2373417721519" as="sourcePoint" />
            <mxPoint x="1280" y="-510" as="targetPoint" />
            <Array as="points">
              <mxPoint x="1250" y="-520" />
              <mxPoint x="1281" y="-520" />
            </Array>
          </mxGeometry>
        </mxCell>
        <mxCell id="P5JcZGdYK31gjmeDLwL_-4" style="edgeStyle=orthogonalEdgeStyle;rounded=0;orthogonalLoop=1;jettySize=auto;html=1;entryX=0;entryY=0;entryDx=0;entryDy=0;" edge="1" parent="1" source="VFXCynfjDcZCcVKc1l1U-59" target="VFXCynfjDcZCcVKc1l1U-68">
          <mxGeometry relative="1" as="geometry">
            <Array as="points">
              <mxPoint x="1230" y="-520" />
              <mxPoint x="1230" y="-450" />
            </Array>
          </mxGeometry>
        </mxCell>
        <mxCell id="P5JcZGdYK31gjmeDLwL_-5" style="edgeStyle=orthogonalEdgeStyle;rounded=0;orthogonalLoop=1;jettySize=auto;html=1;entryX=0;entryY=0;entryDx=0;entryDy=0;" edge="1" parent="1" source="VFXCynfjDcZCcVKc1l1U-59" target="oZG5pJ87hHectkB1Yorz-29">
          <mxGeometry relative="1" as="geometry">
            <Array as="points">
              <mxPoint x="1230" y="-520" />
              <mxPoint x="1230" y="-380" />
              <mxPoint x="1281" y="-380" />
            </Array>
          </mxGeometry>
        </mxCell>
        <mxCell id="P5JcZGdYK31gjmeDLwL_-6" style="edgeStyle=orthogonalEdgeStyle;rounded=0;orthogonalLoop=1;jettySize=auto;html=1;entryX=0;entryY=0;entryDx=0;entryDy=0;" edge="1" parent="1" source="VFXCynfjDcZCcVKc1l1U-59" target="VFXCynfjDcZCcVKc1l1U-66">
          <mxGeometry relative="1" as="geometry">
            <Array as="points">
              <mxPoint x="1230" y="-520" />
              <mxPoint x="1230" y="-310" />
            </Array>
          </mxGeometry>
        </mxCell>
        <mxCell id="VFXCynfjDcZCcVKc1l1U-59" value="Which?" style="strokeWidth=1;html=1;shape=mxgraph.flowchart.decision;whiteSpace=wrap;" parent="1" vertex="1">
          <mxGeometry x="1084.1600000000003" y="-542.1099999999997" width="94.25" height="43.97" as="geometry" />
        </mxCell>
        <mxCell id="VFXCynfjDcZCcVKc1l1U-60" value="XCosScore(refMatrix, query, topN = 500, permuteNum = 10000, pAdjMethod = &quot;BH&quot;, mcCore = 1)" style="swimlane;fontStyle=1;align=center;verticalAlign=middle;childLayout=stackLayout;horizontal=1;startSize=30;horizontalStack=0;resizeParent=0;resizeLast=1;container=0;collapsible=0;rounded=1;arcSize=30;strokeColor=#d6b656;fillColor=#fff2cc;swimlaneFillColor=default;dropTarget=0;fontFamily=Times New Roman;fontSize=10;gradientColor=none;" parent="1" vertex="1">
          <mxGeometry x="1280.56" y="-614" width="516.88" height="57.5" as="geometry" />
        </mxCell>
        <mxCell id="VFXCynfjDcZCcVKc1l1U-61" value="&lt;div style=&quot;text-align: left;&quot;&gt;&lt;span style=&quot;background-color: initial; font-size: 10px;&quot;&gt;Cosine similarity-based scoring&lt;/span&gt;&lt;/div&gt;" style="text;html=1;strokeColor=none;fillColor=none;align=center;verticalAlign=middle;spacingLeft=4;spacingRight=4;whiteSpace=wrap;overflow=hidden;rotatable=0;fontColor=#000000;fontFamily=Times New Roman;" parent="VFXCynfjDcZCcVKc1l1U-60" vertex="1">
          <mxGeometry y="30" width="516.88" height="27.5" as="geometry" />
        </mxCell>
        <mxCell id="VFXCynfjDcZCcVKc1l1U-62" value="XSumScore(refMatrix, queryUp, queryDown, topN = 500, permuteNum = 10000, pAdjMethod = &quot;BH&quot;, mcCore = 1)" style="swimlane;fontStyle=1;align=center;verticalAlign=middle;childLayout=stackLayout;horizontal=1;startSize=30;horizontalStack=0;resizeParent=0;resizeLast=1;container=0;collapsible=0;rounded=1;arcSize=30;strokeColor=#d6b656;fillColor=#fff2cc;swimlaneFillColor=default;dropTarget=0;fontFamily=Times New Roman;fontSize=10;gradientColor=none;" parent="1" vertex="1">
          <mxGeometry x="1280.56" y="-550" width="526.88" height="57.5" as="geometry" />
        </mxCell>
        <mxCell id="VFXCynfjDcZCcVKc1l1U-63" value="&lt;div style=&quot;text-align: left;&quot;&gt;&lt;span style=&quot;font-size: 10px;&quot;&gt;Connectivity score summing gene ranks&lt;/span&gt;&lt;/div&gt;" style="text;html=1;strokeColor=none;fillColor=none;align=center;verticalAlign=middle;spacingLeft=4;spacingRight=4;whiteSpace=wrap;overflow=hidden;rotatable=0;fontColor=#000000;fontFamily=Times New Roman;" parent="VFXCynfjDcZCcVKc1l1U-62" vertex="1">
          <mxGeometry y="30" width="526.88" height="27.5" as="geometry" />
        </mxCell>
        <mxCell id="VFXCynfjDcZCcVKc1l1U-65" value="GSEAweight1Score(refMatrix, queryUp, queryDown, permuteNum = 10000, pAdjMethod = &quot;BH&quot;, mcCore = 1)" style="swimlane;fontStyle=1;align=center;verticalAlign=middle;childLayout=stackLayout;horizontal=1;startSize=30;horizontalStack=0;resizeParent=0;resizeLast=1;container=0;collapsible=0;rounded=1;arcSize=30;strokeColor=#d6b656;fillColor=#fff2cc;swimlaneFillColor=default;dropTarget=0;fontFamily=Times New Roman;fontSize=10;gradientColor=none;" parent="1" vertex="1">
          <mxGeometry x="1280.56" y="-340" width="522.88" height="60" as="geometry" />
        </mxCell>
        <mxCell id="VFXCynfjDcZCcVKc1l1U-66" value="&lt;div style=&quot;text-align: left;&quot;&gt;&lt;span style=&quot;font-size: 10px;&quot;&gt;GSEAweight0 &amp;amp; GSEAweight1: GSEA-like scoring with different weight factors&lt;/span&gt;&lt;/div&gt;" style="text;html=1;strokeColor=none;fillColor=none;align=center;verticalAlign=middle;spacingLeft=4;spacingRight=4;whiteSpace=wrap;overflow=hidden;rotatable=0;fontColor=#000000;fontFamily=Times New Roman;" parent="VFXCynfjDcZCcVKc1l1U-65" vertex="1">
          <mxGeometry y="30" width="522.88" height="30" as="geometry" />
        </mxCell>
        <mxCell id="VFXCynfjDcZCcVKc1l1U-67" value="ZhangScore(refMatrix, queryUp, queryDown, permuteNum = 10000, pAdjMethod = &quot;BH&quot;, mcCore = 1)" style="swimlane;fontStyle=1;align=center;verticalAlign=middle;childLayout=stackLayout;horizontal=1;startSize=30;horizontalStack=0;resizeParent=0;resizeLast=1;container=0;collapsible=0;rounded=1;arcSize=30;strokeColor=#d6b656;fillColor=#fff2cc;swimlaneFillColor=default;dropTarget=0;fontFamily=Times New Roman;fontSize=10;gradientColor=none;" parent="1" vertex="1">
          <mxGeometry x="1280.56" y="-480" width="515.6" height="60" as="geometry" />
        </mxCell>
        <mxCell id="VFXCynfjDcZCcVKc1l1U-68" value="&lt;div style=&quot;text-align: left;&quot;&gt;&lt;span style=&quot;font-size: 10px;&quot;&gt;Zhang: A specific scoring algorithm from the RCSM package&lt;/span&gt;&lt;/div&gt;" style="text;html=1;strokeColor=none;fillColor=none;align=center;verticalAlign=middle;spacingLeft=4;spacingRight=4;whiteSpace=wrap;overflow=hidden;rotatable=0;fontColor=#000000;fontFamily=Times New Roman;" parent="VFXCynfjDcZCcVKc1l1U-67" vertex="1">
          <mxGeometry y="30" width="515.6" height="30" as="geometry" />
        </mxCell>
        <mxCell id="oZG5pJ87hHectkB1Yorz-17" value="" style="group;fontFamily=Times New Roman;" parent="1" vertex="1" connectable="0">
          <mxGeometry x="1919.9999999999998" y="-1078" width="619.0000000000002" height="528" as="geometry" />
        </mxCell>
        <mxCell id="-rfvh13fIFtklXoSq2jB-81" value="&lt;h1 style=&quot;text-align: center; margin-top: 0px; line-height: 60%;&quot;&gt;&lt;font size=&quot;1&quot;&gt;&lt;span style=&quot;font-weight: 400;&quot;&gt;Vector identifying the samples for which protein scores are calculated&lt;/span&gt;&lt;/font&gt;&lt;/h1&gt;" style="text;html=1;whiteSpace=wrap;overflow=hidden;rounded=0;spacing=1;fontFamily=Times New Roman;" parent="oZG5pJ87hHectkB1Yorz-17" vertex="1">
          <mxGeometry x="180.25" y="323.6" width="169.5" height="40.81" as="geometry" />
        </mxCell>
        <mxCell id="-rfvh13fIFtklXoSq2jB-101" style="edgeStyle=orthogonalEdgeStyle;rounded=0;orthogonalLoop=1;jettySize=auto;html=1;exitX=0.998;exitY=0.429;exitDx=0;exitDy=0;exitPerimeter=0;entryX=-0.001;entryY=0.086;entryDx=0;entryDy=0;entryPerimeter=0;fontFamily=Times New Roman;" parent="oZG5pJ87hHectkB1Yorz-17" source="-rfvh13fIFtklXoSq2jB-44" target="-rfvh13fIFtklXoSq2jB-81" edge="1">
          <mxGeometry relative="1" as="geometry">
            <mxPoint x="179.00000000000023" y="323" as="targetPoint" />
            <mxPoint x="149.00000000000023" y="327" as="sourcePoint" />
            <Array as="points">
              <mxPoint x="173" y="327" />
            </Array>
          </mxGeometry>
        </mxCell>
        <mxCell id="-rfvh13fIFtklXoSq2jB-3" value="&lt;font face=&quot;Times New Roman&quot;&gt;ProTINA (&lt;b&gt;Pro&lt;/b&gt;tein &lt;b&gt;T&lt;/b&gt;arget &lt;b&gt;I&lt;/b&gt;nference by &lt;b&gt;N&lt;/b&gt;etwork &lt;b&gt;A&lt;/b&gt;nalysis)&lt;/font&gt;" style="shape=process;whiteSpace=wrap;html=1;backgroundOutline=1;fillColor=#d5e8d4;strokeColor=#82b366;fontFamily=Times New Roman;" parent="oZG5pJ87hHectkB1Yorz-17" vertex="1">
          <mxGeometry x="72.75" width="404" height="25.75" as="geometry" />
        </mxCell>
        <mxCell id="-rfvh13fIFtklXoSq2jB-42" style="edgeStyle=orthogonalEdgeStyle;rounded=0;orthogonalLoop=1;jettySize=auto;html=1;entryX=0.516;entryY=-0.009;entryDx=0;entryDy=0;exitX=0.5;exitY=1;exitDx=0;exitDy=0;entryPerimeter=0;fontFamily=Times New Roman;" parent="oZG5pJ87hHectkB1Yorz-17" source="-rfvh13fIFtklXoSq2jB-105" target="-rfvh13fIFtklXoSq2jB-22" edge="1">
          <mxGeometry relative="1" as="geometry">
            <mxPoint x="385.0000000000002" y="70" as="sourcePoint" />
            <Array as="points">
              <mxPoint x="350.0000000000002" y="120" />
              <mxPoint x="260.0000000000002" y="120" />
            </Array>
          </mxGeometry>
        </mxCell>
        <mxCell id="-rfvh13fIFtklXoSq2jB-77" style="edgeStyle=orthogonalEdgeStyle;rounded=0;orthogonalLoop=1;jettySize=auto;html=1;endArrow=none;endFill=0;fontFamily=Times New Roman;" parent="oZG5pJ87hHectkB1Yorz-17" source="-rfvh13fIFtklXoSq2jB-7" edge="1">
          <mxGeometry relative="1" as="geometry">
            <Array as="points">
              <mxPoint x="440.0000000000002" y="203" />
              <mxPoint x="270.0000000000002" y="203" />
            </Array>
            <mxPoint x="270.0000000000002" y="203" as="targetPoint" />
          </mxGeometry>
        </mxCell>
        <mxCell id="-rfvh13fIFtklXoSq2jB-7" value="ppi" style="swimlane;whiteSpace=wrap;html=1;expand=1;collapsible=0;startSize=18;fontFamily=Times New Roman;" parent="oZG5pJ87hHectkB1Yorz-17" vertex="1">
          <mxGeometry x="360.0000000000002" y="138.41999999999996" width="170" height="41.58" as="geometry">
            <mxRectangle x="510" y="-73.21" width="140" height="30" as="alternateBounds" />
          </mxGeometry>
        </mxCell>
        <mxCell id="-rfvh13fIFtklXoSq2jB-8" value="&lt;h1 style=&quot;margin-top: 0px; line-height: 44%;&quot;&gt;&lt;font style=&quot;font-size: 10px;&quot;&gt;&lt;span style=&quot;font-weight: 400;&quot;&gt;Protein-Protein Interaction network&lt;/span&gt;&lt;/font&gt;&lt;/h1&gt;" style="text;html=1;whiteSpace=wrap;overflow=hidden;rounded=0;fontFamily=Times New Roman;align=center;" parent="-rfvh13fIFtklXoSq2jB-7" vertex="1">
          <mxGeometry x="1.75" y="13.38" width="170" height="26.29" as="geometry" />
        </mxCell>
        <mxCell id="-rfvh13fIFtklXoSq2jB-76" style="edgeStyle=orthogonalEdgeStyle;rounded=0;orthogonalLoop=1;jettySize=auto;html=1;entryX=0.469;entryY=-0.016;entryDx=0;entryDy=0;entryPerimeter=0;exitX=0.499;exitY=1.083;exitDx=0;exitDy=0;exitPerimeter=0;fontFamily=Times New Roman;" parent="oZG5pJ87hHectkB1Yorz-17" edge="1">
          <mxGeometry relative="1" as="geometry">
            <mxPoint x="259.77399999999966" y="180.1579999999999" as="sourcePoint" />
            <mxPoint x="259.79250000000025" y="226.23999999999978" as="targetPoint" />
            <Array as="points" />
          </mxGeometry>
        </mxCell>
        <mxCell id="-rfvh13fIFtklXoSq2jB-22" value="tftg" style="swimlane;whiteSpace=wrap;html=1;expand=1;collapsible=0;startSize=18;fontFamily=Times New Roman;" parent="oZG5pJ87hHectkB1Yorz-17" vertex="1">
          <mxGeometry x="172" y="138.01999999999998" width="170" height="41.98" as="geometry">
            <mxRectangle x="260" y="-71" width="140" height="30" as="alternateBounds" />
          </mxGeometry>
        </mxCell>
        <mxCell id="-rfvh13fIFtklXoSq2jB-23" value="&lt;h1 style=&quot;margin-top: 0px; line-height: 44%;&quot;&gt;&lt;font size=&quot;1&quot;&gt;&lt;span style=&quot;font-weight: 400;&quot;&gt;Transcription Factor - Gene network&lt;/span&gt;&lt;/font&gt;&lt;/h1&gt;" style="text;html=1;whiteSpace=wrap;overflow=hidden;rounded=0;spacing=-1;fontFamily=Times New Roman;align=center;" parent="-rfvh13fIFtklXoSq2jB-22" vertex="1">
          <mxGeometry x="2.9400000000000004" y="16.98" width="166" height="26" as="geometry" />
        </mxCell>
        <mxCell id="-rfvh13fIFtklXoSq2jB-38" style="edgeStyle=orthogonalEdgeStyle;rounded=0;orthogonalLoop=1;jettySize=auto;html=1;exitX=0.5;exitY=1;exitDx=0;exitDy=0;fontFamily=Times New Roman;" parent="oZG5pJ87hHectkB1Yorz-17" source="-rfvh13fIFtklXoSq2jB-105" edge="1">
          <mxGeometry relative="1" as="geometry">
            <mxPoint x="415.0000000000002" y="70" as="sourcePoint" />
            <Array as="points">
              <mxPoint x="350.0000000000002" y="120" />
              <mxPoint x="440.0000000000002" y="120" />
            </Array>
            <mxPoint x="440.0000000000002" y="138" as="targetPoint" />
          </mxGeometry>
        </mxCell>
        <mxCell id="-rfvh13fIFtklXoSq2jB-79" style="edgeStyle=orthogonalEdgeStyle;rounded=0;orthogonalLoop=1;jettySize=auto;html=1;endArrow=none;endFill=0;exitX=0.499;exitY=1.056;exitDx=0;exitDy=0;exitPerimeter=0;fontFamily=Times New Roman;" parent="oZG5pJ87hHectkB1Yorz-17" source="-rfvh13fIFtklXoSq2jB-40" edge="1">
          <mxGeometry relative="1" as="geometry">
            <Array as="points">
              <mxPoint x="92" y="203" />
              <mxPoint x="270.0000000000002" y="203" />
            </Array>
            <mxPoint x="270.0000000000002" y="203" as="targetPoint" />
          </mxGeometry>
        </mxCell>
        <mxCell id="-rfvh13fIFtklXoSq2jB-39" value="glist" style="swimlane;whiteSpace=wrap;html=1;expand=1;collapsible=0;startSize=17;fontFamily=Times New Roman;container=0;" parent="oZG5pJ87hHectkB1Yorz-17" vertex="1">
          <mxGeometry x="33.5" y="138.81999999999994" width="120" height="41.18" as="geometry">
            <mxRectangle x="44" y="-71" width="140" height="30" as="alternateBounds" />
          </mxGeometry>
        </mxCell>
        <mxCell id="-rfvh13fIFtklXoSq2jB-71" style="edgeStyle=orthogonalEdgeStyle;rounded=0;orthogonalLoop=1;jettySize=auto;html=1;entryX=-0.001;entryY=0.456;entryDx=0;entryDy=0;exitX=0;exitY=0.25;exitDx=0;exitDy=0;entryPerimeter=0;fontFamily=Times New Roman;" parent="oZG5pJ87hHectkB1Yorz-17" source="-rfvh13fIFtklXoSq2jB-44" target="-rfvh13fIFtklXoSq2jB-39" edge="1">
          <mxGeometry relative="1" as="geometry">
            <mxPoint x="20" y="250" as="sourcePoint" />
            <mxPoint x="30" y="188" as="targetPoint" />
            <Array as="points" />
          </mxGeometry>
        </mxCell>
        <mxCell id="-rfvh13fIFtklXoSq2jB-95" style="edgeStyle=orthogonalEdgeStyle;rounded=0;orthogonalLoop=1;jettySize=auto;html=1;endArrow=none;endFill=0;fontFamily=Times New Roman;" parent="oZG5pJ87hHectkB1Yorz-17" source="-rfvh13fIFtklXoSq2jB-44" edge="1">
          <mxGeometry relative="1" as="geometry">
            <mxPoint x="268.0000000000002" y="386" as="targetPoint" />
            <Array as="points">
              <mxPoint x="90" y="386" />
            </Array>
          </mxGeometry>
        </mxCell>
        <mxCell id="-rfvh13fIFtklXoSq2jB-123" style="edgeStyle=orthogonalEdgeStyle;rounded=0;orthogonalLoop=1;jettySize=auto;html=1;exitX=0;exitY=0.5;exitDx=0;exitDy=0;entryX=-0.004;entryY=0.421;entryDx=0;entryDy=0;entryPerimeter=0;fontFamily=Times New Roman;" parent="oZG5pJ87hHectkB1Yorz-17" source="-rfvh13fIFtklXoSq2jB-121" target="-rfvh13fIFtklXoSq2jB-44" edge="1">
          <mxGeometry relative="1" as="geometry">
            <mxPoint x="30" y="330" as="targetPoint" />
            <Array as="points">
              <mxPoint x="16" y="79" />
              <mxPoint y="79" />
              <mxPoint y="327" />
            </Array>
          </mxGeometry>
        </mxCell>
        <mxCell id="-rfvh13fIFtklXoSq2jB-44" value="lfc" style="swimlane;whiteSpace=wrap;html=1;expand=1;collapsible=0;startSize=18;fontFamily=Times New Roman;container=0;" parent="oZG5pJ87hHectkB1Yorz-17" vertex="1">
          <mxGeometry x="38" y="309.5" width="110" height="41.5" as="geometry">
            <mxRectangle x="1510" y="-603" width="140" height="30" as="alternateBounds" />
          </mxGeometry>
        </mxCell>
        <mxCell id="-rfvh13fIFtklXoSq2jB-116" style="edgeStyle=orthogonalEdgeStyle;rounded=0;orthogonalLoop=1;jettySize=auto;html=1;entryX=0.464;entryY=-0.016;entryDx=0;entryDy=0;exitX=0.842;exitY=1.025;exitDx=0;exitDy=0;exitPerimeter=0;entryPerimeter=0;fontFamily=Times New Roman;" parent="oZG5pJ87hHectkB1Yorz-17" target="-rfvh13fIFtklXoSq2jB-82" edge="1">
          <mxGeometry relative="1" as="geometry">
            <mxPoint x="530.0000000000002" y="319" as="targetPoint" />
            <Array as="points" />
            <mxPoint x="439.76500000000055" y="274.01250000000005" as="sourcePoint" />
          </mxGeometry>
        </mxCell>
        <mxCell id="-rfvh13fIFtklXoSq2jB-80" value="grplist" style="swimlane;whiteSpace=wrap;html=1;expand=1;collapsible=0;startSize=19;fontFamily=Times New Roman;" parent="oZG5pJ87hHectkB1Yorz-17" vertex="1">
          <mxGeometry x="181.25" y="309" width="168.5" height="61" as="geometry">
            <mxRectangle x="253" y="-100" width="140" height="30" as="alternateBounds" />
          </mxGeometry>
        </mxCell>
        <mxCell id="-rfvh13fIFtklXoSq2jB-99" style="edgeStyle=orthogonalEdgeStyle;rounded=0;orthogonalLoop=1;jettySize=auto;html=1;fontFamily=Times New Roman;entryX=0.481;entryY=-0.033;entryDx=0;entryDy=0;entryPerimeter=0;" parent="oZG5pJ87hHectkB1Yorz-17" source="-rfvh13fIFtklXoSq2jB-82" target="-rfvh13fIFtklXoSq2jB-93" edge="1">
          <mxGeometry relative="1" as="geometry">
            <Array as="points">
              <mxPoint x="440.0000000000002" y="386" />
              <mxPoint x="268.0000000000002" y="386" />
              <mxPoint x="268.0000000000002" y="403" />
              <mxPoint x="268.0000000000002" y="403" />
            </Array>
            <mxPoint x="269.0000000000002" y="403" as="targetPoint" />
          </mxGeometry>
        </mxCell>
        <mxCell id="-rfvh13fIFtklXoSq2jB-82" value="pgn" style="swimlane;whiteSpace=wrap;html=1;collapsible=0;startSize=16;fontFamily=Times New Roman;" parent="oZG5pJ87hHectkB1Yorz-17" vertex="1">
          <mxGeometry x="370.0000000000002" y="310" width="150" height="60" as="geometry">
            <mxRectangle x="253" y="-100" width="140" height="30" as="alternateBounds" />
          </mxGeometry>
        </mxCell>
        <mxCell id="-rfvh13fIFtklXoSq2jB-83" value="&lt;h1 style=&quot;text-align: center; margin-top: 0px; line-height: 60%;&quot;&gt;&lt;font style=&quot;font-size: 10px;&quot;&gt;&lt;font style=&quot;&quot;&gt;&lt;span style=&quot;font-weight: 400;&quot;&gt;Adjacency matrix of Protein-Gene Regulatory Network&lt;/span&gt;&lt;/font&gt;&lt;/font&gt;&lt;/h1&gt;&lt;div&gt;&lt;font style=&quot;font-size: 11px;&quot;&gt;&lt;span style=&quot;font-weight: 400;&quot;&gt;&lt;br&gt;&lt;/span&gt;&lt;/font&gt;&lt;/div&gt;" style="text;html=1;whiteSpace=wrap;overflow=hidden;rounded=0;movable=1;resizable=1;rotatable=1;deletable=1;editable=1;locked=0;connectable=1;spacing=1;fontFamily=Times New Roman;" parent="-rfvh13fIFtklXoSq2jB-82" vertex="1">
          <mxGeometry x="2" y="13.19" width="144" height="50" as="geometry" />
        </mxCell>
        <mxCell id="-rfvh13fIFtklXoSq2jB-88" value="Pscore" style="swimlane;whiteSpace=wrap;html=1;collapsible=0;startSize=15;fontFamily=Times New Roman;" parent="oZG5pJ87hHectkB1Yorz-17" vertex="1">
          <mxGeometry x="201.94000000000005" y="489.30999999999995" width="132.06" height="38.69" as="geometry">
            <mxRectangle x="253" y="-100" width="140" height="30" as="alternateBounds" />
          </mxGeometry>
        </mxCell>
        <mxCell id="-rfvh13fIFtklXoSq2jB-89" value="&lt;h1 style=&quot;margin-top: 0px; line-height: 60%;&quot;&gt;&lt;span style=&quot;font-weight: 400;&quot;&gt;&lt;font style=&quot;font-size: 10px;&quot;&gt;The matrix of protein scores&lt;/font&gt;&lt;/span&gt;&lt;/h1&gt;" style="text;html=1;whiteSpace=wrap;overflow=hidden;rounded=0;spacing=1;imageAlign=center;fontFamily=Times New Roman;align=center;" parent="-rfvh13fIFtklXoSq2jB-88" vertex="1">
          <mxGeometry x="-1" y="10" width="135" height="24.62" as="geometry" />
        </mxCell>
        <mxCell id="-rfvh13fIFtklXoSq2jB-93" value="protina_custom(lfc, pgn, slope=NULL, grplist, kfold=10, par=FALSE, numCores=4)" style="swimlane;fontStyle=1;align=center;verticalAlign=middle;childLayout=stackLayout;horizontal=1;startSize=22;horizontalStack=0;resizeParent=0;resizeLast=1;container=0;collapsible=0;rounded=1;arcSize=30;strokeColor=#d6b656;fillColor=#fff2cc;swimlaneFillColor=default;dropTarget=0;fontFamily=Times New Roman;fontSize=12;spacing=1;spacingLeft=0;" parent="oZG5pJ87hHectkB1Yorz-17" vertex="1">
          <mxGeometry x="37" y="411.12" width="480" height="48.88" as="geometry" />
        </mxCell>
        <mxCell id="-rfvh13fIFtklXoSq2jB-94" value="&lt;font&gt;&lt;span style=&quot;&quot;&gt;&lt;font style=&quot;&quot;&gt;Customized function that generates&amp;nbsp;&lt;/font&gt;&lt;/span&gt;&lt;span style=&quot;&quot;&gt;protein scores for each drug treatment&lt;/span&gt;&lt;span style=&quot;&quot;&gt;&lt;font style=&quot;&quot;&gt;&amp;nbsp;without replicates&lt;/font&gt;&lt;/span&gt;&lt;/font&gt;" style="text;html=1;strokeColor=none;fillColor=none;align=center;verticalAlign=middle;spacingLeft=4;spacingRight=4;whiteSpace=wrap;overflow=hidden;rotatable=0;fontColor=#000000;fontFamily=Times New Roman;" parent="-rfvh13fIFtklXoSq2jB-93" vertex="1">
          <mxGeometry y="22" width="480" height="26.880000000000003" as="geometry" />
        </mxCell>
        <mxCell id="-rfvh13fIFtklXoSq2jB-105" value="&lt;font data-font-src=&quot;https://fonts.googleapis.com/css?family=Avenir+Next+LT+Pro&quot;&gt;REFERENCE&lt;/font&gt;" style="ellipse;whiteSpace=wrap;html=1;align=center;newEdgeStyle={&quot;edgeStyle&quot;:&quot;entityRelationEdgeStyle&quot;,&quot;startArrow&quot;:&quot;none&quot;,&quot;endArrow&quot;:&quot;none&quot;,&quot;segment&quot;:10,&quot;curved&quot;:1,&quot;sourcePerimeterSpacing&quot;:0,&quot;targetPerimeterSpacing&quot;:0};treeFolding=1;treeMoving=1;fontStyle=1;fillColor=#D4D4D4;strokeColor=#666666;fontColor=#333333;shadow=0;noLabel=0;expand=1;editable=1;movable=1;resizable=0;rotatable=1;deletable=1;locked=0;connectable=1;fontFamily=Times New Roman;" parent="oZG5pJ87hHectkB1Yorz-17" vertex="1">
          <mxGeometry x="300.0000000000002" y="58.82000000000005" width="100" height="40" as="geometry" />
        </mxCell>
        <mxCell id="-rfvh13fIFtklXoSq2jB-121" value="DATASET" style="ellipse;whiteSpace=wrap;html=1;align=center;newEdgeStyle={&quot;edgeStyle&quot;:&quot;entityRelationEdgeStyle&quot;,&quot;startArrow&quot;:&quot;none&quot;,&quot;endArrow&quot;:&quot;none&quot;,&quot;segment&quot;:10,&quot;curved&quot;:1,&quot;sourcePerimeterSpacing&quot;:0,&quot;targetPerimeterSpacing&quot;:0};treeFolding=1;treeMoving=1;fontStyle=1;fillColor=#D6D6D6;strokeColor=#666666;fontColor=#333333;resizable=0;fontFamily=Times New Roman;container=0;" parent="oZG5pJ87hHectkB1Yorz-17" vertex="1">
          <mxGeometry x="15.75" y="60.819999999999936" width="100" height="40" as="geometry" />
        </mxCell>
        <mxCell id="-rfvh13fIFtklXoSq2jB-97" style="edgeStyle=orthogonalEdgeStyle;rounded=0;orthogonalLoop=1;jettySize=auto;html=1;endArrow=none;endFill=0;fontFamily=Times New Roman;" parent="oZG5pJ87hHectkB1Yorz-17" edge="1">
          <mxGeometry relative="1" as="geometry">
            <mxPoint x="267.7900000000002" y="370" as="sourcePoint" />
            <mxPoint x="268.0900000000004" y="393" as="targetPoint" />
            <Array as="points">
              <mxPoint x="268.0899999999999" y="393" />
            </Array>
          </mxGeometry>
        </mxCell>
        <mxCell id="-rfvh13fIFtklXoSq2jB-40" value="&lt;h1 style=&quot;margin-top: 0px; line-height: 44%;&quot;&gt;&lt;span style=&quot;background-color: initial;&quot;&gt;&lt;font style=&quot;font-size: 10px;&quot;&gt;&lt;span style=&quot;font-weight: normal;&quot;&gt;Vector of the genes in&amp;nbsp;lfc&lt;/span&gt;&lt;/font&gt;&lt;/span&gt;&lt;/h1&gt;" style="text;html=1;whiteSpace=wrap;overflow=hidden;rounded=0;align=center;spacing=0;fontFamily=Times New Roman;container=0;" parent="oZG5pJ87hHectkB1Yorz-17" vertex="1">
          <mxGeometry x="34.5" y="153.9999999999999" width="117.5" height="26" as="geometry" />
        </mxCell>
        <mxCell id="-rfvh13fIFtklXoSq2jB-66" value="&lt;h1 style=&quot;margin-top: 0px; line-height: 44%;&quot;&gt;&lt;span style=&quot;font-weight: 400; font-size: x-small; background-color: initial;&quot;&gt;Log&lt;sub&gt;2&lt;/sub&gt; Fold change data&lt;/span&gt;&lt;/h1&gt;" style="text;html=1;whiteSpace=wrap;overflow=hidden;rounded=0;align=center;spacing=0;fontFamily=Times New Roman;container=0;" parent="oZG5pJ87hHectkB1Yorz-17" vertex="1">
          <mxGeometry x="40.25" y="323.6" width="105.5" height="27.31" as="geometry" />
        </mxCell>
        <mxCell id="oZG5pJ87hHectkB1Yorz-16" style="edgeStyle=orthogonalEdgeStyle;rounded=0;orthogonalLoop=1;jettySize=auto;html=1;entryX=0.5;entryY=0;entryDx=0;entryDy=0;exitX=0.48;exitY=1.018;exitDx=0;exitDy=0;exitPerimeter=0;fontFamily=Times New Roman;" parent="oZG5pJ87hHectkB1Yorz-17" source="-rfvh13fIFtklXoSq2jB-94" target="-rfvh13fIFtklXoSq2jB-88" edge="1">
          <mxGeometry relative="1" as="geometry" />
        </mxCell>
        <mxCell id="IQ17fgJDdPyJFjwObOUP-1" value="generatePGN(glist, tftg, ppi, tftg_thre = 0, ptf_thre =  0, ppi_thre = 500)" style="swimlane;fontStyle=1;align=center;verticalAlign=middle;childLayout=stackLayout;horizontal=1;startSize=22;horizontalStack=0;resizeParent=0;resizeLast=1;container=0;collapsible=0;rounded=1;arcSize=30;strokeColor=#d6b656;fillColor=#fff2cc;swimlaneFillColor=default;dropTarget=0;fontFamily=Times New Roman;fontSize=12;spacing=1;spacingLeft=0;" parent="oZG5pJ87hHectkB1Yorz-17" vertex="1">
          <mxGeometry x="34.75000000000023" y="228" width="480" height="48.88" as="geometry" />
        </mxCell>
        <mxCell id="IQ17fgJDdPyJFjwObOUP-2" value="&lt;span style=&quot;text-align: left;&quot;&gt;&lt;font data-font-src=&quot;https://github.com/Zveroslav/Avenir-Next-LT-PRO/blob/master/fonts.css&quot;&gt;Generates Protein-Gene Regulatory Network&lt;/font&gt;&lt;/span&gt;" style="text;html=1;strokeColor=none;fillColor=none;align=center;verticalAlign=middle;spacingLeft=4;spacingRight=4;whiteSpace=wrap;overflow=hidden;rotatable=0;fontColor=#000000;fontFamily=Times New Roman;" parent="IQ17fgJDdPyJFjwObOUP-1" vertex="1">
          <mxGeometry y="22" width="480" height="26.880000000000003" as="geometry" />
        </mxCell>
        <mxCell id="oZG5pJ87hHectkB1Yorz-26" style="edgeStyle=entityRelationEdgeStyle;rounded=0;orthogonalLoop=1;jettySize=auto;html=1;startArrow=none;endArrow=none;segment=10;curved=0;sourcePerimeterSpacing=0;targetPerimeterSpacing=0;exitX=0.449;exitY=1.011;exitDx=0;exitDy=0;exitPerimeter=0;entryX=0.5;entryY=0;entryDx=0;entryDy=0;" parent="1" source="oZG5pJ87hHectkB1Yorz-18" target="oZG5pJ87hHectkB1Yorz-23" edge="1">
          <mxGeometry relative="1" as="geometry">
            <Array as="points">
              <mxPoint x="126" y="370" />
              <mxPoint x="136" y="370" />
              <mxPoint x="120" y="360" />
              <mxPoint x="130" y="350" />
              <mxPoint x="130" y="380" />
              <mxPoint x="110" y="370" />
              <mxPoint x="126" y="360" />
              <mxPoint x="130" y="370" />
              <mxPoint x="120" y="370" />
            </Array>
            <mxPoint x="120" y="380" as="targetPoint" />
          </mxGeometry>
        </mxCell>
        <mxCell id="oZG5pJ87hHectkB1Yorz-18" value="DATASET" style="ellipse;whiteSpace=wrap;html=1;align=center;newEdgeStyle={&quot;edgeStyle&quot;:&quot;entityRelationEdgeStyle&quot;,&quot;startArrow&quot;:&quot;none&quot;,&quot;endArrow&quot;:&quot;none&quot;,&quot;segment&quot;:10,&quot;curved&quot;:1,&quot;sourcePerimeterSpacing&quot;:0,&quot;targetPerimeterSpacing&quot;:0};treeFolding=1;treeMoving=1;fontStyle=1;fillColor=#D6D6D6;strokeColor=#666666;fontColor=#333333;resizable=0;fontFamily=Verdana;container=0;" parent="1" vertex="1">
          <mxGeometry x="89.99999999999972" y="314.97" width="100" height="40" as="geometry" />
        </mxCell>
        <mxCell id="oZG5pJ87hHectkB1Yorz-19" value="REFERENCE" style="ellipse;whiteSpace=wrap;html=1;align=center;newEdgeStyle={&quot;edgeStyle&quot;:&quot;entityRelationEdgeStyle&quot;,&quot;startArrow&quot;:&quot;none&quot;,&quot;endArrow&quot;:&quot;none&quot;,&quot;segment&quot;:10,&quot;curved&quot;:1,&quot;sourcePerimeterSpacing&quot;:0,&quot;targetPerimeterSpacing&quot;:0};treeFolding=1;treeMoving=1;fontStyle=1;fillColor=#D6D6D6;strokeColor=#666666;fontColor=#333333;resizable=0;fontFamily=Verdana;container=0;" parent="1" vertex="1">
          <mxGeometry x="357.9399999999997" y="114.77000000000004" width="100" height="40" as="geometry" />
        </mxCell>
        <mxCell id="oZG5pJ87hHectkB1Yorz-25" style="edgeStyle=orthogonalEdgeStyle;rounded=0;orthogonalLoop=1;jettySize=auto;html=1;entryX=0;entryY=0.25;entryDx=0;entryDy=0;" parent="1" source="oZG5pJ87hHectkB1Yorz-23" target="D4u7m-yXLqIdTDbyETIF-12" edge="1">
          <mxGeometry relative="1" as="geometry" />
        </mxCell>
        <mxCell id="oZG5pJ87hHectkB1Yorz-23" value="&lt;font face=&quot;Times New Roman&quot;&gt;DEGs&lt;/font&gt;" style="swimlane;whiteSpace=wrap;html=1;fontFamily=Verdana;startSize=20;" parent="1" vertex="1">
          <mxGeometry x="48.44" y="373.25" width="160" height="114.5" as="geometry">
            <mxRectangle x="253" y="-100" width="140" height="30" as="alternateBounds" />
          </mxGeometry>
        </mxCell>
        <mxCell id="oZG5pJ87hHectkB1Yorz-24" value="&lt;div style=&quot;background-color: transparent; color: light-dark(rgb(0, 0, 0), rgb(255, 255, 255)); display: inline !important;&quot;&gt;&lt;span style=&quot;font-size: 10px;&quot;&gt;List of data frames of differentially expressed gene data. Columns:&lt;/span&gt;&lt;/div&gt;&lt;ul style=&quot;font-size: 10px; background-color: transparent; color: light-dark(rgb(0, 0, 0), rgb(255, 255, 255)); line-height: 14px;&quot;&gt;&lt;li&gt;p-value or q-value&lt;/li&gt;&lt;li&gt;Fold change&lt;/li&gt;&lt;li&gt;Entrez ID&lt;/li&gt;&lt;/ul&gt;" style="text;html=1;align=left;verticalAlign=middle;whiteSpace=wrap;rounded=0;fontFamily=Times New Roman;" parent="oZG5pJ87hHectkB1Yorz-23" vertex="1">
          <mxGeometry x="5.19" y="29.72" width="154.81" height="76.13" as="geometry" />
        </mxCell>
        <mxCell id="oZG5pJ87hHectkB1Yorz-28" value="GSEAweight0Score(refMatrix, queryUp, queryDown, permuteNum = 10000, pAdjMethod = &quot;BH&quot;, mcCore = 1)" style="swimlane;fontStyle=1;align=center;verticalAlign=middle;childLayout=stackLayout;horizontal=1;startSize=30;horizontalStack=0;resizeParent=0;resizeLast=1;container=0;collapsible=0;rounded=1;arcSize=30;strokeColor=#d6b656;fillColor=#fff2cc;swimlaneFillColor=default;dropTarget=0;fontFamily=Times New Roman;fontSize=10;gradientColor=none;" parent="1" vertex="1">
          <mxGeometry x="1280.56" y="-411" width="522.88" height="60" as="geometry" />
        </mxCell>
        <mxCell id="oZG5pJ87hHectkB1Yorz-29" value="&lt;div style=&quot;text-align: left;&quot;&gt;&lt;span style=&quot;font-size: 10px;&quot;&gt;GSEAweight0 &amp;amp; GSEAweight1: GSEA-like scoring with different weight factors&lt;/span&gt;&lt;/div&gt;" style="text;html=1;strokeColor=none;fillColor=none;align=center;verticalAlign=middle;spacingLeft=4;spacingRight=4;whiteSpace=wrap;overflow=hidden;rotatable=0;fontColor=#000000;fontFamily=Times New Roman;" parent="oZG5pJ87hHectkB1Yorz-28" vertex="1">
          <mxGeometry y="30" width="522.88" height="30" as="geometry" />
        </mxCell>
      </root>
    </mxGraphModel>
  </diagram>
</mxfile>
